<svg width="52" height="41" viewBox="0 0 52 41" fill="none" xmlns="http://www.w3.org/2000/svg">
<path d="M51 2.71533L51 24.0071C51 24.5594 50.5523 25.0071 50 25.0071L1.99998 25.0071C1.4477 25.0071 0.999983 24.5594 0.999984 24.0071L0.999985 2.71533C0.999985 2.16305 1.4477 1.71533 1.99998 1.71533L50 1.71533C50.5523 1.71533 51 2.16305 51 2.71533Z" fill="white" stroke="#444444" stroke-width="2"/>
<path d="M8.04814 7.16907L31.34 7.16907" stroke="#444444" stroke-width="2" stroke-linecap="round"/>
<path d="M44.4038 7.21692H47.9838" stroke="#444444" stroke-width="1.4" stroke-linecap="round"/>
<path d="M8.04814 14.1691H31.34" stroke="#444444" stroke-width="2" stroke-linecap="round"/>
<path d="M8.04814 18.1609H21.849" stroke="#444444" stroke-width="2" stroke-linecap="round"/>
<path d="M51 31.2855L51 39C51 39.5523 50.5523 40 50 40L2 40C1.44772 40 0.999999 39.5523 0.999999 39L1 31.2855C1 30.7332 1.44772 30.2855 2 30.2855L50 30.2855C50.5523 30.2855 51 30.7332 51 31.2855Z" fill="white" stroke="#444444" stroke-width="2"/>
<path d="M44.4093 35.1428H47.9861" stroke="#444444" stroke-width="1.4" stroke-linecap="round"/>
<path d="M46.1977 33.3541L46.1977 36.9316" stroke="#444444" stroke-width="1.4" stroke-linecap="round"/>
<path d="M8.04816 35.1428L31.3401 35.1428" stroke="#444444" stroke-width="2" stroke-linecap="round"/>
</svg>
