<svg width="52" height="41" viewBox="0 0 52 41" fill="none" xmlns="http://www.w3.org/2000/svg">
<path d="M51 2.71533L51 24.0071C51 24.5594 50.5523 25.0071 50 25.0071L1.99998 25.0071C1.4477 25.0071 0.999983 24.5594 0.999984 24.0071L0.999985 2.71533C0.999985 2.16305 1.4477 1.71533 1.99998 1.71533L50 1.71533C50.5523 1.71533 51 2.16305 51 2.71533Z" fill="white" stroke="#444444" stroke-width="2"/>
<path d="M8.04814 7.16907L31.34 7.16907" stroke="#444444" stroke-width="2" stroke-linecap="round"/>
<path d="M8.04814 14.1691H31.34" stroke="#444444" stroke-width="2" stroke-linecap="round"/>
<path d="M8.04814 18.1609H21.849" stroke="#444444" stroke-width="2" stroke-linecap="round"/>
<path d="M46.7423 8.02685C47.0612 7.70752 47.0612 7.1902 46.7423 6.87054L44.9907 5.11835C44.6715 4.79901 44.1541 4.79901 43.8349 5.11835L42.0833 6.87054C41.9237 7.03021 41.8439 7.23969 41.8439 7.44886C41.8439 7.65802 41.9237 7.86719 42.0833 8.02685C42.4025 8.34587 42.9199 8.34587 43.239 8.02685L44.4126 6.85234L45.5866 8.02685C45.9058 8.34619 46.4231 8.34619 46.7423 8.02685Z" fill="#444444"/>
<path d="M51 31.2855L51 39C51 39.5523 50.5523 40 50 40L2 40C1.44772 40 0.999999 39.5523 0.999999 39L1 31.2855C1 30.7332 1.44772 30.2855 2 30.2855L50 30.2855C50.5523 30.2855 51 30.7332 51 31.2855Z" fill="white" stroke="#444444" stroke-width="2"/>
<path d="M8.04816 35.1428L31.3401 35.1428" stroke="#444444" stroke-width="2" stroke-linecap="round"/>
<path d="M42.0831 33.6885C41.7642 34.0079 41.7642 34.5252 42.0831 34.8449L43.8347 36.597C44.1539 36.9164 44.6713 36.9164 44.9905 36.597L46.7421 34.8449C46.9017 34.6852 46.9815 34.4757 46.9815 34.2665C46.9815 34.0574 46.9017 33.8482 46.7421 33.6885C46.4229 33.3695 45.9055 33.3695 45.5864 33.6885L44.4128 34.8631L43.2388 33.6885C42.9196 33.3692 42.4023 33.3692 42.0831 33.6885Z" fill="#444444"/>
</svg>
