<svg width="74" height="41" viewBox="0 0 74 41" fill="none" xmlns="http://www.w3.org/2000/svg">
<rect x="51.9966" y="16.4841" width="20.1611" height="23.2097" rx="3" fill="white" stroke="#444444" stroke-width="2"/>
<rect x="55.0815" y="33.5669" width="13.9913" height="1" rx="0.5" fill="#444444" stroke="#444444"/>
<rect x="55.252" y="28.8101" width="9" height="1.11885" rx="0.559425" fill="#444444" stroke="#444444"/>
<rect x="26.9385" y="16.4841" width="20.1611" height="23.2097" rx="3" fill="white" stroke="#444444" stroke-width="2"/>
<rect x="30.0234" y="33.5667" width="13.9913" height="1" rx="0.5" fill="#444444" stroke="#444444"/>
<rect x="30.1938" y="28.8098" width="9" height="1.11885" rx="0.559425" fill="#444444" stroke="#444444"/>
<rect x="1.88086" y="16.4841" width="20.1611" height="23.2097" rx="3" fill="white" stroke="#444444" stroke-width="2"/>
<rect x="4.96582" y="33.5667" width="13.9913" height="1" rx="0.5" fill="#444444" stroke="#444444"/>
<rect x="5.13623" y="28.8098" width="9" height="1.11885" rx="0.559425" fill="#444444" stroke="#444444"/>
<rect x="1.0332" y="0.855713" width="14.4618" height="7" rx="3.5" fill="#444444"/>
<rect x="1.0332" y="0.855713" width="14.4618" height="7" rx="3.5" stroke="#444444"/>
<rect x="20.207" y="0.855713" width="14.4618" height="7" rx="3.5" fill="#444444"/>
<rect x="20.207" y="0.855713" width="14.4618" height="7" rx="3.5" stroke="#444444"/>
<rect x="39.3813" y="0.855713" width="14.4618" height="7" rx="3.5" fill="#444444"/>
<rect x="39.3813" y="0.855713" width="14.4618" height="7" rx="3.5" stroke="#444444"/>
<rect x="58.5547" y="0.855713" width="14.4618" height="7" rx="3.5" fill="#444444"/>
<rect x="58.5547" y="0.855713" width="14.4618" height="7" rx="3.5" stroke="#444444"/>
</svg>
