<svg width="41" height="42" viewBox="0 0 41 42" fill="none" xmlns="http://www.w3.org/2000/svg">
<path d="M1.16675 27H3.83325C4.20142 27 4.5 27.5594 4.5 28.2497V40.7498C4.5 41.4402 4.20142 42 3.83325 42H1.16675C0.798584 42 0.5 41.4402 0.5 40.7498V28.2497C0.5 27.5594 0.798584 27 1.16675 27Z" fill="#444444"/>
<path d="M13.1665 17H15.8333C16.2014 17 16.5 17.5598 16.5 18.2501V40.7499C16.5 41.4402 16.2014 42 15.8333 42H13.1665C12.7983 42 12.5 41.4402 12.5 40.7499V18.2501C12.5 17.5598 12.7983 17 13.1665 17Z" fill="#444444"/>
<path d="M25.1667 22H27.8335C28.2017 22 28.5 22.5598 28.5 23.2501V40.7499C28.5 41.4402 28.2017 42 27.8335 42H25.1667C24.7986 42 24.5 41.4402 24.5 40.7499V23.2501C24.5 22.5598 24.7986 22 25.1667 22Z" fill="#444444"/>
<path d="M37.1667 15H39.8333C40.2014 15 40.5 15.5497 40.5 16.2274V40.7726C40.5 41.4503 40.2014 42 39.8333 42H37.1667C36.7986 42 36.5 41.4503 36.5 40.7726V16.2274C36.5 15.5497 36.7986 15 37.1667 15Z" fill="#444444"/>
<path d="M3.5 14.0926L14.5 6.09259L26 10.0926L38.5 3.59259" stroke="#444444" stroke-width="2" stroke-linecap="round"/>
<circle cx="2.5" cy="15.0926" r="2.5" fill="#444444"/>
<circle cx="14.5" cy="5.09259" r="2.5" fill="#444444"/>
<circle cx="26.5" cy="10.0926" r="2.5" fill="#444444"/>
<circle cx="38.5" cy="3.09259" r="2.5" fill="#444444"/>
</svg>
