<svg width="52" height="38" viewBox="0 0 52 38" fill="none" xmlns="http://www.w3.org/2000/svg">
<rect x="1.11719" y="1.31372" width="49.8579" height="35.4965" rx="3" fill="white" stroke="#444444" stroke-width="2"/>
<rect x="10.5107" y="9.55566" width="30.9937" height="1" rx="0.5" fill="#444444" stroke="#444444"/>
<path d="M10.0107 29.0681L13.138 27.0557L16.2166 29.0681L19.3601 27.0557L22.4063 29.0681L25.485 27.0557L28.5798 29.0681L31.7395 27.0557L34.8131 29.0681L37.9327 27.0557L41.0102 29.0681" stroke="#444444" stroke-width="1.5" stroke-linecap="round"/>
<rect x="10.5107" y="18.5557" width="3.26392" height="1" rx="0.5" fill="#444444" stroke="#444444"/>
<rect x="16.0615" y="18.5557" width="3.26392" height="1" rx="0.5" fill="#444444" stroke="#444444"/>
<rect x="21.6123" y="18.5557" width="3.26392" height="1" rx="0.5" fill="#444444" stroke="#444444"/>
<rect x="27.1631" y="18.5557" width="3.26392" height="1" rx="0.5" fill="#444444" stroke="#444444"/>
<rect x="32.7139" y="18.5557" width="3.26392" height="1" rx="0.5" fill="#444444" stroke="#444444"/>
<rect x="38.2646" y="18.5557" width="3.26392" height="1" rx="0.5" fill="#444444" stroke="#444444"/>
</svg>
