<svg width="52" height="41" viewBox="0 0 52 41" fill="none" xmlns="http://www.w3.org/2000/svg">
<path d="M1.44934 6.38922C1.44934 5.83694 1.89706 5.38922 2.44934 5.38922H12.8791C13.4314 5.38922 13.8791 5.83694 13.8791 6.38922V15.4687H1.44934V6.38922Z" fill="white" stroke="#444444" stroke-width="2"/>
<path d="M13.8791 33.3215C13.8791 33.8738 13.4314 34.3215 12.8791 34.3215L2.44934 34.3215C1.89706 34.3215 1.44934 33.8738 1.44934 33.3215L1.44934 24.242L13.8791 24.242L13.8791 33.3215Z" fill="white" stroke="#444444" stroke-width="2"/>
<rect x="1" y="11.4289" width="22.1532" height="17.8418" rx="2" fill="white" stroke="#444444" stroke-width="2"/>
<path d="M14.6907 20.1197C14.5118 19.9418 14.2229 19.9418 14.0441 20.1197L12.9893 21.1744L11.0219 19.207C10.843 19.0292 10.5541 19.0292 10.3752 19.207L7.16501 22.4173C6.98771 22.5981 6.99054 22.8885 7.17141 23.0658C7.25553 23.1483 7.3682 23.1952 7.48604 23.1969H16.6581C16.9113 23.1983 17.1179 22.9942 17.1194 22.7409C17.1201 22.6177 17.0712 22.4994 16.9837 22.4127L14.6907 20.1197Z" fill="#444444"/>
<path d="M13.6877 18.8786C14.0676 18.8786 14.3756 18.5706 14.3756 18.1907C14.3756 17.8107 14.0676 17.5027 13.6877 17.5027C13.3077 17.5027 12.9998 17.8107 12.9998 18.1907C12.9998 18.5706 13.3077 18.8786 13.6877 18.8786Z" fill="#444444"/>
<rect x="28.595" y="1.3006" width="22.4051" height="17.3258" rx="3" fill="white" stroke="#444444" stroke-width="2"/>
<rect x="32.8019" y="7.46851" width="13.9913" height="1" rx="0.5" fill="#444444" stroke="#444444"/>
<rect x="32.8019" y="11.4585" width="8.1684" height="1" rx="0.5" fill="#444444" stroke="#444444"/>
<rect x="28.595" y="22.0728" width="22.4051" height="17.3258" rx="3" fill="white" stroke="#444444" stroke-width="2"/>
<rect x="32.8019" y="28.162" width="13.9913" height="1" rx="0.5" fill="#444444" stroke="#444444"/>
<rect x="32.8019" y="32.3093" width="8.1684" height="1" rx="0.5" fill="#444444" stroke="#444444"/>
</svg>
