<svg width="44" height="42" viewBox="0 0 44 42" fill="none" xmlns="http://www.w3.org/2000/svg">
<path d="M15.3 8.57027C15.3 12.5878 12.0335 15.8479 8 15.8479C3.96648 15.8479 0.7 12.5878 0.7 8.57027C0.7 4.55276 3.96648 1.29259 8 1.29259C12.0335 1.29259 15.3 4.55276 15.3 8.57027Z" fill="white" stroke="#444444" stroke-width="1.4"/>
<path d="M11.36 10.608L11.36 10.608C10.9103 10.1596 10.3858 9.8123 9.81448 9.57752C10.4235 9.06417 10.8116 8.29665 10.8116 7.43994C10.8116 5.89642 9.55265 4.64161 8.00583 4.64161C6.45901 4.64161 5.20008 5.89642 5.20008 7.43994C5.20008 8.29665 5.58815 9.06417 6.19719 9.57752C5.62587 9.81231 5.10136 10.1596 4.65167 10.608L4.65167 10.608C3.75585 11.5013 3.26211 12.6899 3.26211 13.9534V14.1034H3.41211H4.12988H4.27988V13.9534C4.27988 11.9054 5.95107 10.2383 8.00583 10.2383C10.0606 10.2383 11.7318 11.9054 11.7318 13.9534V14.1034H11.8818H12.5995H12.7495V13.9534C12.7495 12.6899 12.2558 11.5013 11.36 10.608ZM8.00583 9.22251C7.01968 9.22251 6.21785 8.42234 6.21785 7.43994C6.21785 6.45755 7.01968 5.65738 8.00583 5.65738C8.99198 5.65738 9.7938 6.45755 9.7938 7.43994C9.7938 8.42234 8.99198 9.22251 8.00583 9.22251Z" fill="#444444" stroke="#444444" stroke-width="0.3"/>
<rect x="19.5" y="6.09259" width="23.6137" height="1" rx="0.5" fill="#444444" stroke="#444444"/>
<rect x="19.5" y="10.0926" width="20.1173" height="1" rx="0.5" fill="#444444" stroke="#444444"/>
<path d="M15.3 33.5256C15.3 37.5431 12.0335 40.8033 8 40.8033C3.96648 40.8033 0.7 37.5431 0.7 33.5256C0.7 29.5081 3.96648 26.2479 8 26.2479C12.0335 26.2479 15.3 29.5081 15.3 33.5256Z" fill="white" stroke="#444444" stroke-width="1.4"/>
<path d="M11.36 35.5634L11.36 35.5634C10.9103 35.1149 10.3858 34.7677 9.81448 34.5329C10.4235 34.0195 10.8116 33.252 10.8116 32.3953C10.8116 30.8518 9.55265 29.597 8.00583 29.597C6.45901 29.597 5.20008 30.8518 5.20008 32.3953C5.20008 33.252 5.58815 34.0195 6.19719 34.5329C5.62587 34.7677 5.10136 35.1149 4.65167 35.5634L4.65167 35.5634C3.75585 36.4567 3.26211 37.6452 3.26211 38.9088V39.0588H3.41211H4.12988H4.27988V38.9088C4.27988 36.8608 5.95107 35.1936 8.00583 35.1936C10.0606 35.1936 11.7318 36.8608 11.7318 38.9088V39.0588H11.8818H12.5995H12.7495V38.9088C12.7495 37.6452 12.2558 36.4567 11.36 35.5634ZM8.00583 34.1779C7.01968 34.1779 6.21785 33.3777 6.21785 32.3953C6.21785 31.4129 7.01968 30.6127 8.00583 30.6127C8.99198 30.6127 9.7938 31.4129 9.7938 32.3953C9.7938 33.3777 8.99198 34.1779 8.00583 34.1779Z" fill="#444444" stroke="#444444" stroke-width="0.3"/>
<rect x="19.5" y="31.0479" width="23.6137" height="1" rx="0.5" fill="#444444" stroke="#444444"/>
<rect x="19.5" y="35.0479" width="20.1173" height="1" rx="0.5" fill="#444444" stroke="#444444"/>
</svg>
