<svg width="31" height="25" viewBox="0 0 31 41" fill="none" xmlns="http://www.w3.org/2000/svg">
<path d="M20.7408 40.2797C20.9494 40.4883 21.2228 40.5922 21.4962 40.5922C21.7696 40.5922 22.0429 40.4883 22.2516 40.2797L24.5421 37.9904C24.9595 37.5732 24.9595 36.897 24.5421 36.4798L22.2516 34.1905C21.8343 33.7737 21.1581 33.7737 20.7408 34.1905C20.3234 34.6076 20.3234 35.2839 20.7408 35.701L22.2754 37.2349L20.7408 38.7692C20.3234 39.1864 20.3234 39.8626 20.7408 40.2797Z" fill="#444444"/>
<path d="M11.1144 34.1905C10.697 33.7737 10.0209 33.7737 9.60311 34.1905L7.31302 36.4798C6.89566 36.897 6.89566 37.5732 7.31302 37.9904L9.60311 40.2797C9.81179 40.4883 10.0856 40.5926 10.359 40.5926C10.6323 40.5926 10.9057 40.4883 11.1144 40.2797C11.5313 39.8626 11.5313 39.1864 11.1144 38.7692L9.57932 37.2353L11.1144 35.701C11.5318 35.2839 11.5318 34.6076 11.1144 34.1905Z" fill="#444444"/>
<circle cx="15.5" cy="15.5" r="14.5" fill="white" stroke="#444444" stroke-width="2"/>
<path d="M20.3465 15.5594C20.0347 15.2496 19.5312 15.2496 19.2194 15.5594L17.3808 17.3971L13.9514 13.9694C13.6396 13.6596 13.1361 13.6596 12.8243 13.9694L7.22859 19.5623C6.91953 19.8774 6.92447 20.3833 7.23973 20.6922C7.38637 20.8359 7.58277 20.9177 7.78816 20.9206H23.7759C24.2173 20.9232 24.5773 20.5676 24.5799 20.1263C24.5812 19.9116 24.4959 19.7055 24.3434 19.5544L20.3465 15.5594Z" fill="#444444"/>
<path d="M18.5981 13.3971C19.2604 13.3971 19.7972 12.8605 19.7972 12.1986C19.7972 11.5367 19.2604 11.0001 18.5981 11.0001C17.9359 11.0001 17.399 11.5367 17.399 12.1986C17.399 12.8605 17.9359 13.3971 18.5981 13.3971Z" fill="#444444"/>
</svg>
