<svg width="51" height="40" viewBox="0 0 51 40" fill="none" xmlns="http://www.w3.org/2000/svg">
<rect x="1.3" y="1.3" width="12.4" height="12.4" rx="2.7" fill="white" stroke="#444444" stroke-width="1.4"/>
<rect x="19.3" y="1.3" width="12.4" height="12.4" rx="2.7" fill="white" stroke="#444444" stroke-width="1.4"/>
<rect x="37.3" y="1.3" width="12.4" height="12.4" rx="2.7" fill="white" stroke="#444444" stroke-width="1.4"/>
<path d="M6.66675 27.7778H9.33325C9.70142 27.7778 10 28.2336 10 28.796L10 38.9814C10 39.5438 9.70142 40 9.33325 40H6.66675C6.29858 40 6 39.5438 6 38.9814L6 28.796C6 28.2336 6.29858 27.7778 6.66675 27.7778Z" fill="#444444"/>
<path d="M18.6665 19.6296H21.3333C21.7014 19.6296 22 20.0858 22 20.6483L22 38.9814C22 39.5438 21.7014 40 21.3333 40H18.6665C18.2983 40 18 39.5438 18 38.9814L18 20.6483C18 20.0858 18.2983 19.6296 18.6665 19.6296Z" fill="#444444"/>
<path d="M30.6667 23.7037H33.3335C33.7017 23.7037 34 24.1599 34 24.7223V38.9814C34 39.5438 33.7017 40 33.3335 40H30.6667C30.2986 40 30 39.5438 30 38.9814L30 24.7223C30 24.1599 30.2986 23.7037 30.6667 23.7037Z" fill="#444444"/>
<path d="M42.6667 18H45.3333C45.7014 18 46 18.4479 46 19.0001V38.9999C46 39.5521 45.7014 40 45.3333 40H42.6667C42.2986 40 42 39.5521 42 38.9999V19.0001C42 18.4479 42.2986 18 42.6667 18Z" fill="#444444"/>
<path d="M5.91122 11H4.21094L6.41939 4.45455H8.52557L10.734 11H9.03374L7.49645 6.10369H7.44531L5.91122 11ZM5.6843 8.42401H9.23828V9.62571H5.6843V8.42401Z" fill="#444444"/>
<path d="M23.4954 11V4.45455H26.2248C26.7148 4.45455 27.125 4.52379 27.4553 4.66229C27.7876 4.80078 28.0369 4.99467 28.2031 5.24396C28.3714 5.49325 28.4556 5.78196 28.4556 6.11009C28.4556 6.35938 28.4034 6.58203 28.299 6.77805C28.1946 6.97195 28.0508 7.13281 27.8675 7.26065C27.6843 7.38849 27.4723 7.47798 27.2315 7.52912V7.59304C27.4957 7.60582 27.7397 7.6772 27.9634 7.80717C28.1893 7.93714 28.3704 8.11825 28.5067 8.3505C28.6431 8.58061 28.7113 8.85334 28.7113 9.16868C28.7113 9.52024 28.6218 9.83452 28.4428 10.1115C28.2638 10.3864 28.005 10.6037 27.6662 10.7635C27.3274 10.9212 26.9162 11 26.4325 11H23.4954ZM25.0774 9.72479H26.0554C26.3984 9.72479 26.6509 9.6598 26.8129 9.52983C26.9769 9.39986 27.0589 9.21875 27.0589 8.98651C27.0589 8.81818 27.0195 8.6733 26.9407 8.55185C26.8619 8.42827 26.75 8.33345 26.6051 8.2674C26.4602 8.19922 26.2866 8.16513 26.0842 8.16513H25.0774V9.72479ZM25.0774 7.1456H25.9531C26.1257 7.1456 26.2791 7.11683 26.4134 7.0593C26.5476 7.00178 26.652 6.91868 26.7266 6.81001C26.8033 6.70135 26.8416 6.57031 26.8416 6.4169C26.8416 6.19744 26.7638 6.02486 26.6083 5.89915C26.4528 5.77344 26.2429 5.71058 25.9787 5.71058H25.0774V7.1456Z" fill="#444444"/>
<path d="M46.4368 6.82599H44.8388C44.8175 6.66193 44.7738 6.51385 44.7077 6.38175C44.6417 6.24964 44.5543 6.13672 44.4457 6.04297C44.337 5.94922 44.2081 5.87784 44.0589 5.82884C43.9119 5.7777 43.7489 5.75213 43.57 5.75213C43.2525 5.75213 42.9787 5.8299 42.7486 5.98544C42.5206 6.14098 42.3448 6.36577 42.2212 6.6598C42.0998 6.95384 42.0391 7.30966 42.0391 7.72727C42.0391 8.16193 42.1009 8.52628 42.2244 8.82031C42.3501 9.11222 42.5259 9.33274 42.7518 9.48189C42.9798 9.62891 43.2493 9.70241 43.5604 9.70241C43.7351 9.70241 43.8938 9.68004 44.0366 9.6353C44.1815 9.59055 44.3082 9.52557 44.4169 9.44034C44.5277 9.35298 44.6183 9.24751 44.6886 9.12393C44.761 8.99822 44.8111 8.85653 44.8388 8.69886L46.4368 8.70845C46.4091 8.99822 46.3249 9.28374 46.1843 9.56499C46.0458 9.84624 45.8551 10.103 45.6122 10.3352C45.3693 10.5653 45.0732 10.7486 44.7237 10.8849C44.3764 11.0213 43.978 11.0895 43.5284 11.0895C42.9361 11.0895 42.4055 10.9595 41.9368 10.6996C41.4702 10.4375 41.1016 10.0561 40.831 9.5554C40.5604 9.05469 40.4251 8.44531 40.4251 7.72727C40.4251 7.0071 40.5625 6.39666 40.8374 5.89595C41.1122 5.39524 41.484 5.01491 41.9528 4.75497C42.4215 4.49503 42.9467 4.36506 43.5284 4.36506C43.9247 4.36506 44.2912 4.42045 44.6278 4.53125C44.9645 4.63991 45.2607 4.79972 45.5163 5.01065C45.772 5.21946 45.9798 5.47621 46.1396 5.78089C46.2994 6.08558 46.3984 6.43395 46.4368 6.82599Z" fill="#444444"/>
</svg>
