<svg width="52" height="42" viewBox="0 0 52 42" fill="none" xmlns="http://www.w3.org/2000/svg">
<rect x="8" y="1.68359" width="36" height="30.1514" rx="3" fill="white" stroke="#444444" stroke-width="2"/>
<path d="M47.8858 19.8257C48.0945 20.0358 48.3678 20.1404 48.6412 20.1404C48.9146 20.1404 49.188 20.0358 49.3966 19.8257L51.6871 17.5199C52.1045 17.0997 52.1045 16.4186 51.6871 15.9985L49.3966 13.6926C48.9793 13.2729 48.3031 13.2729 47.8858 13.6926C47.4684 14.1128 47.4684 14.7939 47.8858 15.214L49.4204 16.7589L47.8858 18.3043C47.4684 18.7245 47.4684 19.4055 47.8858 19.8257Z" fill="#444444"/>
<path d="M4.11438 13.6926C3.69702 13.2729 3.02089 13.2729 2.60311 13.6926L0.313024 15.9985C-0.104341 16.4186 -0.104341 17.0997 0.313024 17.5199L2.60311 19.8257C2.81179 20.0358 3.08558 20.1408 3.35895 20.1408C3.63233 20.1408 3.9057 20.0358 4.11438 19.8257C4.53133 19.4055 4.53133 18.7245 4.11438 18.3043L2.57932 16.7594L4.11438 15.214C4.53175 14.7939 4.53175 14.1128 4.11438 13.6926Z" fill="#444444"/>
<path d="M36.5712 16.4919C36.3157 16.2363 35.9033 16.2363 35.6478 16.4919L34.1416 18.0082L31.3323 15.18C31.0769 14.9244 30.6644 14.9244 30.409 15.18L25.825 19.7947C25.5718 20.0547 25.5758 20.4721 25.8341 20.727C25.9542 20.8455 26.1151 20.913 26.2834 20.9154H39.3805C39.7422 20.9175 40.037 20.6241 40.0392 20.26C40.0402 20.0829 39.9704 19.9128 39.8455 19.7881L36.5712 16.4919Z" fill="#444444"/>
<path d="M35.1439 14.5811C35.6864 14.5811 36.1262 14.1384 36.1262 13.5923C36.1262 13.0461 35.6864 12.6034 35.1439 12.6034C34.6014 12.6034 34.1616 13.0461 34.1616 13.5923C34.1616 14.1384 34.6014 14.5811 35.1439 14.5811Z" fill="#444444"/>
<rect x="12.4609" y="14.11" width="11.1745" height="1.0134" rx="0.506698" fill="#444444" stroke="#444444"/>
<rect x="12.4609" y="18.498" width="7.12158" height="1.0134" rx="0.506698" fill="#444444" stroke="#444444"/>
<ellipse cx="20" cy="40.1735" rx="1.5" ry="1.51005" fill="#444444"/>
<ellipse cx="26" cy="40.1735" rx="1.5" ry="1.51005" fill="#444444"/>
<ellipse cx="32" cy="40.1735" rx="1.5" ry="1.51005" fill="#444444"/>
</svg>
