<svg width="52" height="42" viewBox="0 0 52 42" fill="none" xmlns="http://www.w3.org/2000/svg">
<rect x="1" y="1.59259" width="49.9995" height="30.2581" rx="3" fill="white" stroke="#444444" stroke-width="2"/>
<rect x="11.665" y="24.0017" width="29.2722" height="1.54393" rx="0.771967" fill="#444444" stroke="#444444"/>
<path d="M31.6994 13.2816C31.3093 12.89 30.6794 12.89 30.2894 13.2816L27.9894 15.6047L23.6994 11.2717C23.3093 10.88 22.6794 10.88 22.2894 11.2717L15.2894 18.3419C14.9027 18.7403 14.9089 19.3797 15.3033 19.7702C15.4867 19.9519 15.7324 20.0553 15.9894 20.059H35.9894C36.5416 20.0622 36.9919 19.6127 36.9952 19.0548C36.9967 18.7834 36.8901 18.5229 36.6994 18.3318L31.6994 13.2816Z" fill="#444444"/>
<path d="M29.5205 10.3541C30.3489 10.3541 31.0205 9.67583 31.0205 8.83909C31.0205 8.00235 30.3489 7.32404 29.5205 7.32404C28.6921 7.32404 28.0205 8.00235 28.0205 8.83909C28.0205 9.67583 28.6921 10.3541 29.5205 10.3541Z" fill="#444444"/>
<path d="M30.8125 41.2764C31.0212 41.4872 31.2946 41.5921 31.568 41.5921C31.8413 41.5921 32.1147 41.4872 32.3234 41.2764L34.6139 38.9629C35.0313 38.5414 35.0313 37.858 34.6139 37.4365L32.3234 35.123C31.906 34.7018 31.2299 34.7018 30.8125 35.123C30.3952 35.5445 30.3952 36.2279 30.8125 36.6494L32.3472 38.1995L30.8125 39.75C30.3952 40.1715 30.3952 40.8548 30.8125 41.2764Z" fill="#444444"/>
<path d="M21.1867 35.123C20.7693 34.7018 20.0932 34.7018 19.6754 35.123L17.3853 37.4365C16.9679 37.858 16.9679 38.5414 17.3853 38.9629L19.6754 41.2764C19.8841 41.4872 20.1578 41.5926 20.4312 41.5926C20.7046 41.5926 20.978 41.4872 21.1867 41.2764C21.6036 40.8548 21.6036 40.1715 21.1867 39.75L19.6516 38.1999L21.1867 36.6494C21.604 36.2279 21.604 35.5445 21.1867 35.123Z" fill="#444444"/>
</svg>
