<svg width="56" height="42" viewBox="0 0 56 42" fill="none" xmlns="http://www.w3.org/2000/svg">
<rect x="1.05481" y="9.09509" width="15.9647" height="17.4137" rx="1" fill="white" stroke="#444444" stroke-width="2"/>
<rect x="4.94522" y="5.02551" width="25.7266" height="25.5529" rx="2" fill="white" stroke="#444444" stroke-width="2"/>
<rect x="10.6529" y="1.50122" width="38.2728" height="32.6016" rx="3" fill="white" stroke="#444444" stroke-width="2"/>
<path d="M51.8363 20.8482C52.0447 21.0569 52.3177 21.1608 52.5907 21.1608C52.8637 21.1608 53.1367 21.0569 53.3451 20.8482L55.6326 18.5577C56.0494 18.1404 56.0494 17.4638 55.6326 17.0464L53.3451 14.7559C52.9283 14.339 52.2531 14.339 51.8363 14.7559C51.4195 15.1733 51.4195 15.8499 51.8363 16.2672L53.3689 17.8019L51.8363 19.3369C51.4195 19.7543 51.4195 20.4309 51.8363 20.8482Z" fill="#444444"/>
<ellipse cx="23.7973" cy="40.0012" rx="1.498" ry="1.5" fill="#444444"/>
<ellipse cx="29.7895" cy="40.0012" rx="1.498" ry="1.5" fill="#444444"/>
<ellipse cx="35.7815" cy="40.0012" rx="1.498" ry="1.5" fill="#444444"/>
<path d="M32.4394 17.4878L29.1031 15.0626C28.9807 14.9738 28.8181 14.9605 28.6839 15.0295C28.5486 15.0979 28.4642 15.2369 28.4642 15.3871V20.236C28.4642 20.3879 28.5486 20.5264 28.6839 20.5948C28.7411 20.6237 28.8037 20.6381 28.8668 20.6381C28.9491 20.6381 29.0325 20.6119 29.1031 20.56L32.4394 18.1369C32.5447 18.0594 32.6062 17.9396 32.6062 17.8124C32.6068 17.683 32.5437 17.5638 32.4394 17.4878Z" fill="#444444"/>
<path d="M36.3304 17.8033V17.8033C36.3309 21.4166 33.4018 24.3441 29.7896 24.3441C26.1768 24.3441 23.2477 21.4166 23.2477 17.8033C23.2477 14.1916 26.1768 11.2604 29.7896 11.2604C33.4017 11.2604 36.3304 14.191 36.3304 17.8033ZM29.7896 9.61941C25.269 9.61941 21.6057 13.2827 21.6057 17.8033C21.6057 22.3223 25.269 25.9845 29.7896 25.9845C34.309 25.9845 37.9729 22.3218 37.9729 17.8033C37.9735 13.2827 34.3091 9.61941 29.7896 9.61941Z" fill="#444444" stroke="#444444" stroke-width="0.3"/>
</svg>
