<svg width="52" height="42" viewBox="0 0 52 42" fill="none" xmlns="http://www.w3.org/2000/svg">
<rect x="8" y="1.59259" width="36" height="29.9217" rx="3" fill="white" stroke="#444444" stroke-width="2"/>
<path d="M31.6999 16.1478C31.3098 15.7602 30.6799 15.7602 30.2899 16.1478L27.9899 18.4466L23.6999 14.1588C23.3098 13.7712 22.6799 13.7712 22.2899 14.1588L15.2899 21.1553C14.9032 21.5495 14.9094 22.1823 15.3038 22.5687C15.4872 22.7485 15.7329 22.8508 15.9899 22.8545H35.9899C36.5421 22.8576 36.9924 22.4128 36.9957 21.8608C36.9972 21.5922 36.8906 21.3344 36.6999 21.1453L31.6999 16.1478Z" fill="#444444"/>
<path d="M29.5205 13.2509C30.3489 13.2509 31.0205 12.5797 31.0205 11.7516C31.0205 10.9236 30.3489 10.2524 29.5205 10.2524C28.6921 10.2524 28.0205 10.9236 28.0205 11.7516C28.0205 12.5797 28.6921 13.2509 29.5205 13.2509Z" fill="#444444"/>
<ellipse cx="20" cy="40.0933" rx="1.5" ry="1.49926" fill="#444444"/>
<ellipse cx="26" cy="40.0933" rx="1.5" ry="1.49926" fill="#444444"/>
<ellipse cx="32" cy="40.0933" rx="1.5" ry="1.49926" fill="#444444"/>
<path d="M47.8853 19.5982C48.094 19.8067 48.3673 19.9106 48.6407 19.9106C48.9141 19.9106 49.1875 19.8067 49.3962 19.5982L51.6867 17.3088C52.104 16.8916 52.104 16.2154 51.6867 15.7983L49.3962 13.5089C48.9788 13.0922 48.3027 13.0922 47.8853 13.5089C47.4679 13.9261 47.4679 14.6023 47.8853 15.0194L49.4199 16.5533L47.8853 18.0876C47.4679 18.5048 47.4679 19.181 47.8853 19.5982Z" fill="#444444"/>
<path d="M4.11438 13.5804C3.69702 13.1637 3.02089 13.1637 2.60311 13.5804L0.313024 15.8698C-0.104341 16.287 -0.104341 16.9632 0.313024 17.3803L2.60311 19.6697C2.81179 19.8783 3.08558 19.9826 3.35895 19.9826C3.63233 19.9826 3.9057 19.8783 4.11438 19.6697C4.53133 19.2525 4.53133 18.5763 4.11438 18.1592L2.57932 16.6253L4.11438 15.091C4.53175 14.6738 4.53175 13.9976 4.11438 13.5804Z" fill="#444444"/>
</svg>
