<svg width="52" height="42" viewBox="0 0 52 42" fill="none" xmlns="http://www.w3.org/2000/svg">
<rect x="1" y="6.34906" width="31.7507" height="29.4869" rx="3" fill="white" stroke="#444444" stroke-width="2"/>
<rect x="19.249" y="6.34906" width="31.7507" height="29.4869" rx="3" fill="white" stroke="#444444" stroke-width="2"/>
<rect x="8" y="1.59253" width="36" height="39" rx="3" fill="white" stroke="#444444" stroke-width="2"/>
<path d="M31.6989 20.5906C31.3088 20.2029 30.6789 20.2029 30.2889 20.5906L27.9889 22.8906L23.6989 18.6006C23.3088 18.2129 22.6789 18.2129 22.2889 18.6006L15.2889 25.6006C14.9023 25.995 14.9084 26.6281 15.3028 27.0148C15.4863 27.1946 15.7319 27.297 15.9889 27.3006H35.9889C36.5411 27.3038 36.9914 26.8588 36.9947 26.3064C36.9963 26.0378 36.8896 25.7798 36.6989 25.5906L31.6989 20.5906Z" fill="#444444"/>
<path d="M29.5117 17.8843C30.3401 17.8843 31.0117 17.2128 31.0117 16.3843C31.0117 15.5559 30.3401 14.8843 29.5117 14.8843C28.6833 14.8843 28.0117 15.5559 28.0117 16.3843C28.0117 17.2128 28.6833 17.8843 29.5117 17.8843Z" fill="#444444"/>
</svg>
