<svg width="60" height="45" viewBox="0 0 60 45" fill="none" xmlns="http://www.w3.org/2000/svg">
<rect x="1.6207" y="5.5647" width="31.7507" height="22.5272" rx="3" fill="white" stroke="#444444" stroke-width="2"/>
<rect x="26.3714" y="5.5647" width="31.7507" height="22.5272" rx="3" fill="white" stroke="#444444" stroke-width="2"/>
<rect x="9.04544" y="1.85962" width="41.9477" height="29.9375" rx="3" fill="white" stroke="#444444" stroke-width="2"/>
<path d="M34.5234 43.9462C34.732 44.1549 35.0054 44.2589 35.2788 44.2589C35.5522 44.2589 35.8255 44.1549 36.0342 43.9462L38.3247 41.6557C38.7421 41.2384 38.7421 40.5618 38.3247 40.1445L36.0342 37.854C35.6168 37.437 34.9407 37.437 34.5234 37.854C34.106 38.2713 34.106 38.9479 34.5234 39.3652L36.058 40.8999L34.5234 42.435C34.106 42.8523 34.106 43.5289 34.5234 43.9462Z" fill="#444444"/>
<path d="M24.8973 37.854C24.4799 37.437 23.8038 37.437 23.386 37.854L21.096 40.1445C20.6786 40.5618 20.6786 41.2384 21.096 41.6557L23.386 43.9462C23.5947 44.1549 23.8685 44.2593 24.1419 44.2593C24.4153 44.2593 24.6886 44.1549 24.8973 43.9462C25.3143 43.5289 25.3143 42.8523 24.8973 42.435L23.3622 40.9003L24.8973 39.3652C25.3147 38.9479 25.3147 38.2713 24.8973 37.854Z" fill="#444444"/>
<path d="M34.6892 16.4227C34.2991 16.0349 33.6693 16.0349 33.2792 16.4227L30.9792 18.7227L26.6892 14.4327C26.2991 14.0449 25.6693 14.0449 25.2792 14.4327L18.2792 21.4327C17.8926 21.827 17.8988 22.4602 18.2931 22.8468C18.4766 23.0267 18.7223 23.129 18.9792 23.1327H38.9792C39.5315 23.1358 39.9818 22.6908 39.985 22.1385C39.9866 21.8698 39.88 21.6118 39.6892 21.4227L34.6892 16.4227Z" fill="#444444"/>
<path d="M32.5101 13.5242C33.3385 13.5242 34.0101 12.8526 34.0101 12.0242C34.0101 11.1957 33.3385 10.5242 32.5101 10.5242C31.6817 10.5242 31.0101 11.1957 31.0101 12.0242C31.0101 12.8526 31.6817 13.5242 32.5101 13.5242Z" fill="#444444"/>
</svg>
