<svg width="52" height="42" viewBox="0 0 52 42" fill="none" xmlns="http://www.w3.org/2000/svg">
<rect x="8" y="1.68359" width="36" height="30.1514" rx="3" fill="white" stroke="#444444" stroke-width="2"/>
<path d="M47.8858 19.8256C48.0945 20.0357 48.3678 20.1403 48.6412 20.1403C48.9146 20.1403 49.188 20.0357 49.3966 19.8256L51.6871 17.5197C52.1045 17.0996 52.1045 16.4185 51.6871 15.9983L49.3966 13.6925C48.9793 13.2728 48.3031 13.2728 47.8858 13.6925C47.4684 14.1127 47.4684 14.7937 47.8858 15.2139L49.4204 16.7588L47.8858 18.3042C47.4684 18.7243 47.4684 19.4054 47.8858 19.8256Z" fill="#444444"/>
<path d="M4.11439 13.6925C3.69702 13.2728 3.02089 13.2728 2.60311 13.6925L0.313024 15.9983C-0.104341 16.4185 -0.104341 17.0996 0.313024 17.5197L2.60311 19.8256C2.81179 20.0357 3.08558 20.1407 3.35895 20.1407C3.63233 20.1407 3.9057 20.0357 4.11439 19.8256C4.53133 19.4054 4.53133 18.7243 4.11439 18.3042L2.57932 16.7592L4.11439 15.2139C4.53175 14.7937 4.53175 14.1127 4.11439 13.6925Z" fill="#444444"/>
<path d="M36.5712 16.4916C36.3157 16.236 35.9033 16.236 35.6478 16.4916L34.1416 18.0079L31.3323 15.1798C31.0769 14.9241 30.6644 14.9241 30.409 15.1798L25.825 19.7945C25.5718 20.0544 25.5758 20.4718 25.8341 20.7267C25.9542 20.8453 26.1151 20.9128 26.2834 20.9152H39.3805C39.7422 20.9173 40.037 20.6239 40.0392 20.2598C40.0402 20.0826 39.9704 19.9126 39.8455 19.7879L36.5712 16.4916Z" fill="#444444"/>
<path d="M35.1439 14.581C35.6864 14.581 36.1262 14.1383 36.1262 13.5921C36.1262 13.046 35.6864 12.6033 35.1439 12.6033C34.6014 12.6033 34.1616 13.046 34.1616 13.5921C34.1616 14.1383 34.6014 14.581 35.1439 14.581Z" fill="#444444"/>
<rect x="12.4609" y="14.1099" width="11.1745" height="1.0134" rx="0.506698" fill="#444444" stroke="#444444"/>
<rect x="12.4609" y="18.4978" width="7.12158" height="1.0134" rx="0.506698" fill="#444444" stroke="#444444"/>
<ellipse cx="20" cy="40.1736" rx="1.5" ry="1.51005" fill="#444444"/>
<ellipse cx="26" cy="40.1736" rx="1.5" ry="1.51005" fill="#444444"/>
<ellipse cx="32" cy="40.1736" rx="1.5" ry="1.51005" fill="#444444"/>
</svg>
