<svg width="52" height="42" viewBox="0 0 52 42" fill="none" xmlns="http://www.w3.org/2000/svg">
<rect x="8" y="1.54982" width="36" height="29.9375" rx="3" fill="white" stroke="#444444" stroke-width="2"/>
<circle cx="20" cy="40.0498" r="1.5" fill="#444444"/>
<circle cx="26" cy="40.0498" r="1.5" fill="#444444"/>
<circle cx="32" cy="40.0498" r="1.5" fill="#444444"/>
<path d="M47.952 19.5646C48.1573 19.7733 48.4263 19.8772 48.6952 19.8772C48.9642 19.8772 49.2331 19.7733 49.4384 19.5646L51.6919 17.2741C52.1025 16.8567 52.1025 16.1802 51.6919 15.7628L49.4384 13.4723C49.0278 13.0554 48.3626 13.0554 47.952 13.4723C47.5414 13.8897 47.5414 14.5662 47.952 14.9836L49.4618 16.5182L47.952 18.0533C47.5414 18.4707 47.5414 19.1472 47.952 19.5646Z" fill="#444444"/>
<path d="M4.04786 13.4723C3.63724 13.0554 2.97204 13.0554 2.56101 13.4723L0.307962 15.7628C-0.102654 16.1802 -0.102654 16.8567 0.307962 17.2741L2.56101 19.5646C2.76632 19.7733 3.03569 19.8776 3.30464 19.8776C3.57359 19.8776 3.84255 19.7733 4.04786 19.5646C4.45806 19.1472 4.45806 18.4707 4.04786 18.0533L2.53761 16.5187L4.04786 14.9836C4.45847 14.5662 4.45847 13.8897 4.04786 13.4723Z" fill="#444444"/>
<rect x="13.4883" y="12.5729" width="25.0239" height="1.51866" rx="0.759328" fill="#444444" stroke="#444444"/>
<rect x="21.2598" y="19.0312" width="9.48068" height="1.51866" rx="0.759328" fill="#444444" stroke="#444444"/>
</svg>
