<svg width="52" height="42" viewBox="0 0 52 42" fill="none" xmlns="http://www.w3.org/2000/svg">
<rect x="8" y="1.59259" width="36" height="32" rx="3" fill="white" stroke="#444444" stroke-width="2"/>
<ellipse cx="20.2727" cy="40.1566" rx="1.43187" ry="1.43604" fill="#444444"/>
<ellipse cx="25.9997" cy="40.1566" rx="1.43187" ry="1.43604" fill="#444444"/>
<ellipse cx="31.7273" cy="40.1566" rx="1.43187" ry="1.43604" fill="#444444"/>
<path d="M48.0722 20.4696C48.2714 20.6694 48.5324 20.7689 48.7934 20.7689C49.0543 20.7689 49.3153 20.6694 49.5145 20.4696L51.701 18.2768C52.0994 17.8772 52.0994 17.2295 51.701 16.83L49.5145 14.6371C49.1161 14.238 48.4707 14.238 48.0722 14.6371C47.6738 15.0367 47.6738 15.6844 48.0722 16.084L49.5372 17.5532L48.0722 19.0228C47.6738 19.4224 47.6738 20.0701 48.0722 20.4696Z" fill="#444444"/>
<path d="M3.92751 14.7153C3.5291 14.3161 2.88368 14.3161 2.48488 14.7153L0.298807 16.9081C-0.0996022 17.3077 -0.0996022 17.9554 0.298807 18.3549L2.48488 20.5478C2.68408 20.7475 2.94544 20.8474 3.20639 20.8474C3.46735 20.8474 3.72831 20.7475 3.92751 20.5478C4.32552 20.1482 4.32552 19.5005 3.92751 19.1009L2.46217 17.6317L3.92751 16.1621C4.32592 15.7625 4.32592 15.1148 3.92751 14.7153Z" fill="#444444"/>
<rect x="13.9528" y="12.5864" width="24.0949" height="0.957358" rx="0.478679" fill="#444444" stroke="#444444" stroke-width="0.957358"/>
<rect x="19.2881" y="18.7906" width="13.4243" height="3.78679" rx="1.8934" fill="#444444" stroke="#444444"/>
</svg>
