<svg width="52" height="42" viewBox="0 0 52 42" fill="none" xmlns="http://www.w3.org/2000/svg">
<rect x="8" y="1.59253" width="36" height="29.9217" rx="3" fill="white" stroke="#444444" stroke-width="2"/>
<path d="M30.8374 13.4995C30.488 13.1522 29.9236 13.1522 29.5741 13.4995L27.5133 15.5593L23.6695 11.7173C23.32 11.3701 22.7556 11.3701 22.4061 11.7173L16.1341 17.9862C15.7877 18.3394 15.7933 18.9064 16.1466 19.2526C16.311 19.4137 16.5311 19.5054 16.7613 19.5086H34.6813C35.1761 19.5115 35.5796 19.1129 35.5825 18.6183C35.5839 18.3777 35.4883 18.1467 35.3174 17.9773L30.8374 13.4995Z" fill="#444444"/>
<path d="M28.885 10.9038C29.6273 10.9038 30.229 10.3024 30.229 9.56049C30.229 8.81859 29.6273 8.21716 28.885 8.21716C28.1427 8.21716 27.541 8.81859 27.541 9.56049C27.541 10.3024 28.1427 10.9038 28.885 10.9038Z" fill="#444444"/>
<rect x="12.9385" y="23.0613" width="26.1238" height="1.25559" rx="0.627793" fill="#444444" stroke="#444444"/>
<ellipse cx="20" cy="40.0933" rx="1.5" ry="1.49925" fill="#444444"/>
<ellipse cx="26" cy="40.0933" rx="1.5" ry="1.49925" fill="#444444"/>
<ellipse cx="32" cy="40.0933" rx="1.5" ry="1.49925" fill="#444444"/>
<path d="M47.8853 19.6696C48.094 19.8782 48.3673 19.9821 48.6407 19.9821C48.9141 19.9821 49.1875 19.8782 49.3962 19.6696L51.6867 17.3803C52.104 16.9631 52.104 16.2869 51.6867 15.8697L49.3962 13.5804C48.9788 13.1636 48.3027 13.1636 47.8853 13.5804C47.4679 13.9975 47.4679 14.6737 47.8853 15.0909L49.4199 16.6248L47.8853 18.1591C47.4679 18.5763 47.4679 19.2525 47.8853 19.6696Z" fill="#444444"/>
<path d="M4.11438 13.5086C3.69702 13.0919 3.02089 13.0919 2.60311 13.5086L0.313024 15.798C-0.104341 16.2151 -0.104341 16.8913 0.313024 17.3085L2.60311 19.5979C2.81179 19.8064 3.08558 19.9107 3.35895 19.9107C3.63233 19.9107 3.9057 19.8064 4.11438 19.5979C4.53133 19.1807 4.53133 18.5045 4.11438 18.0873L2.57932 16.5534L4.11438 15.0191C4.53175 14.602 4.53175 13.9258 4.11438 13.5086Z" fill="#444444"/>
</svg>
