<svg width="52" height="42" viewBox="0 0 52 42" fill="none" xmlns="http://www.w3.org/2000/svg">
<path d="M12.3016 2.60364C12.3016 2.05135 12.7494 1.60364 13.3016 1.60364H39.5528C40.1051 1.60364 40.5528 2.05135 40.5528 2.60364V12.0089H12.3016V2.60364Z" fill="white" stroke="#444444" stroke-width="2"/>
<path d="M40.5526 39.6129C40.5526 40.1652 40.1049 40.6129 39.5526 40.6129L13.3015 40.6129C12.7492 40.6129 12.3015 40.1652 12.3015 39.6129L12.3015 30.2077L40.5526 30.2077L40.5526 39.6129Z" fill="white" stroke="#444444" stroke-width="2"/>
<rect x="0.999969" y="11.7395" width="39.5528" height="18.7456" rx="2" fill="white" stroke="#444444" stroke-width="2"/>
<path d="M12.7716 21.3341C12.6161 21.1562 12.3649 21.1562 12.2094 21.3341L11.2924 22.3889L9.58202 20.4215C9.42651 20.2436 9.17538 20.2436 9.01986 20.4215L6.229 23.6317C6.07485 23.8125 6.07732 24.1029 6.23456 24.2802C6.30769 24.3627 6.40565 24.4096 6.50809 24.4113H14.482C14.7022 24.4128 14.8817 24.2086 14.883 23.9554C14.8836 23.8321 14.8411 23.7138 14.7651 23.6271L12.7716 21.3341Z" fill="#444444"/>
<path d="M11.8996 20.093C12.2298 20.093 12.4976 19.785 12.4976 19.4051C12.4976 19.0251 12.2298 18.7172 11.8996 18.7172C11.5693 18.7172 11.3015 19.0251 11.3015 19.4051C11.3015 19.785 11.5693 20.093 11.8996 20.093Z" fill="#444444"/>
<path d="M51.6872 17.1233C51.8957 16.9146 51.9996 16.6412 51.9996 16.3678C51.9996 16.0945 51.8957 15.8211 51.6872 15.6124L49.3978 13.3219C48.9806 12.9045 48.3044 12.9045 47.8873 13.3219L45.5979 15.6124C45.1812 16.0298 45.1812 16.7059 45.5979 17.1233C46.0151 17.5406 46.6913 17.5406 47.1084 17.1233L48.6423 15.5886L50.1766 17.1233C50.5938 17.5406 51.27 17.5406 51.6872 17.1233Z" fill="#444444"/>
<path d="M45.5979 26.7496C45.1812 27.167 45.1812 27.8431 45.5979 28.2609L47.8873 30.551C48.3044 30.9684 48.9806 30.9684 49.3978 30.551L51.6872 28.2609C51.8957 28.0522 52 27.7784 52 27.5051C52 27.2317 51.8957 26.9583 51.6872 26.7496C51.27 26.3327 50.5938 26.3327 50.1766 26.7496L48.6427 28.2847L47.1084 26.7496C46.6913 26.3323 46.0151 26.3323 45.5979 26.7496Z" fill="#444444"/>
</svg>
