<svg width="58" height="42" viewBox="0 0 58 42" fill="none" xmlns="http://www.w3.org/2000/svg">
<rect x="8" y="1.79907" width="42.0001" height="29.9375" rx="3" fill="white" stroke="#444444" stroke-width="2"/>
<rect x="15.1558" y="7.29297" width="27.6886" height="1" rx="0.5" fill="#444444" stroke="#444444"/>
<rect x="15.1558" y="12.293" width="23.6135" height="1" rx="0.5" fill="#444444" stroke="#444444"/>
<rect x="27.7208" y="20.0541" width="11.1984" height="0.7" rx="0.35" fill="#444444" stroke="#444444" stroke-width="0.7"/>
<rect x="27.7208" y="23.3888" width="6.07849" height="0.7" rx="0.35" fill="#444444" stroke="#444444" stroke-width="0.7"/>
<path d="M23.713 22.0715C23.713 24.3979 21.8214 26.2867 19.4844 26.2867C17.1474 26.2867 15.2558 24.3979 15.2558 22.0715C15.2558 19.7451 17.1474 17.8563 19.4844 17.8563C21.8214 17.8563 23.713 19.7451 23.713 22.0715Z" fill="white" stroke="#444444" stroke-width="1.2"/>
<path d="M21.5543 23.2593L21.5543 23.2593C21.3002 23.006 21.0072 22.8049 20.6887 22.6617C21.028 22.343 21.2407 21.8906 21.2407 21.3892C21.2407 20.4246 20.4541 19.6408 19.4878 19.6408C18.5214 19.6408 17.7348 20.4246 17.7348 21.3892C17.7348 21.8906 17.9475 22.343 18.2868 22.6617C17.9683 22.8049 17.6753 23.006 17.4213 23.2593L17.4213 23.2593C16.8694 23.8097 16.5651 24.5422 16.5651 25.3206V25.4706H16.7151H17.1483H17.2983V25.3206C17.2983 24.1175 18.2802 23.1377 19.4878 23.1377C20.6953 23.1377 21.6772 24.1175 21.6772 25.3206V25.4706H21.8272H22.2604H22.4104V25.3206C22.4104 24.5422 22.1061 23.8097 21.5543 23.2593ZM19.4878 22.4057C18.9252 22.4057 18.468 21.9492 18.468 21.3892C18.468 20.8293 18.9252 20.3728 19.4878 20.3728C20.0503 20.3728 20.5075 20.8293 20.5075 21.3892C20.5075 21.9492 20.0503 22.4057 19.4878 22.4057Z" fill="#444444" stroke="#444444" stroke-width="0.3"/>
<ellipse cx="22.9832" cy="40.2991" rx="1.5042" ry="1.5" fill="#444444"/>
<ellipse cx="29" cy="40.2991" rx="1.5042" ry="1.5" fill="#444444"/>
<ellipse cx="35.0168" cy="40.2991" rx="1.5042" ry="1.5" fill="#444444"/>
<path d="M53.8741 19.8856C54.0834 20.0943 54.3575 20.1982 54.6317 20.1982C54.9058 20.1982 55.1799 20.0943 55.3892 19.8856L57.6861 17.5951C58.1046 17.1777 58.1046 16.5012 57.6861 16.0838L55.3892 13.7933C54.9707 13.3764 54.2926 13.3764 53.8741 13.7933C53.4556 14.2107 53.4556 14.8872 53.8741 15.3046L55.4131 16.8392L53.8741 18.3743C53.4556 18.7917 53.4556 19.4682 53.8741 19.8856Z" fill="#444444"/>
<path d="M4.1259 13.7933C3.70736 13.3764 3.02934 13.3764 2.61039 13.7933L0.3139 16.0838C-0.104633 16.5012 -0.104633 17.1777 0.3139 17.5951L2.61039 19.8856C2.81966 20.0943 3.09421 20.1986 3.36835 20.1986C3.64249 20.1986 3.91663 20.0943 4.1259 19.8856C4.54401 19.4682 4.54401 18.7917 4.1259 18.3743L2.58653 16.8396L4.1259 15.3046C4.54443 14.8872 4.54443 14.2107 4.1259 13.7933Z" fill="#444444"/>
</svg>
