<svg width="53" height="42" viewBox="0 0 53 42" fill="none" xmlns="http://www.w3.org/2000/svg">
<rect x="8.51904" y="1.92249" width="36" height="29.9375" rx="3" fill="white" stroke="#444444" stroke-width="2"/>
<ellipse cx="20.5022" cy="40.4225" rx="1.5042" ry="1.5" fill="#444444"/>
<ellipse cx="26.5188" cy="40.4225" rx="1.5042" ry="1.5" fill="#444444"/>
<ellipse cx="32.5359" cy="40.4225" rx="1.5042" ry="1.5" fill="#444444"/>
<path d="M48.393 20.009C48.6023 20.2177 48.8764 20.3216 49.1505 20.3216C49.4247 20.3216 49.6988 20.2177 49.9081 20.009L52.205 17.7185C52.6235 17.3011 52.6235 16.6246 52.205 16.2072L49.9081 13.9167C49.4896 13.4998 48.8115 13.4998 48.393 13.9167C47.9745 14.3341 47.9745 15.0106 48.393 15.428L49.9319 16.9626L48.393 18.4977C47.9745 18.9151 47.9745 19.5916 48.393 20.009Z" fill="#444444"/>
<path d="M4.64494 13.9167C4.22641 13.4998 3.54838 13.4998 3.12943 13.9167L0.832943 16.2072C0.41441 16.6246 0.41441 17.3011 0.832943 17.7185L3.12943 20.009C3.3387 20.2177 3.61326 20.322 3.8874 20.322C4.16154 20.322 4.43567 20.2177 4.64494 20.009C5.06306 19.5916 5.06306 18.9151 4.64494 18.4977L3.10558 16.9631L4.64494 15.428C5.06347 15.0106 5.06347 14.3341 4.64494 13.9167Z" fill="#444444"/>
<rect x="14.7119" y="22.2063" width="23.6137" height="1" rx="0.5" fill="#444444" stroke="#444444"/>
<rect x="16.46" y="26.2063" width="20.1173" height="1" rx="0.5" fill="#444444" stroke="#444444"/>
<path d="M31.3373 10.8912C31.3373 13.5426 29.1814 15.6949 26.5185 15.6949C23.8555 15.6949 21.6996 13.5426 21.6996 10.8912C21.6996 8.23971 23.8555 6.08743 26.5185 6.08743C29.1814 6.08743 31.3373 8.23971 31.3373 10.8912Z" fill="white" stroke="#444444" stroke-width="1.2"/>
<path d="M28.8284 12.2372L28.8284 12.2372C28.5381 11.9477 28.2023 11.7195 27.8371 11.559C28.2262 11.2037 28.4711 10.6928 28.4711 10.1255C28.4711 9.05316 27.5966 8.18167 26.5222 8.18167C25.4479 8.18167 24.5733 9.05316 24.5733 10.1255C24.5733 10.6928 24.8183 11.2037 25.2073 11.559C24.8421 11.7195 24.5064 11.9477 24.2161 12.2372L24.2161 12.2372C23.6002 12.8513 23.2606 13.6687 23.2606 14.5375V14.6875H23.4106H23.8968H24.0468V14.5375C24.0468 13.1771 25.157 12.0694 26.5222 12.0694C27.8874 12.0694 28.9976 13.1771 28.9976 14.5375V14.6875H29.1476H29.6338H29.7838V14.5375C29.7838 13.6687 29.4442 12.8513 28.8284 12.2372ZM26.5222 11.2846C25.8809 11.2846 25.3595 10.7641 25.3595 10.1255C25.3595 9.48696 25.8809 8.96649 26.5222 8.96649C27.1636 8.96649 27.6849 9.48696 27.6849 10.1255C27.6849 10.7641 27.1636 11.2846 26.5222 11.2846Z" fill="#444444" stroke="#444444" stroke-width="0.3"/>
<rect x="21.6679" y="17.701" width="9.6476" height="0.7" rx="0.35" fill="#444444" stroke="#444444" stroke-width="0.7"/>
</svg>
