<svg width="52" height="42" viewBox="0 0 52 42" fill="none" xmlns="http://www.w3.org/2000/svg">
<rect x="0.999939" y="4.67999" width="31.7507" height="23.144" rx="3" fill="white" stroke="#444444" stroke-width="2"/>
<rect x="19.249" y="4.67999" width="31.7507" height="23.144" rx="3" fill="white" stroke="#444444" stroke-width="2"/>
<rect x="7.99976" y="1.20001" width="36" height="30.104" rx="3" fill="white" stroke="#444444" stroke-width="2"/>
<path d="M28.6501 15.9379L25.3138 13.5126C25.1914 13.4239 25.0288 13.4105 24.8946 13.4795C24.7593 13.5479 24.6749 13.6869 24.6749 13.8372V18.686C24.6749 18.8379 24.7593 18.9764 24.8946 19.0448C24.9518 19.0737 25.0144 19.0881 25.0775 19.0881C25.1598 19.0881 25.2432 19.0619 25.3138 19.0101L28.6501 16.5869C28.7554 16.5094 28.8169 16.3897 28.8169 16.2624C28.8175 16.133 28.7544 16.0138 28.6501 15.9379Z" fill="#444444"/>
<path d="M32.5411 16.2533V16.2534C32.5416 19.8666 29.6125 22.7942 26.0003 22.7942C22.3875 22.7942 19.4584 19.8666 19.4584 16.2533C19.4584 12.6416 22.3875 9.7104 26.0003 9.7104C29.6124 9.7104 32.5411 12.6411 32.5411 16.2533ZM26.0003 8.06945C21.4797 8.06945 17.8164 11.7328 17.8164 16.2533C17.8164 20.7724 21.4797 24.4346 26.0003 24.4346C30.5197 24.4346 34.1836 20.7718 34.1836 16.2533C34.1842 11.7328 30.5198 8.06945 26.0003 8.06945Z" fill="#444444" stroke="#444444" stroke-width="0.3"/>
<path d="M30.813 40.8872C31.0216 41.0957 31.295 41.1996 31.5684 41.1996C31.8418 41.1996 32.1151 41.0957 32.3238 40.8872L34.6143 38.5978C35.0317 38.1806 35.0317 37.5044 34.6143 37.0873L32.3238 34.7979C31.9065 34.3812 31.2303 34.3812 30.813 34.7979C30.3956 35.2151 30.3956 35.8913 30.813 36.3084L32.3476 37.8423L30.813 39.3766C30.3956 39.7938 30.3956 40.47 30.813 40.8872Z" fill="#444444"/>
<path d="M21.1866 34.7979C20.7692 34.3812 20.0931 34.3812 19.6753 34.7979L17.3852 37.0873C16.9679 37.5044 16.9679 38.1806 17.3852 38.5978L19.6753 40.8872C19.884 41.0957 20.1578 41.2 20.4312 41.2C20.7045 41.2 20.9779 41.0957 21.1866 40.8872C21.6035 40.47 21.6035 39.7938 21.1866 39.3766L19.6515 37.8427L21.1866 36.3084C21.604 35.8913 21.604 35.2151 21.1866 34.7979Z" fill="#444444"/>
</svg>
