<svg width="53" height="42" viewBox="0 0 53 42" fill="none" xmlns="http://www.w3.org/2000/svg">
<rect x="1.51953" y="1.92261" width="50" height="28.9262" rx="3" fill="white" stroke="#444444" stroke-width="2"/>
<rect x="11.7669" y="21.5326" width="29.5054" height="0.968334" rx="0.484167" fill="#444444" stroke="#444444" stroke-width="0.968334"/>
<rect x="13.9314" y="25.406" width="25.1767" height="0.968334" rx="0.484167" fill="#444444" stroke="#444444" stroke-width="0.968334"/>
<circle cx="26.5197" cy="10.5756" r="4.63262" fill="white" stroke="#444444" stroke-width="1.2"/>
<path d="M28.7544 11.8758L28.7544 11.8758C28.4754 11.5968 28.1529 11.3764 27.8022 11.2209C28.1759 10.8762 28.4108 10.3823 28.4108 9.83423C28.4108 8.79357 27.5643 7.94717 26.5237 7.94717C25.483 7.94717 24.6366 8.79357 24.6366 9.83423C24.6366 10.3823 24.8715 10.8762 25.2452 11.2209C24.8945 11.3764 24.572 11.5968 24.293 11.8758L24.293 11.8758C23.6974 12.4714 23.369 13.2641 23.369 14.1065V14.2565H23.519H23.9885H24.1385V14.1065C24.1385 12.7914 25.2086 11.7213 26.5237 11.7213C27.8387 11.7213 28.9089 12.7914 28.9089 14.1065V14.2565H29.0589H29.5283H29.6783V14.1065C29.6783 13.2641 29.35 12.4714 28.7544 11.8758ZM26.5237 10.9518C25.9076 10.9518 25.4061 10.4503 25.4061 9.83423C25.4061 9.21812 25.9076 8.71664 26.5237 8.71664C27.1398 8.71664 27.6413 9.21812 27.6413 9.83423C27.6413 10.4503 27.1398 10.9518 26.5237 10.9518Z" fill="#444444" stroke="#444444" stroke-width="0.3"/>
<path d="M19.9253 38.3319C19.9253 40.094 18.4968 41.5225 16.7347 41.5225C14.9725 41.5225 13.544 40.094 13.544 38.3319C13.544 36.5697 14.9725 35.1412 16.7347 35.1412C18.4968 35.1412 19.9253 36.5697 19.9253 38.3319Z" fill="white" stroke="#444444" stroke-width="0.8"/>
<path d="M18.2657 39.2261L18.2657 39.2261C18.0734 39.0338 17.8511 38.8822 17.6091 38.7755C17.8669 38.5393 18.0291 38.1999 18.0291 37.8231C18.0291 37.1106 17.4496 36.5311 16.7371 36.5311C16.0246 36.5311 15.4451 37.1106 15.4451 37.8231C15.4451 38.1999 15.6073 38.5393 15.8651 38.7755C15.6231 38.8822 15.4008 39.0338 15.2085 39.2261L15.2085 39.2261C14.8003 39.6343 14.5753 40.1775 14.5753 40.7547V40.8547H14.6753H14.9974H15.0974V40.7547C15.0974 39.8507 15.8331 39.1151 16.7371 39.1151C17.6411 39.1151 18.3767 39.8507 18.3767 40.7547V40.8547H18.4767H18.7989H18.8989V40.7547C18.8989 40.1775 18.6739 39.6343 18.2657 39.2261ZM16.7371 38.5929C16.3127 38.5929 15.9673 38.2475 15.9673 37.8231C15.9673 37.3987 16.3127 37.0533 16.7371 37.0533C17.1615 37.0533 17.5069 37.3987 17.5069 37.8231C17.5069 38.2475 17.1615 38.5929 16.7371 38.5929Z" fill="#444444" stroke="#444444" stroke-width="0.2"/>
<path d="M29.9053 38.3319C29.9053 40.094 28.4768 41.5225 26.7147 41.5225C24.9525 41.5225 23.524 40.094 23.524 38.3319C23.524 36.5697 24.9525 35.1412 26.7147 35.1412C28.4768 35.1412 29.9053 36.5697 29.9053 38.3319Z" fill="white" stroke="#444444" stroke-width="0.8"/>
<path d="M28.2462 39.2261L28.2462 39.2261C28.0539 39.0338 27.8315 38.8822 27.5896 38.7755C27.8474 38.5393 28.0095 38.1999 28.0095 37.8231C28.0095 37.1106 27.4301 36.5311 26.7176 36.5311C26.0051 36.5311 25.4256 37.1106 25.4256 37.8231C25.4256 38.1999 25.5878 38.5393 25.8455 38.7755C25.6036 38.8822 25.3812 39.0338 25.1889 39.2261L25.1889 39.2261C24.7808 39.6343 24.5558 40.1775 24.5558 40.7547V40.8547H24.6558H24.9779H25.0779V40.7547C25.0779 39.8507 25.8135 39.1151 26.7176 39.1151C27.6216 39.1151 28.3572 39.8507 28.3572 40.7547V40.8547H28.4572H28.7794H28.8794V40.7547C28.8794 40.1775 28.6544 39.6343 28.2462 39.2261ZM26.7176 38.5929C26.2932 38.5929 25.9477 38.2475 25.9477 37.8231C25.9477 37.3987 26.2932 37.0533 26.7176 37.0533C27.142 37.0533 27.4874 37.3987 27.4874 37.8231C27.4874 38.2475 27.142 38.5929 26.7176 38.5929Z" fill="#444444" stroke="#444444" stroke-width="0.2"/>
<path d="M39.8853 38.3319C39.8853 40.094 38.4568 41.5225 36.6947 41.5225C34.9325 41.5225 33.504 40.094 33.504 38.3319C33.504 36.5697 34.9325 35.1412 36.6947 35.1412C38.4568 35.1412 39.8853 36.5697 39.8853 38.3319Z" fill="white" stroke="#444444" stroke-width="0.8"/>
<path d="M38.2257 39.2261L38.2257 39.2261C38.0334 39.0338 37.811 38.8822 37.5691 38.7755C37.8269 38.5393 37.989 38.1999 37.989 37.8231C37.989 37.1106 37.4095 36.5311 36.6971 36.5311C35.9846 36.5311 35.4051 37.1106 35.4051 37.8231C35.4051 38.1999 35.5673 38.5393 35.825 38.7755C35.5831 38.8822 35.3607 39.0338 35.1684 39.2261L35.1684 39.2261C34.7603 39.6343 34.5353 40.1775 34.5353 40.7547V40.8547H34.6353H34.9574H35.0574V40.7547C35.0574 39.8507 35.793 39.1151 36.6971 39.1151C37.6011 39.1151 38.3367 39.8507 38.3367 40.7547V40.8547H38.4367H38.7589H38.8589V40.7547C38.8589 40.1775 38.6339 39.6343 38.2257 39.2261ZM36.6971 38.5929C36.2727 38.5929 35.9272 38.2475 35.9272 37.8231C35.9272 37.3987 36.2727 37.0533 36.6971 37.0533C37.1215 37.0533 37.4669 37.3987 37.4669 37.8231C37.4669 38.2475 37.1215 38.5929 36.6971 38.5929Z" fill="#444444" stroke="#444444" stroke-width="0.2"/>
<rect x="21.837" y="17.1697" width="9.31414" height="0.677834" rx="0.338917" fill="#444444" stroke="#444444" stroke-width="0.677834"/>
</svg>
