<svg width="53" height="42" viewBox="0 0 53 42" fill="none" xmlns="http://www.w3.org/2000/svg">
<rect x="1.01953" y="5.93665" width="25.7266" height="24.5731" rx="3" fill="white" stroke="#444444" stroke-width="2"/>
<rect x="6.72705" y="1.92249" width="38.2728" height="32.6016" rx="3" fill="white" stroke="#444444" stroke-width="2"/>
<path d="M47.9108 19.9373C48.1192 20.146 48.3922 20.2499 48.6652 20.2499C48.9382 20.2499 49.2112 20.146 49.4196 19.9373L51.707 17.6468C52.1238 17.2295 52.1238 16.5529 51.707 16.1356L49.4196 13.8451C49.0028 13.4281 48.3276 13.4281 47.9108 13.8451C47.4939 14.2624 47.4939 14.939 47.9108 15.3563L49.4434 16.891L47.9108 18.4261C47.4939 18.8434 47.4939 19.52 47.9108 19.9373Z" fill="#444444"/>
<rect x="13.3984" y="23.8328" width="24.9307" height="1" rx="0.5" fill="#444444" stroke="#444444"/>
<rect x="15.2402" y="27.8328" width="21.2473" height="1" rx="0.5" fill="#444444" stroke="#444444"/>
<path d="M30.6608 12.5175C30.6608 15.1713 28.5126 17.3212 25.8643 17.3212C23.216 17.3212 21.0678 15.1713 21.0678 12.5175C21.0678 9.86372 23.216 7.71377 25.8643 7.71377C28.5126 7.71377 30.6608 9.86372 30.6608 12.5175Z" fill="white" stroke="#444444" stroke-width="1.2"/>
<path d="M28.1651 13.8637L28.1651 13.8637C27.8759 13.5742 27.5415 13.3459 27.1776 13.1854C27.5653 12.83 27.8093 12.3191 27.8093 11.7519C27.8093 10.6801 26.9386 9.80801 25.8678 9.80801C24.797 9.80801 23.9263 10.6801 23.9263 11.7519C23.9263 12.3191 24.1703 12.83 24.558 13.1854C24.1941 13.3459 23.8597 13.5742 23.5705 13.8637L23.5705 13.8637C22.9571 14.4779 22.619 15.2953 22.619 16.1638V16.3138H22.769H23.2532H23.4032V16.1638C23.4032 14.8029 24.5091 13.6957 25.8678 13.6957C27.2265 13.6957 28.3324 14.8029 28.3324 16.1638V16.3138H28.4824H28.9666H29.1166V16.1638C29.1166 15.2953 28.7785 14.4779 28.1651 13.8637ZM25.8678 12.9109C25.23 12.9109 24.7105 12.391 24.7105 11.7519C24.7105 11.1127 25.23 10.5928 25.8678 10.5928C26.5056 10.5928 27.0251 11.1127 27.0251 11.7519C27.0251 12.391 26.5056 12.9109 25.8678 12.9109Z" fill="#444444" stroke="#444444" stroke-width="0.3"/>
<rect x="21.0351" y="19.3273" width="9.60495" height="0.7" rx="0.35" fill="#444444" stroke="#444444" stroke-width="0.7"/>
<ellipse cx="19.8715" cy="40.4225" rx="1.498" ry="1.5" fill="#444444"/>
<ellipse cx="25.8637" cy="40.4225" rx="1.498" ry="1.5" fill="#444444"/>
<ellipse cx="31.8554" cy="40.4225" rx="1.498" ry="1.5" fill="#444444"/>
</svg>
