<svg width="53" height="42" viewBox="0 0 53 42" fill="none" xmlns="http://www.w3.org/2000/svg">
<rect x="7.96582" y="1.92249" width="36.1063" height="29.9375" rx="3" fill="white" stroke="#444444" stroke-width="2"/>
<rect x="13.7661" y="7.41638" width="24.5063" height="1" rx="0.5" fill="#444444" stroke="#444444"/>
<rect x="13.7661" y="12.4164" width="20.8832" height="1" rx="0.5" fill="#444444" stroke="#444444"/>
<rect x="25.5155" y="20.1775" width="9.6476" height="0.7" rx="0.35" fill="#444444" stroke="#444444" stroke-width="0.7"/>
<rect x="25.5155" y="23.5122" width="5.19499" height="0.7" rx="0.35" fill="#444444" stroke="#444444" stroke-width="0.7"/>
<path d="M22.3234 22.1949C22.3234 24.5213 20.4317 26.4101 18.0947 26.4101C15.7578 26.4101 13.8661 24.5213 13.8661 22.1949C13.8661 19.8685 15.7578 17.9798 18.0947 17.9798C20.4317 17.9798 22.3234 19.8685 22.3234 22.1949Z" fill="white" stroke="#444444" stroke-width="1.2"/>
<path d="M20.1644 23.3827L20.1644 23.3827C19.9103 23.1294 19.6173 22.9283 19.2988 22.7851C19.6381 22.4664 19.8508 22.014 19.8508 21.5127C19.8508 20.548 19.0642 19.7642 18.0979 19.7642C17.1316 19.7642 16.3449 20.548 16.3449 21.5127C16.3449 22.014 16.5576 22.4664 16.8969 22.7852C16.5784 22.9283 16.2855 23.1294 16.0314 23.3827L16.0314 23.3827C15.4795 23.9331 15.1752 24.6656 15.1752 25.4441V25.5941H15.3252H15.7584H15.9084V25.4441C15.9084 24.2409 16.8903 23.2611 18.0979 23.2611C19.3054 23.2611 20.2873 24.2409 20.2873 25.4441V25.5941H20.4373H20.8705H21.0205V25.4441C21.0205 24.6656 20.7162 23.9331 20.1644 23.3827ZM18.0979 22.5291C17.5353 22.5291 17.0781 22.0726 17.0781 21.5127C17.0781 20.9527 17.5353 20.4962 18.0979 20.4962C18.6604 20.4962 19.1176 20.9527 19.1176 21.5127C19.1176 22.0726 18.6604 22.5291 18.0979 22.5291Z" fill="#444444" stroke="#444444" stroke-width="0.3"/>
<ellipse cx="20.0022" cy="40.4225" rx="1.5042" ry="1.5" fill="#444444"/>
<ellipse cx="26.0188" cy="40.4225" rx="1.5042" ry="1.5" fill="#444444"/>
<ellipse cx="32.0359" cy="40.4225" rx="1.5042" ry="1.5" fill="#444444"/>
<path d="M47.893 20.009C48.1023 20.2177 48.3764 20.3216 48.6505 20.3216C48.9247 20.3216 49.1988 20.2177 49.4081 20.009L51.705 17.7185C52.1235 17.3011 52.1235 16.6246 51.705 16.2072L49.4081 13.9167C48.9896 13.4998 48.3115 13.4998 47.893 13.9167C47.4745 14.3341 47.4745 15.0106 47.893 15.428L49.4319 16.9626L47.893 18.4977C47.4745 18.9151 47.4745 19.5916 47.893 20.009Z" fill="#444444"/>
<path d="M4.14494 13.9167C3.72641 13.4998 3.04838 13.4998 2.62943 13.9167L0.332943 16.2072C-0.0855903 16.6246 -0.0855903 17.3011 0.332943 17.7185L2.62943 20.009C2.8387 20.2177 3.11326 20.322 3.3874 20.322C3.66154 20.322 3.93567 20.2177 4.14494 20.009C4.56306 19.5916 4.56306 18.9151 4.14494 18.4977L2.60558 16.9631L4.14494 15.428C4.56347 15.0106 4.56347 14.3341 4.14494 13.9167Z" fill="#444444"/>
</svg>
