<svg width="53" height="42" viewBox="0 0 53 42" fill="none" xmlns="http://www.w3.org/2000/svg">
<path d="M30.8316 41.6093C31.0403 41.818 31.3136 41.9219 31.587 41.9219C31.8604 41.9219 32.1338 41.818 32.3424 41.6093L34.6329 39.3188C35.0503 38.9015 35.0503 38.2249 34.6329 37.8076L32.3424 35.5171C31.9251 35.1001 31.2489 35.1001 30.8316 35.5171C30.4142 35.9344 30.4142 36.611 30.8316 37.0283L32.3662 38.563L30.8316 40.0981C30.4142 40.5154 30.4142 41.192 30.8316 41.6093Z" fill="#444444"/>
<path d="M21.2057 35.5171C20.7883 35.1001 20.1122 35.1001 19.6944 35.5171L17.4043 37.8076C16.987 38.2249 16.987 38.9015 17.4043 39.3188L19.6944 41.6093C19.9031 41.818 20.1769 41.9224 20.4503 41.9224C20.7236 41.9224 20.997 41.818 21.2057 41.6093C21.6226 41.192 21.6226 40.5154 21.2057 40.0981L19.6706 38.5634L21.2057 37.0283C21.6231 36.611 21.6231 35.9344 21.2057 35.5171Z" fill="#444444"/>
<rect x="28.6138" y="1.92249" width="22.4051" height="27.5379" rx="3" fill="white" stroke="#444444" stroke-width="2"/>
<rect x="32.9764" y="18.8295" width="14.0913" height="0.9" rx="0.45" fill="#444444" stroke="#444444" stroke-width="0.9"/>
<rect x="32.9764" y="22.8295" width="11.9619" height="0.9" rx="0.45" fill="#444444" stroke="#444444" stroke-width="0.9"/>
<path d="M37.2522 9.83544L37.2522 9.83543C37.0346 9.61782 36.7846 9.44381 36.513 9.31789C36.8025 9.03568 36.9829 8.64142 36.9829 8.20551C36.9829 7.34844 36.2858 6.65139 35.4288 6.65139C34.5717 6.65139 33.8746 7.34844 33.8746 8.20551C33.8746 8.64142 34.055 9.03569 34.3445 9.3179C34.0729 9.44382 33.8229 9.61782 33.6053 9.83543L33.6053 9.83544C33.1184 10.3223 32.85 10.9704 32.85 11.6589V11.8089H33H33.3795H33.5295V11.6589C33.5295 10.6118 34.3816 9.75964 35.4288 9.75964C36.4759 9.75964 37.328 10.6118 37.328 11.6589V11.8089H37.478H37.8575H38.0075V11.6589C38.0075 10.9704 37.7391 10.3223 37.2522 9.83544ZM35.4288 9.08014C34.9466 9.08014 34.5541 8.68766 34.5541 8.20551C34.5541 7.72337 34.9466 7.33088 35.4288 7.33088C35.9109 7.33088 36.3034 7.72337 36.3034 8.20551C36.3034 8.68766 35.9109 9.08014 35.4288 9.08014Z" fill="#444444" stroke="#444444" stroke-width="0.3"/>
<rect x="32.9707" y="14.1636" width="7.52891" height="0.547915" rx="0.273957" fill="#444444" stroke="#444444" stroke-width="0.547915"/>
<rect x="1.01855" y="1.92249" width="22.4051" height="27.5379" rx="3" fill="white" stroke="#444444" stroke-width="2"/>
<rect x="5.44414" y="18.8295" width="14.0913" height="0.9" rx="0.45" fill="#444444" stroke="#444444" stroke-width="0.9"/>
<rect x="5.44414" y="22.8295" width="11.9619" height="0.9" rx="0.45" fill="#444444" stroke="#444444" stroke-width="0.9"/>
<path d="M9.71559 9.82543L9.71559 9.82542C9.49797 9.60781 9.24797 9.4338 8.97636 9.30788C9.26584 9.02568 9.44625 8.63141 9.44625 8.1955C9.44625 7.33843 8.7492 6.64138 7.89213 6.64138C7.03506 6.64138 6.33801 7.33843 6.33801 8.1955C6.33801 8.63141 6.51842 9.02568 6.80791 9.30789C6.5363 9.43381 6.2863 9.60781 6.06868 9.82542L6.06868 9.82543C5.58182 10.3123 5.31338 10.9604 5.31338 11.6489V11.7989H5.46338H5.65313H5.84287H5.99287V11.6489C5.99287 10.6018 6.84501 9.74963 7.89213 9.74963C8.93925 9.74963 9.79139 10.6018 9.79139 11.6489V11.7989H9.94139H10.3209H10.4709V11.6489C10.4709 10.9604 10.2024 10.3123 9.71559 9.82543ZM7.89213 9.07013C7.40999 9.07013 7.0175 8.67765 7.0175 8.1955C7.0175 7.71336 7.40999 7.32087 7.89213 7.32087C8.37427 7.32087 8.76676 7.71336 8.76676 8.1955C8.76676 8.67765 8.37427 9.07013 7.89213 9.07013Z" fill="#444444" stroke="#444444" stroke-width="0.3"/>
<rect x="5.43851" y="14.1636" width="7.52891" height="0.547915" rx="0.273957" fill="#444444" stroke="#444444" stroke-width="0.547915"/>
</svg>
