<?xml version="1.0" encoding="utf-8"?>
<!-- Svg Vector Icons : http://www.onlinewebfonts.com/icon -->
<!DOCTYPE svg PUBLIC "-//W3C//DTD SVG 1.1//EN" "http://www.w3.org/Graphics/SVG/1.1/DTD/svg11.dtd">
<svg version="1.1" xmlns="http://www.w3.org/2000/svg" xmlns:xlink="http://www.w3.org/1999/xlink" x="0px" y="0px" viewBox="0 0 256 256" enable-background="new 0 0 256 256" xml:space="preserve">
<metadata> Svg Vector Icons : http://www.onlinewebfonts.com/icon </metadata>
<g><g><g><path fill="#000000" d="M16.4,81v41.7h5.2h5.2V85.9V49.1h104.3h104.3v68.2v68.2h-74.7H86.2v5.2v5.2h79.9H246v-78.3V39.3H131.2H16.4V81z"/><path fill="#000000" d="M58.2,76.4c-4.7,1.4-9.5,5.6-11.9,10.2c-1.9,3.7-2.3,11.5-0.8,16c1.6,4.8,6.5,9.7,11.7,11.6c9.7,3.7,20.5-0.8,25.2-10.2c2-4.2,2.1-12.1,0.1-16.5c-2.1-4.4-5.3-7.8-9.7-9.8c-3.2-1.5-4.8-1.8-8.5-1.8C61.9,75.9,59.1,76.2,58.2,76.4z"/><path fill="#000000" d="M126,80.7v4.9h47h47v-4.9v-4.9h-47h-47V80.7z"/><path fill="#000000" d="M126,122.5v4.9h47h47v-4.9v-4.9h-47h-47V122.5z"/><path fill="#000000" d="M28.7,129c-8,2-14.3,6.7-17.1,12.7c-1.3,2.9-1.4,4-1.6,28.4c-0.1,23.3-0.1,25.6,1,27.7c3.5,6.7,13.8,5.5,15.8-1.9c0.4-1.3,0.7-11.1,0.7-22.1v-19.7h4.3h4.2L36,183.9c-0.1,16.4-0.1,30.5-0.1,31.3l0.1,1.5h23.3h23.3v-31.4v-31.5l4.4-0.2l4.4-0.2v8.5c0,9.3,0.6,11.6,3.5,14.3c3.2,3,4.6,2.5,21.8-7.7c8.7-5.2,16.3-10,16.9-10.9c2.6-4,1.2-11.7-2.4-13.6c-3.9-2-6.9-1-15.6,4.9c-3.1,2.2-5.9,3.9-6.1,3.9c-0.2,0-0.6-1.6-0.8-3.5c-1-8.1-7.4-16.2-15.3-19.4c-3.7-1.5-4-1.5-32.4-1.6C38.3,128.1,31.6,128.3,28.7,129z"/></g></g></g>
</svg>