<svg width="30" height="30" viewBox="0 0 30 30" fill="none" xmlns="http://www.w3.org/2000/svg">
<g id="fi_3688023" clip-path="url(#clip0_3456_6426)">
<g id="Group">
<path id="Vector" d="M15 29.9949C23.2843 29.9949 30 23.2814 30 14.9999C30 6.71838 23.2843 0.00488281 15 0.00488281C6.71573 0.00488281 0 6.71838 0 14.9999C0 23.2814 6.71573 29.9949 15 29.9949Z" fill="#FFEB00"/>
<path id="Vector_2" d="M15.0004 0.00488281C14.9987 0.00488281 14.9969 0.00494139 14.9951 0.00494139V29.9948C14.9969 29.9948 14.9987 29.9949 15.0004 29.9949C23.2847 29.9949 30.0004 23.2814 30.0004 14.9998C30.0004 6.71829 23.2847 0.00488281 15.0004 0.00488281Z" fill="#FFBB00"/>
<path id="Vector_3" d="M9.33814 13.8393C10.5976 13.8393 11.6187 12.8186 11.6187 11.5595C11.6187 10.3005 10.5976 9.27979 9.33814 9.27979C8.07864 9.27979 7.05762 10.3005 7.05762 11.5595C7.05762 12.8186 8.07864 13.8393 9.33814 13.8393Z" fill="#132C63"/>
<path id="Vector_4" d="M20.5627 13.8393C21.8222 13.8393 22.8433 12.8186 22.8433 11.5595C22.8433 10.3005 21.8222 9.27979 20.5627 9.27979C19.3032 9.27979 18.2822 10.3005 18.2822 11.5595C18.2822 12.8186 19.3032 13.8393 20.5627 13.8393Z" fill="#000F35"/>
<g id="Group_2">
<path id="Vector_5" d="M15.0119 24.9116C11.0495 24.9116 7.49483 22.4699 5.95589 18.6909C5.76149 18.2135 5.99086 17.6689 6.46828 17.4745C6.94577 17.28 7.49031 17.5095 7.68466 17.9869C8.936 21.0596 11.8121 23.045 15.0119 23.045C18.2117 23.045 21.0878 21.0596 22.3391 17.9869C22.5335 17.5095 23.078 17.2799 23.5555 17.4745C24.0329 17.6689 24.2623 18.2135 24.0679 18.6909C22.529 22.4699 18.9743 24.9116 15.0119 24.9116Z" fill="#132C63"/>
</g>
<path id="Vector_6" d="M23.5564 17.4745C23.0789 17.28 22.5344 17.5095 22.34 17.9868C21.0887 21.0595 18.2126 23.045 15.0128 23.045C15.0069 23.045 15.001 23.0446 14.9951 23.0446V24.9114C15.001 24.9114 15.0069 24.9116 15.0128 24.9116C18.9752 24.9116 22.5299 22.4698 24.0688 18.6909C24.2632 18.2135 24.0338 17.6689 23.5564 17.4745Z" fill="#000F35"/>
</g>
</g>
<defs>
<clipPath id="clip0_3456_6426">
<rect width="30" height="30" fill="white"/>
</clipPath>
</defs>
</svg>
