<svg width="30" height="30" viewBox="0 0 30 30" fill="none" xmlns="http://www.w3.org/2000/svg">
<g id="fi_3688063" clip-path="url(#clip0_3456_2382)">
<g id="Group">
<g id="Group_2">
<g id="Group_3">
<path id="Vector" d="M15 29.9949C23.2843 29.9949 30 23.2814 30 14.9999C30 6.71838 23.2843 0.00488281 15 0.00488281C6.71573 0.00488281 0 6.71838 0 14.9999C0 23.2814 6.71573 29.9949 15 29.9949Z" fill="#FFEB00"/>
<path id="Vector_2" d="M15.0004 0.00488281C14.9987 0.00488281 14.9969 0.00494139 14.9951 0.00494139V29.9948C14.9969 29.9948 14.9987 29.9949 15.0004 29.9949C23.2847 29.9949 30.0004 23.2814 30.0004 14.9998C30.0004 6.71829 23.2847 0.00488281 15.0004 0.00488281Z" fill="#FFBB00"/>
</g>
</g>
<g id="Group_4">
<path id="Vector_3" d="M22.8409 20.3072H7.14822C6.61551 20.3072 6.18359 19.8753 6.18359 19.3426C6.18359 18.8098 6.61551 18.3779 7.14822 18.3779H22.8409C23.3736 18.3779 23.8055 18.8098 23.8055 19.3426C23.8055 19.8753 23.3736 20.3072 22.8409 20.3072Z" fill="#132C63"/>
</g>
<g id="Group_5">
<g id="Group_6">
<path id="Vector_4" d="M12.0097 12.543H7.93729C7.40457 12.543 6.97266 12.1111 6.97266 11.5784C6.97266 11.0457 7.40457 10.6138 7.93729 10.6138H12.0097C12.5424 10.6138 12.9743 11.0457 12.9743 11.5784C12.9743 12.1111 12.5425 12.543 12.0097 12.543Z" fill="#132C63"/>
</g>
<g id="Group_7">
<path id="Vector_5" d="M22.0517 12.543H17.9793C17.4466 12.543 17.0146 12.1111 17.0146 11.5784C17.0146 11.0457 17.4466 10.6138 17.9793 10.6138H22.0517C22.5844 10.6138 23.0163 11.0457 23.0163 11.5784C23.0163 12.1111 22.5844 12.543 22.0517 12.543Z" fill="#000F35"/>
</g>
</g>
<path id="Vector_6" d="M22.8413 18.3779H14.9951V20.3072H22.8413C23.374 20.3072 23.8059 19.8753 23.8059 19.3426C23.8059 18.8098 23.374 18.3779 22.8413 18.3779Z" fill="#000F35"/>
</g>
</g>
<defs>
<clipPath id="clip0_3456_2382">
<rect width="30" height="30" fill="white"/>
</clipPath>
</defs>
</svg>
