<svg width="30" height="30" viewBox="0 0 30 30" fill="none" xmlns="http://www.w3.org/2000/svg">
<g id="fi_3688090" clip-path="url(#clip0_3456_2338)">
<g id="Group">
<g id="Group_2">
<g id="Group_3">
<g id="Group_4">
<path id="Vector" d="M15 29.9949C23.2843 29.9949 30 23.2814 30 14.9999C30 6.71838 23.2843 0.00488281 15 0.00488281C6.71573 0.00488281 0 6.71838 0 14.9999C0 23.2814 6.71573 29.9949 15 29.9949Z" fill="#FFEB00"/>
<path id="Vector_2" d="M15.0004 0.00488281C14.9987 0.00488281 14.9969 0.00494139 14.9951 0.00494139V29.9948C14.9969 29.9948 14.9987 29.9949 15.0004 29.9949C23.2847 29.9949 30.0004 23.2814 30.0004 14.9998C30.0004 6.71829 23.2847 0.00488281 15.0004 0.00488281Z" fill="#FFBB00"/>
</g>
</g>
<g id="Group_5">
<path id="Vector_3" d="M11.8182 15.8071C11.333 15.8071 10.9397 15.4137 10.9397 14.9285C10.9397 14.2296 10.3711 13.661 9.67214 13.661C8.9732 13.661 8.40464 14.2296 8.40464 14.9285C8.40464 15.4137 8.01126 15.8071 7.52605 15.8071C7.04083 15.8071 6.64746 15.4137 6.64746 14.9285C6.64746 13.2607 8.00429 11.9038 9.67214 11.9038C11.34 11.9038 12.6968 13.2607 12.6968 14.9285C12.6968 15.4137 12.3035 15.8071 11.8182 15.8071Z" fill="#132C63"/>
</g>
<g id="Group_6">
<path id="Vector_4" d="M22.3798 15.8071C21.8945 15.8071 21.5012 15.4137 21.5012 14.9285C21.5012 14.2296 20.9326 13.661 20.2337 13.661C19.5347 13.661 18.9662 14.2296 18.9662 14.9285C18.9662 15.4137 18.5728 15.8071 18.0876 15.8071C17.6024 15.8071 17.209 15.4137 17.209 14.9285C17.209 13.2607 18.5658 11.9038 20.2337 11.9038C21.9015 11.9038 23.2583 13.2607 23.2583 14.9285C23.2583 15.4137 22.865 15.8071 22.3798 15.8071Z" fill="#000F35"/>
</g>
</g>
<g id="Group_7">
<path id="Vector_5" d="M18.5538 23.4935C18.2415 23.4935 17.9393 23.3267 17.7802 23.0328C17.2108 21.9803 16.1418 21.3265 14.9906 21.3265C13.8447 21.3265 12.7783 21.9757 12.2075 23.021C11.9748 23.4468 11.441 23.6034 11.0153 23.3709C10.5894 23.1383 10.4327 22.6046 10.6653 22.1787C11.5443 20.5692 13.2017 19.5693 14.9906 19.5693C16.7878 19.5693 18.4489 20.5761 19.3258 22.1968C19.5566 22.6236 19.3978 23.1567 18.9711 23.3876C18.8382 23.4594 18.6949 23.4935 18.5538 23.4935Z" fill="#132C63"/>
</g>
<path id="Vector_6" d="M14.9951 19.5693V21.3265C16.1448 21.3281 17.2118 21.9816 17.7805 23.0328C17.9396 23.3268 18.2418 23.4936 18.5541 23.4935C18.6952 23.4935 18.8385 23.4594 18.9714 23.3875C19.3981 23.1566 19.5569 22.6235 19.3261 22.1967C18.45 20.5773 16.7907 19.5709 14.9951 19.5693Z" fill="#000F35"/>
</g>
</g>
<defs>
<clipPath id="clip0_3456_2338">
<rect width="30" height="30" fill="white"/>
</clipPath>
</defs>
</svg>
