<svg width="16" height="16" viewBox="0 0 16 16" fill="none" xmlns="http://www.w3.org/2000/svg">
<g id="Icon-24/Shortcut_24">
<path id="Vector (Stroke)" fill-rule="evenodd" clip-rule="evenodd" d="M3.98691 2.58691C3.21525 2.58691 2.58691 3.21087 2.58691 3.98691V12.0136C2.58691 12.7852 3.21086 13.4136 3.98691 13.4136H12.0136C12.7852 13.4136 13.4136 12.7896 13.4136 12.0136V10.0402C13.4136 9.76411 13.6374 9.54025 13.9136 9.54025C14.1897 9.54025 14.4136 9.76411 14.4136 10.0402V12.0136C14.4136 13.3442 13.3352 14.4136 12.0136 14.4136H3.98691C2.6563 14.4136 1.58691 13.3352 1.58691 12.0136V3.98691C1.58691 2.6563 2.66525 1.58691 3.98691 1.58691H5.91358C6.18972 1.58691 6.41358 1.81077 6.41358 2.08691C6.41358 2.36306 6.18972 2.58691 5.91358 2.58691H3.98691ZM8.51358 2.78025C8.51358 2.50411 8.73744 2.28025 9.01358 2.28025H11.5936C12.7031 2.28025 13.6002 3.17744 13.6002 4.28691V6.64691C13.6002 6.92306 13.3764 7.14691 13.1002 7.14691C12.8241 7.14691 12.6002 6.92306 12.6002 6.64691V4.28691C12.6002 4.19459 12.5879 4.10522 12.5648 4.02037L6.05023 10.6507C5.8567 10.8476 5.54013 10.8504 5.34315 10.6569C5.14618 10.4634 5.14339 10.1468 5.33693 9.94982L11.8562 3.31466C11.7725 3.29221 11.6845 3.28025 11.5936 3.28025H9.01358C8.73744 3.28025 8.51358 3.05639 8.51358 2.78025Z" fill="#0051F9"/>
</g>
</svg>
