<svg width="20" height="20" viewBox="0 0 20 20" fill="none" xmlns="http://www.w3.org/2000/svg">
<g id="Icon-24/Report_24" clip-path="url(#clip0_3456_2457)">
<path id="Path (Stroke)" fill-rule="evenodd" clip-rule="evenodd" d="M2.7085 5C2.7085 3.27411 4.10761 1.875 5.8335 1.875H12.1904C13.0192 1.875 13.8141 2.20424 14.4001 2.79029L16.3765 4.76668C16.9626 5.35273 17.2918 6.14759 17.2918 6.97639L17.2918 15C17.2918 16.7259 15.8927 18.125 14.1668 18.125H5.8335C4.10761 18.125 2.7085 16.7259 2.7085 15V5ZM5.8335 3.125C4.79796 3.125 3.9585 3.96447 3.9585 5V15C3.9585 16.0355 4.79796 16.875 5.8335 16.875H14.1668C15.2024 16.875 16.0418 16.0355 16.0418 15V6.97639C16.0418 6.47911 15.8443 6.0022 15.4927 5.65057L13.5163 3.67417C13.1646 3.32254 12.6877 3.125 12.1904 3.125H5.8335Z" fill="#343A40"/>
<path id="Vector (Stroke)" fill-rule="evenodd" clip-rule="evenodd" d="M6.0415 11.25C6.0415 10.9048 6.32133 10.625 6.6665 10.625H13.3332C13.6783 10.625 13.9582 10.9048 13.9582 11.25C13.9582 11.5952 13.6783 11.875 13.3332 11.875H6.6665C6.32133 11.875 6.0415 11.5952 6.0415 11.25ZM6.0415 14.1667C6.0415 13.8215 6.32133 13.5417 6.6665 13.5417H13.3332C13.6783 13.5417 13.9582 13.8215 13.9582 14.1667C13.9582 14.5118 13.6783 14.7917 13.3332 14.7917H6.6665C6.32133 14.7917 6.0415 14.5118 6.0415 14.1667Z" fill="#343A40"/>
<path id="Path (Stroke)_2" fill-rule="evenodd" clip-rule="evenodd" d="M6.0415 8.33301C6.0415 7.98783 6.32133 7.70801 6.6665 7.70801H9.1665C9.51168 7.70801 9.7915 7.98783 9.7915 8.33301C9.7915 8.67819 9.51168 8.95801 9.1665 8.95801H6.6665C6.32133 8.95801 6.0415 8.67819 6.0415 8.33301Z" fill="#343A40"/>
<path id="Path (Stroke)_3" fill-rule="evenodd" clip-rule="evenodd" d="M12.0835 1.875C12.4287 1.875 12.7085 2.15482 12.7085 2.5V5.41667C12.7085 5.99196 13.1749 6.45833 13.7502 6.45833H16.6668C17.012 6.45833 17.2918 6.73816 17.2918 7.08333C17.2918 7.42851 17.012 7.70833 16.6668 7.70833H13.7502C12.4845 7.70833 11.4585 6.68232 11.4585 5.41667V2.5C11.4585 2.15482 11.7383 1.875 12.0835 1.875Z" fill="#343A40"/>
</g>
<defs>
<clipPath id="clip0_3456_2457">
<rect width="20" height="20" fill="white"/>
</clipPath>
</defs>
</svg>
