<svg width="24" height="24" viewBox="0 0 24 24" fill="none" xmlns="http://www.w3.org/2000/svg">
<path fill-rule="evenodd" clip-rule="evenodd" d="M12 5.59313C12.4142 5.59313 12.75 5.92892 12.75 6.34313L12.75 17.6568C12.75 18.0711 12.4142 18.4068 12 18.4068C11.5858 18.4068 11.25 18.0711 11.25 17.6568L11.25 6.34313C11.25 5.92892 11.5858 5.59313 12 5.59313Z" fill="#5B6880"/>
<path fill-rule="evenodd" clip-rule="evenodd" d="M18.4069 12C18.4069 12.4142 18.0711 12.75 17.6569 12.75H6.34315C5.92893 12.75 5.59315 12.4142 5.59315 12C5.59315 11.5858 5.92893 11.25 6.34315 11.25H17.6569C18.0711 11.25 18.4069 11.5858 18.4069 12Z" fill="#5B6880"/>
</svg>
