<svg width="16" height="16" viewBox="0 0 16 16" fill="none" xmlns="http://www.w3.org/2000/svg">
<g id="Advance">
<path id="Vector (Stroke)" fill-rule="evenodd" clip-rule="evenodd" d="M11.3865 1.90626C10.9444 1.81301 10.486 1.80574 10.0368 1.88759C9.33682 2.01513 8.69236 2.35294 8.18927 2.85603C7.68618 3.35912 7.34837 4.00358 7.22083 4.70353C7.0933 5.40347 7.18211 6.12567 7.47543 6.77386C7.56123 6.96347 7.52062 7.18639 7.37346 7.33355L2.76679 11.9402C2.59534 12.1117 2.49902 12.3442 2.49902 12.5867C2.49902 12.8291 2.59534 13.0617 2.76679 13.2331C2.93824 13.4046 3.17077 13.5009 3.41324 13.5009C3.6557 13.5009 3.88824 13.4046 4.05968 13.2331L8.66635 8.62644C8.81351 8.47929 9.03644 8.43867 9.22604 8.52447C9.87423 8.81779 10.5964 8.9066 11.2964 8.77907C11.9963 8.65154 12.6408 8.31372 13.1439 7.81063C13.647 7.30754 13.9848 6.66308 14.1123 5.96314C14.1942 5.5139 14.1869 5.05549 14.0936 4.61337L12.1499 6.55709C11.9318 6.77085 11.6386 6.89057 11.3332 6.89057C11.0279 6.89057 10.7347 6.77083 10.5166 6.55707L10.513 6.55357L9.44281 5.48335C9.22905 5.26527 9.10933 4.97204 9.10933 4.66666C9.10933 4.36128 9.22907 4.06808 9.44283 3.85L9.44633 3.84643L11.3865 1.90626ZM9.85751 0.90379C10.7574 0.73982 11.686 0.854007 12.5194 1.23113C12.6689 1.2988 12.7757 1.43556 12.8051 1.59704C12.8346 1.75852 12.7829 1.92415 12.6668 2.04022L10.1558 4.55118C10.126 4.58221 10.1093 4.62359 10.1093 4.66666C10.1093 4.70973 10.126 4.75111 10.1558 4.78214L11.2178 5.84409C11.2488 5.8739 11.2902 5.89057 11.3332 5.89057C11.3763 5.89057 11.4177 5.8739 11.4487 5.8441L13.9597 3.33311C14.0757 3.21705 14.2414 3.16534 14.4029 3.19476C14.5643 3.22418 14.7011 3.33099 14.7688 3.48053C15.1459 4.31392 15.2601 5.24245 15.0961 6.14239C14.9321 7.04232 14.4978 7.87091 13.851 8.51774C13.2042 9.16456 12.3756 9.5989 11.4756 9.76287C10.6912 9.90579 9.88514 9.83739 9.13924 9.56776L4.76679 13.9402C4.40781 14.2992 3.92092 14.5009 3.41324 14.5009C2.90556 14.5009 2.41867 14.2992 2.05968 13.9402C1.7007 13.5812 1.49902 13.0943 1.49902 12.5867C1.49902 12.079 1.7007 11.5921 2.05968 11.2331L6.43214 6.86066C6.16251 6.11476 6.09411 5.30865 6.23703 4.52427C6.401 3.62434 6.83534 2.79575 7.48216 2.14892C8.12899 1.5021 8.95758 1.06776 9.85751 0.90379Z" fill="#5B6880"/>
</g>
</svg>
