<svg width="16" height="16" viewBox="0 0 16 16" fill="none" xmlns="http://www.w3.org/2000/svg">
<g id="Content">
<path id="Vector (Stroke)" fill-rule="evenodd" clip-rule="evenodd" d="M2.66675 8.83334C2.94289 8.83334 3.16675 9.0572 3.16675 9.33334V14C3.16675 14.2762 2.94289 14.5 2.66675 14.5C2.39061 14.5 2.16675 14.2762 2.16675 14V9.33334C2.16675 9.0572 2.39061 8.83334 2.66675 8.83334Z" fill="#5B6880"/>
<path id="Vector (Stroke)_2" fill-rule="evenodd" clip-rule="evenodd" d="M2.66675 1.5C2.94289 1.5 3.16675 1.72386 3.16675 2V6.66667C3.16675 6.94281 2.94289 7.16667 2.66675 7.16667C2.39061 7.16667 2.16675 6.94281 2.16675 6.66667V2C2.16675 1.72386 2.39061 1.5 2.66675 1.5Z" fill="#5B6880"/>
<path id="Vector (Stroke)_3" fill-rule="evenodd" clip-rule="evenodd" d="M8 7.5C8.27614 7.5 8.5 7.72386 8.5 8V14C8.5 14.2761 8.27614 14.5 8 14.5C7.72386 14.5 7.5 14.2761 7.5 14V8C7.5 7.72386 7.72386 7.5 8 7.5Z" fill="#5B6880"/>
<path id="Vector (Stroke)_4" fill-rule="evenodd" clip-rule="evenodd" d="M8 1.5C8.27614 1.5 8.5 1.72386 8.5 2V5.33333C8.5 5.60948 8.27614 5.83333 8 5.83333C7.72386 5.83333 7.5 5.60948 7.5 5.33333V2C7.5 1.72386 7.72386 1.5 8 1.5Z" fill="#5B6880"/>
<path id="Vector (Stroke)_5" fill-rule="evenodd" clip-rule="evenodd" d="M13.3333 10.1667C13.6094 10.1667 13.8333 10.3905 13.8333 10.6667V14C13.8333 14.2761 13.6094 14.5 13.3333 14.5C13.0571 14.5 12.8333 14.2761 12.8333 14V10.6667C12.8333 10.3905 13.0571 10.1667 13.3333 10.1667Z" fill="#5B6880"/>
<path id="Vector (Stroke)_6" fill-rule="evenodd" clip-rule="evenodd" d="M13.3333 1.5C13.6094 1.5 13.8333 1.72386 13.8333 2V8C13.8333 8.27614 13.6094 8.5 13.3333 8.5C13.0571 8.5 12.8333 8.27614 12.8333 8V2C12.8333 1.72386 13.0571 1.5 13.3333 1.5Z" fill="#5B6880"/>
<path id="Vector (Stroke)_7" fill-rule="evenodd" clip-rule="evenodd" d="M0.166748 9.33334C0.166748 9.0572 0.390606 8.83334 0.666748 8.83334H4.66675C4.94289 8.83334 5.16675 9.0572 5.16675 9.33334C5.16675 9.60949 4.94289 9.83334 4.66675 9.83334H0.666748C0.390606 9.83334 0.166748 9.60949 0.166748 9.33334Z" fill="#5B6880"/>
<path id="Vector (Stroke)_8" fill-rule="evenodd" clip-rule="evenodd" d="M5.5 5.33334C5.5 5.0572 5.72386 4.83334 6 4.83334H10C10.2761 4.83334 10.5 5.0572 10.5 5.33334C10.5 5.60949 10.2761 5.83334 10 5.83334H6C5.72386 5.83334 5.5 5.60949 5.5 5.33334Z" fill="#5B6880"/>
<path id="Vector (Stroke)_9" fill-rule="evenodd" clip-rule="evenodd" d="M10.8333 10.6667C10.8333 10.3905 11.0571 10.1667 11.3333 10.1667H15.3333C15.6094 10.1667 15.8333 10.3905 15.8333 10.6667C15.8333 10.9428 15.6094 11.1667 15.3333 11.1667H11.3333C11.0571 11.1667 10.8333 10.9428 10.8333 10.6667Z" fill="#5B6880"/>
</g>
</svg>
