<svg width="24" height="24" viewBox="0 0 24 24" fill="none" xmlns="http://www.w3.org/2000/svg">
<path fill-rule="evenodd" clip-rule="evenodd" d="M6 4.88889C6 4.39797 5.61068 4 5.13043 4H4.34783C2.90706 4 1.73913 5.19388 1.73913 6.66667V10.2222C1.73913 10.7132 1.34984 11.1111 0.869565 11.1111C0.389317 11.1111 0 11.5091 0 12C0 12.4909 0.389317 12.8889 0.869565 12.8889C1.34984 12.8889 1.73913 13.2868 1.73913 13.7778V17.3333C1.73913 18.8061 2.90706 20 4.34783 20H5.13043C5.61068 20 6 19.602 6 19.1111C6 18.6202 5.61068 18.2222 5.13043 18.2222H4.34783C3.86755 18.2222 3.47826 17.8243 3.47826 17.3333V13.7778C3.47826 13.0948 3.22709 12.4718 2.81402 12C3.22709 11.5282 3.47826 10.9052 3.47826 10.2222V6.66667C3.47826 6.17572 3.86755 5.77778 4.34783 5.77778H5.13043C5.61068 5.77778 6 5.37981 6 4.88889Z" fill="#5B6880"/>
<path fill-rule="evenodd" clip-rule="evenodd" d="M18 4.88889C18 4.39797 18.3893 4 18.8696 4H19.6522C21.0929 4 22.2609 5.19388 22.2609 6.66667V10.2222C22.2609 10.7132 22.6502 11.1111 23.1304 11.1111C23.6107 11.1111 24 11.5091 24 12C24 12.4909 23.6107 12.8889 23.1304 12.8889C22.6502 12.8889 22.2609 13.2868 22.2609 13.7778V17.3333C22.2609 18.8061 21.0929 20 19.6522 20H18.8696C18.3893 20 18 19.602 18 19.1111C18 18.6202 18.3893 18.2222 18.8696 18.2222H19.6522C20.1324 18.2222 20.5217 17.8243 20.5217 17.3333V13.7778C20.5217 13.0948 20.7729 12.4718 21.186 12C20.7729 11.5282 20.5217 10.9052 20.5217 10.2222V6.66667C20.5217 6.17572 20.1324 5.77778 19.6522 5.77778H18.8696C18.3893 5.77778 18 5.37981 18 4.88889Z" fill="#5B6880"/>
<path d="M16.6662 12.3333C16.6662 12.5174 16.5169 12.6667 16.3328 12.6667C16.1488 12.6667 15.9995 12.5174 15.9995 12.3333C15.9995 12.1492 16.1488 12 16.3328 12C16.5169 12 16.6662 12.1492 16.6662 12.3333" stroke="#5B6880" stroke-width="1.5" stroke-linecap="round" stroke-linejoin="round"/>
<path d="M12.6662 12.3333C12.6662 12.5174 12.5169 12.6667 12.3328 12.6667C12.1488 12.6667 11.9995 12.5174 11.9995 12.3333C11.9995 12.1492 12.1488 12 12.3328 12C12.5169 12 12.6662 12.1492 12.6662 12.3333" stroke="#5B6880" stroke-width="1.5" stroke-linecap="round" stroke-linejoin="round"/>
<path d="M8.66667 12.3333C8.66667 12.5174 8.51743 12.6667 8.33333 12.6667C8.14924 12.6667 8 12.5174 8 12.3333C8 12.1492 8.14924 12 8.33333 12C8.51743 12 8.66667 12.1492 8.66667 12.3333" stroke="#5B6880" stroke-width="1.5" stroke-linecap="round" stroke-linejoin="round"/>
</svg>
