<svg width="24" height="24" viewBox="0 0 24 24" fill="none" xmlns="http://www.w3.org/2000/svg">
<path fill-rule="evenodd" clip-rule="evenodd" d="M4 4.75C3.66848 4.75 3.35054 4.8817 3.11612 5.11612C2.8817 5.35054 2.75 5.66848 2.75 6V15C2.75 15.3315 2.8817 15.6495 3.11612 15.8839C3.35054 16.1183 3.66848 16.25 4 16.25H20C20.3315 16.25 20.6495 16.1183 20.8839 15.8839C21.1183 15.6495 21.25 15.3315 21.25 15V6C21.25 5.66848 21.1183 5.35054 20.8839 5.11612C20.6495 4.8817 20.3315 4.75 20 4.75H4ZM2.05546 4.05546C2.57118 3.53973 3.27065 3.25 4 3.25H20C20.7293 3.25 21.4288 3.53973 21.9445 4.05546C22.4603 4.57118 22.75 5.27065 22.75 6V15C22.75 15.7293 22.4603 16.4288 21.9445 16.9445C21.4288 17.4603 20.7293 17.75 20 17.75H4C3.27065 17.75 2.57118 17.4603 2.05546 16.9445C1.53973 16.4288 1.25 15.7293 1.25 15V6C1.25 5.27065 1.53973 4.57118 2.05546 4.05546ZM7.25 20C7.25 19.5858 7.58579 19.25 8 19.25H16C16.4142 19.25 16.75 19.5858 16.75 20C16.75 20.4142 16.4142 20.75 16 20.75H8C7.58579 20.75 7.25 20.4142 7.25 20Z" fill="#5B6880"/>
</svg>
