<svg width="16" height="16" viewBox="0 0 16 16" fill="none" xmlns="http://www.w3.org/2000/svg">
<g id="Edit">
<g id="Vector">
<mask id="path-1-inside-1_530_2219" fill="white">
<path d="M14.0761 1.92443C13.697 1.54593 13.1832 1.33334 12.6475 1.33334C12.1118 1.33334 11.598 1.54593 11.2189 1.92443L2.15014 10.9932C1.89044 11.2514 1.68453 11.5586 1.54431 11.897C1.40409 12.2353 1.33236 12.5981 1.33326 12.9643V14.1091C1.33326 14.257 1.39201 14.3988 1.49658 14.5033C1.60115 14.6079 1.74297 14.6667 1.89086 14.6667H3.03561C3.40182 14.6677 3.76459 14.5961 4.10294 14.456C4.44128 14.3158 4.74847 14.11 5.00672 13.8503L14.0761 4.78101C14.4544 4.40195 14.6669 3.88827 14.6669 3.35272C14.6669 2.81717 14.4544 2.30349 14.0761 1.92443ZM4.21827 13.0619C3.90379 13.3743 3.47888 13.5502 3.03561 13.5515H2.44846V12.9643C2.44789 12.7446 2.49092 12.5269 2.57505 12.3239C2.65918 12.1209 2.78275 11.9366 2.93859 11.7817L9.82102 4.89922L11.1035 6.18169L4.21827 13.0619ZM13.287 3.99256L11.8897 5.39046L10.6072 4.11077L12.0051 2.71288C12.0893 2.62885 12.1893 2.56223 12.2992 2.51683C12.4092 2.47143 12.527 2.44812 12.646 2.44825C12.7649 2.44838 12.8827 2.47194 12.9925 2.51758C13.1024 2.56323 13.2022 2.63006 13.2862 2.71427C13.3702 2.79848 13.4369 2.89841 13.4823 3.00837C13.5277 3.11832 13.551 3.23614 13.5508 3.3551C13.5507 3.47406 13.5271 3.59183 13.4815 3.70168C13.4359 3.81154 13.369 3.91133 13.2848 3.99535L13.287 3.99256Z"/>
<path d="M13.287 3.99256L11.8897 5.39046L10.6072 4.11077L12.0051 2.71288C12.0893 2.62885 12.1893 2.56223 12.2992 2.51683C12.4092 2.47143 12.527 2.44812 12.646 2.44825C12.7649 2.44838 12.8827 2.47194 12.9925 2.51758C13.1024 2.56323 13.2022 2.63006 13.2862 2.71427C13.3702 2.79848 13.4369 2.89841 13.4823 3.00837C13.5277 3.11832 13.551 3.23614 13.5508 3.3551C13.5507 3.47406 13.5271 3.59183 13.4815 3.70168C13.4359 3.81154 13.369 3.91133 13.2848 3.99535L13.287 3.99256Z"/>
</mask>
<path d="M14.0761 1.92443C13.697 1.54593 13.1832 1.33334 12.6475 1.33334C12.1118 1.33334 11.598 1.54593 11.2189 1.92443L2.15014 10.9932C1.89044 11.2514 1.68453 11.5586 1.54431 11.897C1.40409 12.2353 1.33236 12.5981 1.33326 12.9643V14.1091C1.33326 14.257 1.39201 14.3988 1.49658 14.5033C1.60115 14.6079 1.74297 14.6667 1.89086 14.6667H3.03561C3.40182 14.6677 3.76459 14.5961 4.10294 14.456C4.44128 14.3158 4.74847 14.11 5.00672 13.8503L14.0761 4.78101C14.4544 4.40195 14.6669 3.88827 14.6669 3.35272C14.6669 2.81717 14.4544 2.30349 14.0761 1.92443ZM4.21827 13.0619C3.90379 13.3743 3.47888 13.5502 3.03561 13.5515H2.44846V12.9643C2.44789 12.7446 2.49092 12.5269 2.57505 12.3239C2.65918 12.1209 2.78275 11.9366 2.93859 11.7817L9.82102 4.89922L11.1035 6.18169L4.21827 13.0619ZM13.287 3.99256L11.8897 5.39046L10.6072 4.11077L12.0051 2.71288C12.0893 2.62885 12.1893 2.56223 12.2992 2.51683C12.4092 2.47143 12.527 2.44812 12.646 2.44825C12.7649 2.44838 12.8827 2.47194 12.9925 2.51758C13.1024 2.56323 13.2022 2.63006 13.2862 2.71427C13.3702 2.79848 13.4369 2.89841 13.4823 3.00837C13.5277 3.11832 13.551 3.23614 13.5508 3.3551C13.5507 3.47406 13.5271 3.59183 13.4815 3.70168C13.4359 3.81154 13.369 3.91133 13.2848 3.99535L13.287 3.99256Z" fill="#5B6880"/>
<path d="M13.287 3.99256L11.8897 5.39046L10.6072 4.11077L12.0051 2.71288C12.0893 2.62885 12.1893 2.56223 12.2992 2.51683C12.4092 2.47143 12.527 2.44812 12.646 2.44825C12.7649 2.44838 12.8827 2.47194 12.9925 2.51758C13.1024 2.56323 13.2022 2.63006 13.2862 2.71427C13.3702 2.79848 13.4369 2.89841 13.4823 3.00837C13.5277 3.11832 13.551 3.23614 13.5508 3.3551C13.5507 3.47406 13.5271 3.59183 13.4815 3.70168C13.4359 3.81154 13.369 3.91133 13.2848 3.99535L13.287 3.99256Z" fill="#5B6880"/>
<path d="M13.287 3.99256L18.84 8.43469L8.25773 -1.03475L13.287 3.99256ZM11.8897 5.39046L6.86687 10.4242L11.8962 15.4426L16.919 10.4178L11.8897 5.39046ZM10.6072 4.11077L5.57892 -0.917541L0.545129 4.11625L5.58439 9.14456L10.6072 4.11077ZM12.0051 2.71288L6.98229 -2.32091L6.97682 -2.31544L12.0051 2.71288ZM13.2848 3.99535L7.73185 -0.446769L18.3077 9.02914L13.2848 3.99535ZM8.25773 -1.03475L6.86039 0.363151L16.919 10.4178L18.3164 9.01988L8.25773 -1.03475ZM16.9125 0.356681L15.6301 -0.923007L5.58439 9.14456L6.86687 10.4242L16.9125 0.356681ZM15.6355 9.13909L17.0334 7.74119L6.97682 -2.31544L5.57892 -0.917541L15.6355 9.13909ZM17.028 7.74666C16.4511 8.32223 15.7666 8.77856 15.0134 9.0896L9.58507 -4.05594C8.61195 -3.6541 7.72753 -3.06453 6.98229 -2.32091L17.028 7.74666ZM15.0134 9.0896C14.2602 9.40062 13.4531 9.56025 12.6382 9.55936L12.6537 -4.66285C11.6009 -4.664 10.5582 -4.45777 9.58507 -4.05594L15.0134 9.0896ZM12.6382 9.55936C11.8233 9.55847 11.0166 9.39709 10.2641 9.08443L15.721 -4.04926C14.7488 -4.45321 13.7065 -4.66171 12.6537 -4.66285L12.6382 9.55936ZM10.2641 9.08443C9.51159 8.77177 8.82802 8.31395 8.25243 7.73711L18.32 -2.30857C17.5764 -3.05383 16.6932 -3.64532 15.721 -4.04926L10.2641 9.08443ZM8.25243 7.73711C7.67684 7.16027 7.22051 6.47571 6.90949 5.72252L20.055 0.294213C19.6532 -0.678881 19.0636 -1.56331 18.32 -2.30857L8.25243 7.73711ZM6.90949 5.72252C6.59846 4.9693 6.43884 4.16222 6.43973 3.34736L20.6619 3.36284C20.6631 2.31006 20.4569 1.26734 20.055 0.294213L6.90949 5.72252ZM6.43973 3.34736C6.44062 2.53247 6.602 1.72574 6.91466 0.973231L20.0483 6.43013C20.4523 5.45792 20.6608 4.41565 20.6619 3.36284L6.43973 3.34736ZM6.91466 0.973231C7.22732 0.220718 7.68514 -0.462846 8.26198 -1.03843L18.3077 9.02914C19.0529 8.2855 19.6444 7.40236 20.0483 6.43013L6.91466 0.973231ZM18.8378 8.43747L18.84 8.43469L7.73408 -0.449557L7.73185 -0.446769L18.8378 8.43747ZM14.0761 1.92443L24.1424 -8.12251L24.1337 -8.13122L24.125 -8.13991L14.0761 1.92443ZM12.6475 1.33334V-12.8889V1.33334ZM11.2189 1.92443L1.17001 -8.13992L1.16229 -8.1322L11.2189 1.92443ZM2.15014 10.9932L12.1784 21.0782L12.1926 21.064L12.2068 21.0498L2.15014 10.9932ZM1.33326 12.9643H15.5555V12.9469L15.5554 12.9294L1.33326 12.9643ZM1.33326 14.1091H-12.889H1.33326ZM3.03561 14.6667L3.07576 0.4445L3.05569 0.444443H3.03561V14.6667ZM5.00672 13.8503L-5.04991 3.79371L-5.06352 3.80731L-5.07708 3.82095L5.00672 13.8503ZM14.0761 4.78101L24.1327 14.8376L24.1424 14.828L14.0761 4.78101ZM4.21827 13.0619L14.2413 23.152L14.2563 23.1371L14.2712 23.1222L4.21827 13.0619ZM3.03561 13.5515V27.7737H3.05618L3.07675 27.7736L3.03561 13.5515ZM2.44846 13.5515H-11.7738V27.7737H2.44846V13.5515ZM2.44846 12.9643H16.6707V12.9461L16.6706 12.9278L2.44846 12.9643ZM2.93859 11.7817L12.9657 21.8677L12.9805 21.853L12.9952 21.8383L2.93859 11.7817ZM9.82102 4.89922L19.8777 -5.15741L9.82102 -15.214L-0.23561 -5.15741L9.82102 4.89922ZM11.1035 6.18169L21.1565 16.242L31.2204 6.18537L21.1601 -3.87493L11.1035 6.18169ZM24.125 -8.13991C21.0793 -11.1809 16.9514 -12.8889 12.6475 -12.8889V15.5556C9.41499 15.5556 6.31461 14.2727 4.02714 11.9888L24.125 -8.13991ZM12.6475 -12.8889C8.34361 -12.8889 4.21565 -11.1809 1.17001 -8.13991L21.2678 11.9888C18.9804 14.2727 15.88 15.5556 12.6475 15.5556V-12.8889ZM1.16229 -8.1322L-7.90649 0.93658L12.2068 21.0498L21.2755 11.9811L1.16229 -8.1322ZM-7.87809 0.908257C-9.4711 2.49231 -10.7342 4.37655 -11.5943 6.45195L14.6829 17.342C14.1033 18.7407 13.252 20.0106 12.1784 21.0782L-7.87809 0.908257ZM-11.5943 6.45195C-12.4544 8.52735 -12.8944 10.7527 -12.8889 12.9992L15.5554 12.9294C15.5592 14.4435 15.2626 15.9432 14.6829 17.342L-11.5943 6.45195ZM-12.889 12.9643V14.1091H15.5555V12.9643H-12.889ZM-12.889 14.1091C-12.889 18.0289 -11.3318 21.7882 -8.56005 24.56L11.5532 4.44672C14.1158 7.00934 15.5555 10.485 15.5555 14.1091H-12.889ZM-8.56005 24.56C-5.78827 27.3318 -2.02895 28.8889 1.89086 28.8889V0.444443C5.5149 0.444443 8.99056 1.88408 11.5532 4.44672L-8.56005 24.56ZM1.89086 28.8889H3.03561V0.444443H1.89086V28.8889ZM2.99545 28.8888C5.24257 28.8952 7.46863 28.4557 9.54477 27.5959L-1.33889 1.31602C0.0605553 0.736443 1.56106 0.440223 3.07576 0.4445L2.99545 28.8888ZM9.54477 27.5959C11.6209 26.7361 13.5059 25.473 15.0905 23.8797L-5.07708 3.82095C-4.00892 2.747 -2.73834 1.89559 -1.33889 1.31602L9.54477 27.5959ZM15.0633 23.907L24.1327 14.8376L4.01942 -5.27562L-5.04991 3.79371L15.0633 23.907ZM24.1424 14.828C27.182 11.7825 28.8891 7.65548 28.8891 3.35272H0.444639C0.444639 0.121064 1.7268 -2.97859 4.00975 -5.26594L24.1424 14.828ZM28.8891 3.35272C28.8891 -0.950043 27.182 -5.07705 24.1424 -8.12251L4.00975 11.9714C1.7268 9.68403 0.444639 6.58438 0.444639 3.35272H28.8891ZM-5.80478 2.9718C-3.46496 0.647531 -0.303535 -0.661153 2.99446 -0.670693L3.07675 27.7736C7.26129 27.7615 11.2725 26.1011 14.2413 23.152L-5.80478 2.9718ZM3.03561 -0.670753H2.44846V27.7737H3.03561V-0.670753ZM16.6707 13.5515V12.9643H-11.7738V13.5515H16.6707ZM16.6706 12.9278C16.6749 14.5889 16.3496 16.2344 15.7137 17.7689L-10.5636 6.87889C-11.3678 8.81943 -11.7791 10.9002 -11.7737 13.0008L16.6706 12.9278ZM15.7137 17.7689C15.0777 19.3034 14.1437 20.6966 12.9657 21.8677L-7.08851 1.69558C-8.57821 3.17657 -9.75936 4.93834 -10.5636 6.87889L15.7137 17.7689ZM12.9952 21.8383L19.8776 14.9558L-0.23561 -5.15741L-7.11804 1.72502L12.9952 21.8383ZM-0.235614 14.9558L1.04686 16.2383L21.1601 -3.87493L19.8777 -5.15741L-0.235614 14.9558ZM1.05053 -3.8786L-5.83469 3.0016L14.2712 23.1222L21.1565 16.242L1.05053 -3.8786Z" fill="#5B6880" mask="url(#path-1-inside-1_530_2219)"/>
</g>
</g>
</svg>
