<svg width="24" height="24" viewBox="0 0 24 24" fill="none" xmlns="http://www.w3.org/2000/svg">
<path fill-rule="evenodd" clip-rule="evenodd" d="M6.75 20C6.75 20.3315 6.8817 20.6495 7.11612 20.8839C7.35054 21.1183 7.66848 21.25 8 21.25L16 21.25C16.3315 21.25 16.6495 21.1183 16.8839 20.8839C17.1183 20.6495 17.25 20.3315 17.25 20L17.25 4C17.25 3.66848 17.1183 3.35054 16.8839 3.11612C16.6495 2.8817 16.3315 2.75 16 2.75L8 2.75C7.66848 2.75 7.35054 2.8817 7.11612 3.11612C6.8817 3.35054 6.75 3.66848 6.75 4L6.75 20ZM6.05546 21.9445C5.53973 21.4288 5.25 20.7293 5.25 20L5.25 4C5.25 3.27065 5.53973 2.57118 6.05546 2.05546C6.57118 1.53973 7.27065 1.25 8 1.25L16 1.25C16.7293 1.25 17.4288 1.53973 17.9445 2.05546C18.4603 2.57118 18.75 3.27065 18.75 4L18.75 20C18.75 20.7293 18.4603 21.4288 17.9445 21.9445C17.4288 22.4603 16.7293 22.75 16 22.75L8 22.75C7.27065 22.75 6.57118 22.4603 6.05546 21.9445Z" fill="#5B6880"/>
<path d="M12 20C12.5523 20 13 19.5523 13 19C13 18.4477 12.5523 18 12 18C11.4477 18 11 18.4477 11 19C11 19.5523 11.4477 20 12 20Z" fill="#5B6880"/>
</svg>
