<svg width="24" height="24" viewBox="0 0 24 24" fill="none" xmlns="http://www.w3.org/2000/svg">
<path d="M14.7798 20H9.77983C7.97983 20 4.57983 19.09 4.57983 15.64C4.57983 12.19 7.97983 11.28 9.77983 11.28H14.2198C14.3698 11.28 17.9198 11.23 17.9198 8.42C17.9198 5.61 14.3698 5.56 14.2198 5.56H9.21983C9.02093 5.56 8.83015 5.48098 8.6895 5.34033C8.54885 5.19968 8.46983 5.00891 8.46983 4.81C8.46983 4.61109 8.54885 4.42032 8.6895 4.27967C8.83015 4.13902 9.02093 4.06 9.21983 4.06H14.2198C16.0198 4.06 19.4198 4.97 19.4198 8.42C19.4198 11.87 16.0198 12.78 14.2198 12.78H9.77983C9.62983 12.78 6.07983 12.83 6.07983 15.64C6.07983 18.45 9.62983 18.5 9.77983 18.5H14.7798C14.9787 18.5 15.1695 18.579 15.3101 18.7197C15.4508 18.8603 15.5298 19.0511 15.5298 19.25C15.5298 19.4489 15.4508 19.6397 15.3101 19.7803C15.1695 19.921 14.9787 20 14.7798 20Z" fill="#5B6880"/>
<path d="M6.43994 8.31C5.74308 8.30407 5.06357 8.09202 4.48702 7.70056C3.91048 7.30909 3.4627 6.75573 3.20012 6.11021C2.93753 5.46469 2.87189 4.75589 3.01147 4.07312C3.15104 3.39036 3.48959 2.76418 3.98444 2.2735C4.47929 1.78281 5.10831 1.44958 5.79223 1.31579C6.47616 1.182 7.18438 1.25363 7.82765 1.52167C8.47093 1.78971 9.02048 2.24215 9.40705 2.82199C9.79362 3.40182 9.99992 4.08311 9.99994 4.78C9.99994 5.2461 9.90767 5.70759 9.7284 6.13783C9.54913 6.56808 9.28642 6.95856 8.95545 7.28675C8.62447 7.61494 8.23178 7.87433 7.80003 8.04995C7.36828 8.22558 6.90603 8.31396 6.43994 8.31ZM6.43994 2.75C6.04438 2.75 5.6577 2.86729 5.3288 3.08706C4.9999 3.30682 4.74356 3.61918 4.59218 3.98463C4.44081 4.35008 4.4012 4.75221 4.47837 5.14018C4.55554 5.52814 4.74603 5.8845 5.02573 6.16421C5.30544 6.44391 5.6618 6.6344 6.04976 6.71157C6.43773 6.78874 6.83986 6.74913 7.20531 6.59776C7.57076 6.44638 7.88312 6.19003 8.10288 5.86114C8.32265 5.53224 8.43994 5.14556 8.43994 4.75C8.43994 4.48735 8.38821 4.22728 8.2877 3.98463C8.18719 3.74198 8.03987 3.5215 7.85416 3.33578C7.66844 3.15007 7.44796 3.00275 7.20531 2.90224C6.96266 2.80173 6.70259 2.75 6.43994 2.75Z" fill="#5B6880"/>
<path d="M17.5598 22.75C16.8612 22.752 16.1777 22.5466 15.5959 22.1599C15.0141 21.7733 14.5601 21.2227 14.2914 20.5778C14.0227 19.933 13.9513 19.2229 14.0864 18.5375C14.2215 17.8521 14.5569 17.2221 15.0502 16.7275C15.5435 16.2328 16.1724 15.8956 16.8575 15.7586C17.5425 15.6215 18.2528 15.6909 18.8984 15.9577C19.544 16.2246 20.0959 16.6771 20.4842 17.2578C20.8725 17.8385 21.0798 18.5214 21.0798 19.22C21.0798 20.1545 20.7093 21.0508 20.0494 21.7125C19.3896 22.3743 18.4943 22.7473 17.5598 22.75ZM17.5598 17.19C17.1642 17.19 16.7776 17.3073 16.4487 17.5271C16.1198 17.7468 15.8634 18.0592 15.712 18.4246C15.5607 18.7901 15.5211 19.1922 15.5982 19.5802C15.6754 19.9681 15.8659 20.3245 16.1456 20.6042C16.4253 20.8839 16.7817 21.0744 17.1696 21.1516C17.5576 21.2287 17.9597 21.1891 18.3252 21.0377C18.6906 20.8864 19.003 20.63 19.2227 20.3011C19.4425 19.9722 19.5598 19.5856 19.5598 19.19C19.5598 18.6596 19.3491 18.1508 18.974 17.7758C18.5989 17.4007 18.0902 17.19 17.5598 17.19Z" fill="#5B6880"/>
</svg>
