<svg width="24" height="24" viewBox="0 0 24 24" fill="none" xmlns="http://www.w3.org/2000/svg">
<path d="M11.975 8.5C9.975 8.5 8.275 10.2 8.275 12.2C8.275 14.2 9.875 15.9 11.975 15.9C14.075 15.9 15.675 14.2 15.675 12.2C15.675 10.2 13.975 8.5 11.975 8.5ZM11.975 14.7C10.575 14.7 9.475 13.6 9.475 12.2C9.475 10.8 10.575 9.7 11.975 9.7C13.375 9.7 14.475 10.8 14.475 12.2C14.475 13.6 13.375 14.7 11.975 14.7ZM21.875 11.9C21.675 11.7 18.475 6 11.975 6C5.475 6 2.175 11.7 2.075 11.9C1.975 12.1 1.975 12.3 2.075 12.5C2.275 12.7 5.475 18.4 11.975 18.4C18.475 18.4 21.675 12.7 21.875 12.5C21.975 12.3 21.975 12.1 21.875 11.9ZM11.975 17.2C6.975 17.2 4.075 13.3 3.375 12.2C4.075 11.1 6.975 7.2 11.975 7.2C16.975 7.2 19.875 11.1 20.575 12.2C19.875 13.4 16.975 17.2 11.975 17.2Z" fill="#5B6880"/>
</svg>
