<svg width="24" height="24" viewBox="0 0 24 24" fill="none" xmlns="http://www.w3.org/2000/svg">
<path fill-rule="evenodd" clip-rule="evenodd" d="M14.4697 14.5303C14.7626 14.8232 15.2374 14.8232 15.5303 14.5303L20.5303 9.53033C20.8232 9.23744 20.8232 8.76256 20.5303 8.46967L15.5303 3.46967C15.2374 3.17678 14.7626 3.17678 14.4697 3.46967C14.1768 3.76256 14.1768 4.23744 14.4697 4.53033L18.9393 9L14.4697 13.4697C14.1768 13.7626 14.1768 14.2374 14.4697 14.5303Z" fill="#5B6880"/>
<path fill-rule="evenodd" clip-rule="evenodd" d="M4 20.75C4.41421 20.75 4.75 20.4142 4.75 20V13C4.75 12.138 5.09241 11.3114 5.7019 10.7019C6.3114 10.0924 7.13805 9.75 8 9.75H20C20.4142 9.75 20.75 9.41421 20.75 9C20.75 8.58579 20.4142 8.25 20 8.25H8C6.74022 8.25 5.53204 8.75044 4.64124 9.64124C3.75044 10.532 3.25 11.7402 3.25 13V20C3.25 20.4142 3.58579 20.75 4 20.75Z" fill="#5B6880"/>
</svg>
