<svg width="24" height="24" viewBox="0 0 24 24" fill="none" xmlns="http://www.w3.org/2000/svg">
<g clip-path="url(#clip0_530_2142)">
<path d="M20.3606 5.48305C19.9739 5.44779 19.6319 5.73273 19.5966 6.11945L19.5034 7.14141C17.9228 4.65916 15.1791 3 12 3C8.57992 3 5.56594 4.95195 4.06976 7.88159C3.89314 8.22742 4.03032 8.65095 4.37615 8.82757C4.72205 9.0042 5.14551 8.86705 5.32213 8.52118C6.58836 6.04182 9.1311 4.40625 12 4.40625C14.6148 4.40625 16.9745 5.76789 18.3264 7.90106L17.3239 7.18504C17.0079 6.95937 16.5687 7.03256 16.3431 7.34855C16.1174 7.66457 16.1906 8.10367 16.5066 8.32937L19.5467 10.5007C19.9923 10.8183 20.6068 10.5275 20.6556 9.99233L20.997 6.24714C21.0323 5.86038 20.7474 5.51831 20.3606 5.48305Z" fill="#5B6880"/>
<path d="M19.6238 15.1724C19.2779 14.9958 18.8544 15.133 18.6778 15.4788C17.4116 17.9582 14.8688 19.5937 12 19.5937C9.38515 19.5937 7.02539 18.2321 5.67349 16.0989L6.67604 16.815C6.99206 17.0406 7.43116 16.9674 7.65686 16.6514C7.88253 16.3354 7.80934 15.8963 7.49335 15.6706L4.45322 13.4993C4.01309 13.1849 3.39357 13.467 3.34435 14.0077L3.00295 17.7528C2.96769 18.1396 3.25263 18.4816 3.63931 18.5169C4.02652 18.5521 4.36814 18.2669 4.40336 17.8805L4.49653 16.8585C6.07708 19.3408 8.82082 21 12 21C15.42 21 18.434 19.048 19.9302 16.1184C20.1068 15.7726 19.9696 15.349 19.6238 15.1724Z" fill="#5B6880"/>
</g>
<defs>
<clipPath id="clip0_530_2142">
<rect width="18" height="18" fill="white" transform="translate(3 3)"/>
</clipPath>
</defs>
</svg>
