<svg width="24" height="24" viewBox="0 0 24 24" fill="none" xmlns="http://www.w3.org/2000/svg">
<path fill-rule="evenodd" clip-rule="evenodd" d="M17.2197 7.23013C17.5126 6.92329 17.9874 6.92329 18.2803 7.23013L22.7803 11.9444C23.0732 12.2513 23.0732 12.7487 22.7803 13.0556L18.2803 17.7699C17.9874 18.0767 17.5126 18.0767 17.2197 17.7699C16.9268 17.463 16.9268 16.9655 17.2197 16.6587L21.1893 12.5L17.2197 8.3413C16.9268 8.03446 16.9268 7.53697 17.2197 7.23013Z" fill="#5B6880"/>
<path fill-rule="evenodd" clip-rule="evenodd" d="M6.78033 7.23013C7.07322 7.53697 7.07322 8.03446 6.78033 8.3413L2.81066 12.5L6.78033 16.6587C7.07322 16.9655 7.07322 17.463 6.78033 17.7699C6.48744 18.0767 6.01256 18.0767 5.71967 17.7699L1.21967 13.0556C0.926777 12.7487 0.926777 12.2513 1.21967 11.9444L5.71967 7.23013C6.01256 6.92329 6.48744 6.92329 6.78033 7.23013Z" fill="#5B6880"/>
<path fill-rule="evenodd" clip-rule="evenodd" d="M15.3285 4.03212C15.8116 4.16588 16.0984 4.67902 15.9689 5.17823L9.78076 20.3062C9.6513 20.8054 9.15467 21.1016 8.67151 20.9679C8.18835 20.8341 7.90162 20.321 8.03109 19.8218L14.2192 4.69383C14.3487 4.19461 14.8453 3.89835 15.3285 4.03212Z" fill="#5B6880"/>
</svg>
