<svg width="24" height="24" viewBox="0 0 24 24" fill="none" xmlns="http://www.w3.org/2000/svg">
<path fill-rule="evenodd" clip-rule="evenodd" d="M12.0191 2V2.00011C12.6123 2.00011 13.1612 2.04651 13.6566 2.29385L13.6633 2.29721L13.6633 2.29725C14.2732 2.60956 14.5196 3.10308 14.6339 3.36933C14.6464 3.39841 14.6624 3.4364 14.6754 3.4672C14.683 3.48535 14.6896 3.50101 14.6938 3.51087C14.7102 3.54938 14.7209 3.5731 14.7297 3.59108C14.7429 3.61786 14.7498 3.6276 14.7618 3.64164C14.7755 3.65757 14.8742 3.76716 15.2833 3.93834C15.7082 4.10195 15.843 4.08698 15.8509 4.0861L15.851 4.08609C15.8973 4.08096 15.9173 4.07517 16.1532 3.97422C16.1617 3.97057 16.1703 3.96709 16.179 3.96376C16.5039 3.83897 16.9966 3.69974 17.5998 3.88995C18.1535 4.06455 18.584 4.43151 19.0369 4.88351C19.4961 5.33217 19.8554 5.75492 20.0412 6.29572C20.2749 6.9669 20.0697 7.50201 19.9817 7.73144C19.9791 7.73811 19.9767 7.74453 19.9743 7.75069C19.9707 7.76007 19.967 7.76938 19.963 7.77861C19.9157 7.8889 19.8965 7.93595 19.8848 7.97277C19.8776 7.9955 19.8752 8.00805 19.874 8.03012L19.8739 8.03252C19.8727 8.05187 19.8647 8.20188 20.0347 8.60934C20.1877 8.976 20.2915 9.08031 20.328 9.1125C20.3596 9.13753 20.3795 9.14914 20.4039 9.16176C20.4227 9.17149 20.4441 9.18174 20.482 9.19952L20.4885 9.20259C20.5176 9.21623 20.554 9.23333 20.5947 9.25338C20.9751 9.41437 21.3785 9.67574 21.6638 10.2005C21.941 10.7104 21.9986 11.2754 21.9989 11.9206C22.0088 12.568 21.9527 13.143 21.7064 13.6369C21.389 14.2837 20.8653 14.52 20.6179 14.6258C20.6076 14.6302 20.5979 14.6344 20.5886 14.6383C20.5485 14.6555 20.5183 14.6684 20.4903 14.6809C20.4575 14.6954 20.438 14.7049 20.4243 14.712C20.4088 14.7202 20.3966 14.7274 20.3758 14.7444C20.333 14.7862 20.2174 14.9162 20.0652 15.2804C19.9011 15.6828 19.9176 15.831 19.9198 15.8507L19.9198 15.851C19.9226 15.8761 19.925 15.8843 19.9317 15.9023C19.9373 15.9176 19.9458 15.9384 19.9618 15.9752C19.9661 15.9851 19.9721 15.9988 19.979 16.0146C19.9919 16.0442 20.0081 16.081 20.022 16.1135C20.0236 16.1173 20.0252 16.121 20.0268 16.1248C20.028 16.128 20.0293 16.1311 20.0306 16.1343C20.1662 16.4791 20.3075 16.9828 20.1162 17.5875C19.9418 18.1392 19.5747 18.5694 19.1341 19.0195C18.6772 19.4861 18.2444 19.8418 17.7049 20.0261C17.0996 20.2329 16.5674 20.0985 16.2191 19.9461C16.1107 19.8997 16.0641 19.8809 16.0276 19.8693C16.0048 19.8621 15.9923 19.8597 15.9701 19.8585L15.9651 19.8582C15.9566 19.8576 15.7997 19.8496 15.3988 20.0154C15.2086 20.1008 15.0774 20.1783 14.9928 20.2368C14.9289 20.281 14.8982 20.3097 14.89 20.3176C14.8772 20.335 14.8682 20.3505 14.8564 20.3745C14.8471 20.3934 14.8361 20.4176 14.8201 20.4548C14.81 20.478 14.8022 20.4965 14.7932 20.5177C14.7847 20.5378 14.7751 20.5603 14.7617 20.5915L14.7569 20.6027L14.7568 20.6026C14.597 20.9587 14.3518 21.3795 13.8065 21.6752C13.8028 21.6772 13.799 21.6791 13.7953 21.6811C13.7917 21.683 13.7881 21.6848 13.7844 21.6866C13.2715 21.9427 12.7251 22 11.9995 22C11.3007 22 10.7227 21.9587 10.2034 21.681C9.6291 21.3902 9.39245 20.9492 9.23839 20.5942L9.23722 20.5915C9.21747 20.5455 9.19967 20.5022 9.18562 20.4681C9.18208 20.4595 9.17877 20.4514 9.17574 20.4441C9.1591 20.4038 9.14955 20.3817 9.14165 20.3651C9.13185 20.3444 9.12892 20.3404 9.11915 20.329L9.10831 20.3161C9.10838 20.3162 9.10834 20.3161 9.10819 20.316C9.1032 20.3104 8.98001 20.1734 8.60883 20.019C8.25817 19.8731 8.09147 19.8588 8.04644 19.858C7.99506 19.8657 7.9512 19.8817 7.74948 19.9584C7.43822 20.0778 6.91264 20.2375 6.294 20.0261C5.75565 19.8422 5.32365 19.4876 4.86785 19.0225C4.41784 18.5728 4.05603 18.1356 3.88271 17.5875C3.69473 16.9931 3.81509 16.4906 3.97693 16.1135C3.99089 16.081 4.00701 16.0442 4.01995 16.0146C4.02686 15.9988 4.03287 15.9851 4.03715 15.9752C4.0531 15.9384 4.06159 15.9176 4.06724 15.9023C4.07203 15.8893 4.07463 15.8815 4.07676 15.8687C4.0781 15.8262 4.07653 15.7727 4.06408 15.6993C4.04871 15.6087 4.01426 15.4734 3.9347 15.2828L3.92963 15.2706L3.92974 15.2706C3.7736 14.8767 3.65649 14.7728 3.63404 14.7535C3.62717 14.7477 3.62041 14.7417 3.61377 14.7355C3.60562 14.728 3.60178 14.7254 3.60064 14.7246C3.59932 14.7237 3.59492 14.7207 3.58311 14.7146C3.56969 14.7076 3.54975 14.6982 3.51472 14.6829C3.4917 14.6729 3.47019 14.6638 3.44407 14.6527C3.42596 14.645 3.40562 14.6364 3.38101 14.6258C3.37208 14.622 3.36322 14.618 3.35445 14.6138C3.34723 14.6104 3.3397 14.6068 3.33187 14.6031C3.10203 14.4944 2.61392 14.2636 2.2974 13.6465C2.29364 13.6392 2.29001 13.6318 2.2865 13.6243C2.05774 13.1389 2 12.5724 2 11.9264V11.9147L2.00009 11.9147C2.01001 11.291 2.05494 10.7184 2.33308 10.2043C2.62747 9.64985 3.05038 9.39929 3.43823 9.24321C3.47058 9.22941 3.50496 9.21505 3.53285 9.2034C3.54778 9.19717 3.56085 9.19171 3.57077 9.18752C3.60792 9.17184 3.62911 9.16235 3.64502 9.15455C3.66154 9.14644 3.67583 9.13879 3.69961 9.12079C3.74844 9.07253 3.85374 8.94958 4.00602 8.60335C4.15046 8.25575 4.16439 8.0974 4.16476 8.0481C4.15712 7.99659 4.14113 7.95302 4.06394 7.75069L4.05994 7.74022L4.06002 7.74019C4.05626 7.72987 4.05217 7.71881 4.04782 7.70705C3.96085 7.47191 3.76911 6.95355 3.99608 6.28874L3.99633 6.28799C4.18235 5.74501 4.54318 5.32108 5.00442 4.87073C5.45513 4.43067 5.88598 4.06417 6.43846 3.88995C7.04166 3.69974 7.53438 3.83897 7.85931 3.96376C7.86796 3.96709 7.87655 3.97057 7.88508 3.97422C7.91957 3.98898 7.95813 4.00591 7.98971 4.01977C8.00571 4.02679 8.01992 4.03303 8.0309 4.0378C8.0713 4.05535 8.09682 4.06584 8.11672 4.07317C8.13518 4.07998 8.14339 4.08201 8.14557 4.08251C8.14616 4.08265 8.14638 4.0827 8.14648 4.08272C8.14661 4.08274 8.14658 4.08271 8.14678 4.08272C8.16031 4.08348 8.17383 4.0846 8.1873 4.08609L8.18755 4.08612C8.2073 4.08832 8.35504 4.10474 8.74648 3.94187C9.16276 3.76867 9.2627 3.65768 9.27646 3.64164C9.28235 3.63478 9.28836 3.62803 9.2945 3.6214L9.29545 3.62023C9.29625 3.61902 9.30025 3.6128 9.30852 3.59599C9.31768 3.57738 9.32842 3.55346 9.346 3.51281C9.34901 3.50585 9.35225 3.49831 9.35571 3.49027C9.36989 3.45737 9.38761 3.41621 9.40696 3.37312C9.51758 3.11616 9.75539 2.61635 10.3816 2.30367C10.8744 2.05766 11.422 2.01028 12.0064 2.00022L12.0191 2ZM12.0255 3.47286C11.4738 3.48271 11.2164 3.53346 11.0412 3.62094C10.9538 3.66461 10.9032 3.71389 10.8676 3.76023C10.8277 3.81217 10.7976 3.87159 10.76 3.95929L10.7547 3.97145L10.7546 3.9714C10.7475 3.98723 10.7392 4.0071 10.7295 4.03024C10.674 4.16337 10.5731 4.40493 10.3879 4.60974C10.1657 4.86451 9.83479 5.08453 9.31373 5.30133C8.77332 5.52618 8.37491 5.58483 8.04347 5.55184C7.75523 5.53118 7.50972 5.42032 7.36447 5.35473C7.34698 5.34683 7.33094 5.33959 7.31646 5.33324C7.2238 5.29835 7.15367 5.27949 7.09036 5.27247C7.02991 5.26576 6.96425 5.26858 6.88258 5.29433C6.6878 5.35576 6.46972 5.4998 6.03552 5.92376C5.61209 6.33718 5.46157 6.56124 5.3919 6.76436C5.35972 6.8588 5.36027 6.92625 5.36842 6.98195C5.37863 7.0517 5.39974 7.10967 5.44371 7.23039L5.4441 7.23147C5.45002 7.24695 5.45608 7.26263 5.46223 7.27856C5.52791 7.44864 5.60437 7.64659 5.63345 7.90796C5.63486 7.92062 5.63594 7.93332 5.63669 7.94603C5.65521 8.26051 5.5882 8.64069 5.36492 9.17578L5.35992 9.18776L5.35982 9.18771C5.12171 9.7312 4.90083 10.0183 4.68295 10.2191C4.67156 10.2296 4.65983 10.2398 4.64779 10.2495C4.42699 10.4287 4.23689 10.507 4.08283 10.5704C4.05799 10.5807 4.03409 10.5905 4.01114 10.6003L3.99453 10.6072C3.88203 10.6521 3.81621 10.6894 3.76925 10.7265C3.72749 10.7596 3.68223 10.807 3.6354 10.8956L3.63136 10.9032L3.63132 10.9032C3.53797 11.0749 3.48482 11.3247 3.47485 11.9322C3.47524 12.5074 3.53291 12.8033 3.61569 12.9858C3.66233 13.0731 3.71229 13.1225 3.75867 13.1576C3.81427 13.1998 3.87105 13.2282 3.97486 13.2776C3.98873 13.2835 4.00306 13.2895 4.0178 13.2957C4.17963 13.3633 4.392 13.4521 4.60378 13.6439C4.85197 13.8596 5.08466 14.1846 5.29864 14.7224C5.53642 15.2946 5.56417 15.6885 5.54833 15.9731C5.54758 15.9867 5.54645 16.0001 5.54496 16.0136C5.51493 16.2834 5.42884 16.4767 5.36223 16.6262C5.35175 16.6497 5.34175 16.6721 5.33253 16.6936C5.29281 16.7862 5.27213 16.8607 5.26501 16.9267C5.25833 16.9886 5.26184 17.0578 5.28909 17.144C5.35138 17.341 5.49968 17.5707 5.91359 17.984L5.91945 17.9898L5.91941 17.9899C6.32776 18.4069 6.56366 18.5617 6.77139 18.6327C6.89891 18.6763 7.02149 18.6601 7.22171 18.5832L7.22391 18.5824C7.24105 18.5759 7.25845 18.5692 7.27615 18.5623C7.44647 18.4967 7.64471 18.4204 7.90645 18.3914C7.91823 18.3901 7.93005 18.389 7.94188 18.3883C8.24802 18.3692 8.63954 18.4363 9.17608 18.6595C9.73129 18.8905 10.0635 19.1589 10.2443 19.3768C10.4212 19.5852 10.5082 19.8019 10.5647 19.9428C10.5747 19.9677 10.5838 19.9903 10.5922 20.01C10.6476 20.1374 10.6861 20.2052 10.7235 20.2524C10.7541 20.2911 10.7947 20.3297 10.8741 20.3694C10.8815 20.3731 10.8888 20.3769 10.8961 20.3808C11.0623 20.4709 11.3069 20.5273 11.9995 20.5273C12.6568 20.5273 12.9195 20.4691 13.1133 20.3751C13.1911 20.3313 13.2382 20.2869 13.2746 20.2415C13.3165 20.1892 13.3573 20.1193 13.4086 20.0056C13.4165 19.9871 13.4245 19.9681 13.4326 19.9487C13.4999 19.7886 13.5799 19.5984 13.74 19.3948L13.7492 19.3835C13.9375 19.1537 14.2865 18.8986 14.8057 18.6669L14.8229 18.6595C15.3579 18.4369 15.7487 18.3696 16.0545 18.3881C16.3648 18.4058 16.5879 18.5015 16.7818 18.5846C16.7889 18.5876 16.796 18.5907 16.803 18.5937L16.8095 18.5965L16.8095 18.5965C16.9528 18.6595 17.0877 18.6805 17.2275 18.6327C17.4353 18.5617 17.6712 18.4069 18.0795 17.9899C18.5041 17.5563 18.6483 17.3385 18.7098 17.144C18.735 17.0643 18.7384 16.9975 18.7309 16.9322C18.7229 16.8633 18.7015 16.7853 18.6619 16.6832C18.654 16.6649 18.6455 16.6459 18.6367 16.6262C18.5701 16.4767 18.484 16.2834 18.454 16.0136C18.4167 15.6788 18.4735 15.2773 18.7008 14.7213L18.7028 14.7163C18.9304 14.1709 19.1619 13.8588 19.3848 13.6534C19.3915 13.6472 19.3982 13.6412 19.4051 13.6354C19.6246 13.4475 19.8143 13.3668 19.9964 13.2894C20.01 13.2837 20.0235 13.2779 20.037 13.2722C20.1288 13.2328 20.1895 13.2027 20.2431 13.162C20.2903 13.1261 20.3396 13.0756 20.3824 12.988L20.3856 12.9815L20.3856 12.9815C20.4715 12.81 20.5335 12.524 20.5242 11.9381L20.524 11.9264H20.5241C20.5241 11.3369 20.4632 11.0791 20.3676 10.9032C20.2855 10.7521 20.189 10.6794 20.0062 10.6039C19.99 10.5972 19.974 10.5899 19.9583 10.5821C19.9398 10.5728 19.9176 10.5626 19.8923 10.5509C19.7741 10.4961 19.5885 10.4102 19.3905 10.2495L19.3756 10.2371C19.1279 10.0251 18.9014 9.72237 18.6733 9.17578C18.4501 8.64069 18.3831 8.26051 18.4016 7.94603C18.4193 7.6361 18.5151 7.41326 18.5983 7.21963C18.5994 7.21721 18.6004 7.21479 18.6014 7.21238C18.6396 7.11198 18.6602 7.05265 18.6698 6.98686C18.6782 6.92964 18.6779 6.86434 18.6479 6.77871L18.6465 6.77452C18.5769 6.57132 18.4264 6.34724 18.0028 5.93357L17.9968 5.92779L17.9969 5.92776C17.5659 5.49742 17.3481 5.35501 17.1557 5.29433C17.074 5.26858 17.0084 5.26576 16.9479 5.27247C16.8844 5.27951 16.814 5.29849 16.7208 5.33361C16.709 5.3387 16.6969 5.34394 16.6846 5.3493C16.5138 5.42333 16.2936 5.51879 16.0138 5.54983C15.6673 5.58828 15.2726 5.51377 14.7416 5.30816L14.7245 5.30133C14.1969 5.08179 13.8642 4.85896 13.642 4.60009C13.4595 4.38746 13.3695 4.16959 13.3057 4.01506C13.2961 3.99167 13.287 3.96973 13.2783 3.94947C13.216 3.80437 13.1483 3.68973 12.9936 3.6094C12.8211 3.52428 12.5649 3.47325 12.0255 3.47286ZM7.8109 12.0148C7.8109 9.69488 9.70304 7.80273 12.0191 7.80273C14.3352 7.80273 16.2274 9.69488 16.2274 12.0148C16.2274 14.3262 14.3339 16.217 12.0191 16.217C9.7044 16.217 7.8109 14.3262 7.8109 12.0148ZM12.0191 9.27547C10.5203 9.27547 9.28575 10.5055 9.28575 12.0148C9.28575 13.5128 10.5189 14.7443 12.0191 14.7443C13.5193 14.7443 14.7525 13.5128 14.7525 12.0148C14.7525 10.5055 13.518 9.27547 12.0191 9.27547Z" fill="#5B6880"/>
</svg>
