<svg width="16" height="16" viewBox="0 0 16 16" fill="none" xmlns="http://www.w3.org/2000/svg">
<g id="Style">
<g id="05-Paint-brush">
<path id="Vector" d="M13.7298 2.2655C13.607 2.14044 13.4499 2.05457 13.2784 2.01874C13.1068 1.9829 12.9285 1.9987 12.7659 2.06415C11.0374 2.77898 9.46125 3.81715 8.12202 5.12294C7.03639 6.23352 6.13536 7.51057 5.45307 8.90573C5.30417 8.87127 5.15181 8.85402 4.99897 8.85432C4.43087 8.85432 3.88604 9.07999 3.48434 9.4817C3.08263 9.8834 2.85696 10.4282 2.85696 10.9963C2.88041 11.2535 2.83528 11.5123 2.72616 11.7463C2.61704 11.9804 2.44783 12.1813 2.23577 12.3287C2.13509 12.3788 2.05815 12.4665 2.02157 12.5728C2.00378 12.6268 1.99688 12.6837 2.00129 12.7404C2.00571 12.797 2.02134 12.8522 2.04728 12.9027C2.26294 13.2592 2.57236 13.5496 2.94178 13.7422C3.3112 13.9349 3.72642 14.0224 4.14216 13.9951C4.53968 14.0089 4.93578 13.9407 5.30583 13.7949C5.67588 13.6491 6.01198 13.4287 6.29324 13.1474C6.57449 12.8661 6.79489 12.53 6.94073 12.16C7.08657 11.7899 7.15473 11.3938 7.14098 10.9963C7.14128 10.8435 7.12403 10.6911 7.08957 10.5422C8.48472 9.85993 9.76178 8.95891 10.8724 7.87328C12.1781 6.53404 13.2163 4.95788 13.9311 3.2294C13.9966 3.06682 14.0124 2.88849 13.9766 2.71693C13.9407 2.54538 13.8549 2.38828 13.7298 2.2655ZM4.14216 13.1383C3.74157 13.1565 3.34825 13.0269 3.03689 12.7742C3.26353 12.5386 3.4403 12.2598 3.55661 11.9543C3.67292 11.6488 3.72637 11.323 3.71376 10.9963C3.71376 10.6555 3.84917 10.3286 4.09019 10.0876C4.33121 9.84653 4.65811 9.71112 4.99897 9.71112C5.33983 9.71112 5.66672 9.84653 5.90775 10.0876C6.14877 10.3286 6.28417 10.6555 6.28417 10.9963C6.29695 11.281 6.2503 11.5653 6.14717 11.8309C6.04405 12.0966 5.88672 12.3379 5.68521 12.5394C5.4837 12.7409 5.24242 12.8982 4.97676 13.0013C4.71109 13.1045 4.42686 13.1511 4.14216 13.1383ZM6.23705 9.25273C6.37842 8.9657 6.56692 8.62298 6.78969 8.25027L7.74502 9.20561C7.37231 9.42838 7.02959 9.63401 6.74256 9.75825C6.60075 9.56501 6.43029 9.39455 6.23705 9.25273ZM10.264 7.26495C9.71632 7.8084 9.11975 8.30028 8.48188 8.73437L7.26093 7.51342C7.69502 6.87554 8.1869 6.27898 8.73035 5.73127C9.98572 4.50565 11.4628 3.5301 13.0829 2.85669C13.0901 2.85325 13.0982 2.85213 13.106 2.85348C13.1139 2.85483 13.1212 2.85858 13.1268 2.86422C13.1324 2.86986 13.1362 2.8771 13.1375 2.88496C13.1389 2.89282 13.1378 2.9009 13.1343 2.9081C12.4627 4.52935 11.4886 6.00794 10.264 7.26495Z" fill="#5B6880"/>
</g>
</g>
</svg>
