<svg width="24" height="24" viewBox="0 0 24 24" fill="none" xmlns="http://www.w3.org/2000/svg">
<path fill-rule="evenodd" clip-rule="evenodd" d="M4.75 20C4.75 20.3315 4.8817 20.6495 5.11612 20.8839C5.35054 21.1183 5.66848 21.25 6 21.25L18 21.25C18.3315 21.25 18.6495 21.1183 18.8839 20.8839C19.1183 20.6495 19.25 20.3315 19.25 20L19.25 4C19.25 3.66848 19.1183 3.35054 18.8839 3.11612C18.6495 2.8817 18.3315 2.75 18 2.75L6 2.75C5.66848 2.75 5.35054 2.8817 5.11612 3.11612C4.8817 3.35054 4.75 3.66848 4.75 4L4.75 20ZM4.05546 21.9445C3.53973 21.4288 3.25 20.7293 3.25 20L3.25 4C3.25 3.27065 3.53973 2.57118 4.05546 2.05546C4.57118 1.53973 5.27065 1.25 6 1.25L18 1.25C18.7293 1.25 19.4288 1.53973 19.9445 2.05546C20.4603 2.57118 20.75 3.27065 20.75 4L20.75 20C20.75 20.7293 20.4603 21.4288 19.9445 21.9445C19.4288 22.4603 18.7293 22.75 18 22.75L6 22.75C5.27065 22.75 4.57118 22.4603 4.05546 21.9445Z" fill="#5B6880"/>
<path fill-rule="evenodd" clip-rule="evenodd" d="M9.25 19.0535C9.25 18.6393 9.58579 18.3035 10 18.3035H14C14.4142 18.3035 14.75 18.6393 14.75 19.0535C14.75 19.4677 14.4142 19.8035 14 19.8035H10C9.58579 19.8035 9.25 19.4677 9.25 19.0535Z" fill="#5B6880"/>
</svg>
