<svg width="24" height="24" viewBox="0 0 24 24" fill="none" xmlns="http://www.w3.org/2000/svg">
<path fill-rule="evenodd" clip-rule="evenodd" d="M9.53033 14.5303C9.23744 14.8232 8.76256 14.8232 8.46967 14.5303L3.46967 9.53033C3.17678 9.23744 3.17678 8.76256 3.46967 8.46967L8.46967 3.46967C8.76256 3.17678 9.23744 3.17678 9.53033 3.46967C9.82322 3.76256 9.82322 4.23744 9.53033 4.53033L5.06066 9L9.53033 13.4697C9.82322 13.7626 9.82322 14.2374 9.53033 14.5303Z" fill="#5B6880"/>
<path fill-rule="evenodd" clip-rule="evenodd" d="M20 20.75C19.5858 20.75 19.25 20.4142 19.25 20V13C19.25 12.138 18.9076 11.3114 18.2981 10.7019C17.6886 10.0924 16.862 9.75 16 9.75H4C3.58579 9.75 3.25 9.41421 3.25 9C3.25 8.58579 3.58579 8.25 4 8.25H16C17.2598 8.25 18.468 8.75044 19.3588 9.64124C20.2496 10.532 20.75 11.7402 20.75 13V20C20.75 20.4142 20.4142 20.75 20 20.75Z" fill="#5B6880"/>
</svg>
