<svg width="24" height="24" viewBox="0 0 24 24" fill="none" xmlns="http://www.w3.org/2000/svg">
<path d="M12.0001 6.66649C12.1842 6.66649 12.3334 6.81566 12.3334 6.99969C12.3334 7.18371 12.1842 7.33289 12.0001 7.33289C11.816 7.33289 11.6667 7.18371 11.6667 6.99969C11.6667 6.81566 11.816 6.66649 12.0001 6.66649" stroke="#5B6880" stroke-width="1.5" stroke-linecap="round" stroke-linejoin="round"/>
<path d="M12.0001 11.6665C12.1842 11.6665 12.3334 11.8157 12.3334 11.9997C12.3334 12.1837 12.1842 12.3329 12.0001 12.3329C11.816 12.3329 11.6667 12.1837 11.6667 11.9997C11.6667 11.8157 11.816 11.6665 12.0001 11.6665" stroke="#5B6880" stroke-width="1.5" stroke-linecap="round" stroke-linejoin="round"/>
<path d="M12.0001 16.666C12.1842 16.666 12.3334 16.8152 12.3334 16.9992C12.3334 17.1832 12.1842 17.3324 12.0001 17.3324C11.816 17.3324 11.6667 17.1832 11.6667 16.9992C11.6667 16.8152 11.816 16.666 12.0001 16.666" stroke="#5B6880" stroke-width="1.5" stroke-linecap="round" stroke-linejoin="round"/>
</svg>
