<svg width="41" height="41" viewBox="0 0 41 41" fill="none" xmlns="http://www.w3.org/2000/svg">
<path fill-rule="evenodd" clip-rule="evenodd" d="M20.0896 6.32837C12.4923 6.32837 6.33337 12.4873 6.33337 20.0846C6.33337 27.682 12.4923 33.8409 20.0896 33.8409C27.687 33.8409 33.8459 27.682 33.8459 20.0846C33.8459 12.4873 27.687 6.32837 20.0896 6.32837ZM3.83337 20.0846C3.83337 11.1065 11.1115 3.82837 20.0896 3.82837C29.0677 3.82837 36.3459 11.1065 36.3459 20.0846C36.3459 29.0627 29.0677 36.3409 20.0896 36.3409C11.1115 36.3409 3.83337 29.0627 3.83337 20.0846Z" fill="#343A40"/>
<path fill-rule="evenodd" clip-rule="evenodd" d="M20.5 12.1617C21.0388 12.1617 21.4755 12.5984 21.4755 13.1372V27.8528C21.4755 28.3916 21.0388 28.8284 20.5 28.8284C19.9613 28.8284 19.5245 28.3916 19.5245 27.8528V13.1372C19.5245 12.5984 19.9613 12.1617 20.5 12.1617Z" fill="#343A40"/>
<path fill-rule="evenodd" clip-rule="evenodd" d="M28.8334 20.495C28.8334 21.0338 28.3966 21.4705 27.8578 21.4705H13.1422C12.6034 21.4705 12.1667 21.0338 12.1667 20.495C12.1667 19.9563 12.6034 19.5195 13.1422 19.5195H27.8578C28.3966 19.5195 28.8334 19.9563 28.8334 20.495Z" fill="#343A40"/>
</svg>
