<svg width="24" height="24" viewBox="0 0 24 24" fill="none" xmlns="http://www.w3.org/2000/svg">
<path d="M6 4.9635V3.5C6 3.10218 6.15804 2.72064 6.43934 2.43934C6.72064 2.15804 7.10218 2 7.5 2H20.5C20.8978 2 21.2794 2.15804 21.5607 2.43934C21.842 2.72064 22 3.10218 22 3.5V16.5C22 16.8978 21.842 17.2794 21.5607 17.5607C21.2794 17.842 20.8978 18 20.5 18H19.0085" stroke="#F8F8F8" stroke-width="2"/>
<path d="M17.5 5H3.5C2.67157 5 2 5.67157 2 6.5V20.5C2 21.3284 2.67157 22 3.5 22H17.5C18.3284 22 19 21.3284 19 20.5V6.5C19 5.67157 18.3284 5 17.5 5Z" stroke="#F8F8F8" stroke-width="2" stroke-linejoin="round"/>
<path d="M9.21996 11.5546L11.866 8.79961C12.5915 8.07411 13.7845 8.08961 14.53 8.83561C15.2755 9.58111 15.2915 10.7741 14.566 11.4996L13.611 12.5111M6.73296 14.3731C6.47796 14.6281 5.95046 15.1381 5.95046 15.1381C5.22446 15.8636 5.20446 17.1571 5.95046 17.9031C6.69546 18.6481 7.88846 18.6646 8.61446 17.9386L11.1965 15.5946" stroke="#F8F8F8" stroke-width="2" stroke-linecap="round" stroke-linejoin="round"/>
<path d="M9.33209 14.164C8.99996 13.834 8.799 13.3946 8.76659 12.9275C8.74744 12.6655 8.78486 12.4024 8.8763 12.1561C8.96775 11.9098 9.11108 11.686 9.29659 11.5M11.1611 12.9305C11.9066 13.676 11.9226 14.869 11.1971 15.595" stroke="#F8F8F8" stroke-width="2" stroke-linecap="round" stroke-linejoin="round"/>
</svg>
