<svg width="24" height="24" viewBox="0 0 24 24" fill="none" xmlns="http://www.w3.org/2000/svg">
<path fill-rule="evenodd" clip-rule="evenodd" d="M7.9501 3.75003C7.79097 3.75003 7.63836 3.81324 7.52583 3.92577C7.41331 4.03829 7.3501 4.1909 7.3501 4.35003V5.66718H5.8501V4.35003C5.8501 3.79308 6.07135 3.25893 6.46517 2.86511C6.859 2.47128 7.39314 2.25003 7.9501 2.25003H19.6501C20.2071 2.25003 20.7412 2.47128 21.135 2.86511C21.5288 3.25893 21.7501 3.79307 21.7501 4.35003V16.05C21.7501 16.607 21.5288 17.1411 21.135 17.535C20.7412 17.9288 20.2071 18.15 19.6501 18.15H18.3077V16.65H19.6501C19.8092 16.65 19.9618 16.5868 20.0744 16.4743C20.1869 16.3618 20.2501 16.2092 20.2501 16.05V4.35003C20.2501 4.1909 20.1869 4.03829 20.0744 3.92577C19.9618 3.81324 19.8092 3.75003 19.6501 3.75003H7.9501Z" fill="#5B6880"/>
<path fill-rule="evenodd" clip-rule="evenodd" d="M4.35 6.45004C4.01863 6.45004 3.75 6.71867 3.75 7.05004V19.65C3.75 19.9814 4.01863 20.25 4.35 20.25H16.95C17.2814 20.25 17.55 19.9814 17.55 19.65V7.05004C17.55 6.71867 17.2814 6.45004 16.95 6.45004H4.35ZM2.25 7.05004C2.25 5.89024 3.1902 4.95004 4.35 4.95004H16.95C18.1098 4.95004 19.05 5.89024 19.05 7.05004V19.65C19.05 20.8098 18.1098 21.75 16.95 21.75H4.35C3.1902 21.75 2.25 20.8098 2.25 19.65V7.05004Z" fill="#5B6880"/>
<path fill-rule="evenodd" clip-rule="evenodd" d="M12.4142 9.64582L10.0389 12.119C9.75197 12.4178 9.27719 12.4273 8.97845 12.1404C8.67971 11.8535 8.67013 11.3787 8.95705 11.08L11.3384 8.60048L11.349 8.58967C12.308 7.63072 13.8567 7.67106 14.8073 8.62207M14.8073 8.62207C15.7547 9.56961 15.7986 11.1122 14.848 12.072L13.9952 12.9752C13.7109 13.2764 13.2362 13.2901 12.935 13.0057C12.6338 12.7213 12.6202 12.2467 12.9045 11.9455L13.764 11.0351C13.769 11.0299 13.774 11.0247 13.779 11.0197C14.1257 10.673 14.1383 10.0744 13.7466 9.68273C13.357 9.29282 12.7618 9.30334 12.4142 9.64582M7.79 13.6058C8.0829 13.8987 8.0829 14.3736 7.79 14.6665C7.67123 14.7852 7.49182 14.9606 7.34459 15.1039C7.27044 15.1761 7.20355 15.241 7.15519 15.2879L7.08227 15.3585C6.72074 15.7243 6.71331 16.4104 7.08575 16.7828C7.47693 17.174 8.07558 17.1619 8.42269 16.8148C8.43123 16.8062 8.43997 16.7979 8.4489 16.7898L10.7727 14.6802C11.0794 14.4018 11.5537 14.4247 11.8321 14.7314C12.1105 15.0381 12.0876 15.5124 11.7809 15.7908L9.46932 17.8893C8.50863 18.8347 6.9703 18.7887 6.02509 17.8435C5.05598 16.8744 5.08358 15.2352 6.02528 14.2941L6.03404 14.2854L6.11119 14.2108C6.15902 14.1645 6.22515 14.1003 6.29838 14.029C6.4459 13.8854 6.61861 13.7165 6.72934 13.6058C7.02224 13.3129 7.49711 13.3129 7.79 13.6058Z" fill="#5B6880"/>
<path fill-rule="evenodd" clip-rule="evenodd" d="M10.0959 11.0189C10.3892 11.3114 10.3899 11.7863 10.0974 12.0796C10.0064 12.1709 9.93606 12.2807 9.89119 12.4015C9.84632 12.5224 9.82796 12.6515 9.83735 12.7801L9.83756 12.7829L9.83755 12.7829C9.85413 13.0219 9.95696 13.2467 10.1269 13.4156C10.4208 13.7075 10.4223 14.1824 10.1303 14.4762C9.83839 14.7701 9.36352 14.7716 9.06968 14.4797C8.64212 14.0548 8.38329 13.4893 8.34124 12.8881C8.3164 12.5454 8.36542 12.2015 8.48498 11.8795C8.60471 11.557 8.79238 11.264 9.03526 11.0204C9.32773 10.7271 9.80261 10.7265 10.0959 11.0189ZM10.7141 12.3071C11.007 12.0142 11.4818 12.0142 11.7747 12.3071C12.7251 13.2575 12.7662 14.8061 11.8073 15.7657C11.5145 16.0587 11.0396 16.0588 10.7467 15.766C10.4537 15.4732 10.4535 14.9984 10.7463 14.7054C11.0933 14.3581 11.1056 13.7593 10.7141 13.3678C10.4212 13.0749 10.4212 12.6 10.7141 12.3071Z" fill="#5B6880"/>
</svg>
