<svg width="20" height="20" viewBox="0 0 20 20" fill="none" xmlns="http://www.w3.org/2000/svg">
<g id="Group">
<path id="Vector (Stroke)" fill-rule="evenodd" clip-rule="evenodd" d="M5.94998 1.75C5.79085 1.75 5.63823 1.81321 5.52571 1.92574C5.41319 2.03826 5.34998 2.19087 5.34998 2.35V3.66715H3.84998V2.35C3.84998 1.79305 4.07122 1.2589 4.46505 0.865076C4.85888 0.471249 5.39302 0.25 5.94998 0.25H17.65C18.2069 0.25 18.7411 0.47125 19.1349 0.865076C19.5287 1.2589 19.75 1.79304 19.75 2.35V14.05C19.75 14.607 19.5287 15.1411 19.1349 15.5349C18.7411 15.9287 18.2069 16.15 17.65 16.15H16.3076V14.65H17.65C17.8091 14.65 17.9617 14.5868 18.0742 14.4743C18.1868 14.3617 18.25 14.2091 18.25 14.05V2.35C18.25 2.19087 18.1868 2.03826 18.0742 1.92574C17.9617 1.81321 17.8091 1.75 17.65 1.75H5.94998Z" fill="#F8F9FA"/>
<path id="Vector (Stroke)_2" fill-rule="evenodd" clip-rule="evenodd" d="M2.35 4.44995C2.01863 4.44995 1.75 4.71858 1.75 5.04995V17.65C1.75 17.9813 2.01863 18.25 2.35 18.25H14.95C15.2814 18.25 15.55 17.9813 15.55 17.65V5.04995C15.55 4.71858 15.2814 4.44995 14.95 4.44995H2.35ZM0.25 5.04995C0.25 3.89015 1.1902 2.94995 2.35 2.94995H14.95C16.1098 2.94995 17.05 3.89015 17.05 5.04995V17.65C17.05 18.8097 16.1098 19.75 14.95 19.75H2.35C1.1902 19.75 0.25 18.8097 0.25 17.65V5.04995Z" fill="#F8F9FA"/>
<path id="Path (Stroke)" fill-rule="evenodd" clip-rule="evenodd" d="M8.5 7.25C8.91421 7.25 9.25 7.58579 9.25 8V15C9.25 15.4142 8.91421 15.75 8.5 15.75C8.08579 15.75 7.75 15.4142 7.75 15V8C7.75 7.58579 8.08579 7.25 8.5 7.25Z" fill="#F8F9FA"/>
<path id="Path (Stroke)_2" fill-rule="evenodd" clip-rule="evenodd" d="M4.25 11.5C4.25 11.0858 4.58579 10.75 5 10.75H12C12.4142 10.75 12.75 11.0858 12.75 11.5C12.75 11.9142 12.4142 12.25 12 12.25H5C4.58579 12.25 4.25 11.9142 4.25 11.5Z" fill="#F8F9FA"/>
</g>
</svg>
