<svg width="24" height="24" viewBox="0 0 24 24" fill="none" xmlns="http://www.w3.org/2000/svg">
<path fill-rule="evenodd" clip-rule="evenodd" d="M7.9501 3.75003C7.79097 3.75003 7.63836 3.81324 7.52583 3.92577C7.41331 4.03829 7.3501 4.1909 7.3501 4.35003V5.66718H5.8501V4.35003C5.8501 3.79308 6.07135 3.25893 6.46517 2.86511C6.859 2.47128 7.39314 2.25003 7.9501 2.25003H19.6501C20.2071 2.25003 20.7412 2.47128 21.135 2.86511C21.5288 3.25893 21.7501 3.79307 21.7501 4.35003V16.05C21.7501 16.607 21.5288 17.1411 21.135 17.535C20.7412 17.9288 20.2071 18.15 19.6501 18.15H18.3077V16.65H19.6501C19.8092 16.65 19.9618 16.5868 20.0744 16.4743C20.1869 16.3618 20.2501 16.2092 20.2501 16.05V4.35003C20.2501 4.1909 20.1869 4.03829 20.0744 3.92577C19.9618 3.81324 19.8092 3.75003 19.6501 3.75003H7.9501Z" fill="#5B6880"/>
<path fill-rule="evenodd" clip-rule="evenodd" d="M4.35 6.45004C4.01863 6.45004 3.75 6.71867 3.75 7.05004V19.65C3.75 19.9814 4.01863 20.25 4.35 20.25H16.95C17.2814 20.25 17.55 19.9814 17.55 19.65V7.05004C17.55 6.71867 17.2814 6.45004 16.95 6.45004H4.35ZM2.25 7.05004C2.25 5.89024 3.1902 4.95004 4.35 4.95004H16.95C18.1098 4.95004 19.05 5.89024 19.05 7.05004V19.65C19.05 20.8098 18.1098 21.75 16.95 21.75H4.35C3.1902 21.75 2.25 20.8098 2.25 19.65V7.05004Z" fill="#5B6880"/>
<path fill-rule="evenodd" clip-rule="evenodd" d="M10.5 9.25C10.9142 9.25 11.25 9.58579 11.25 10V17C11.25 17.4142 10.9142 17.75 10.5 17.75C10.0858 17.75 9.75 17.4142 9.75 17V10C9.75 9.58579 10.0858 9.25 10.5 9.25Z" fill="#5B6880"/>
<path fill-rule="evenodd" clip-rule="evenodd" d="M6.25 13.5C6.25 13.0858 6.58579 12.75 7 12.75H14C14.4142 12.75 14.75 13.0858 14.75 13.5C14.75 13.9142 14.4142 14.25 14 14.25H7C6.58579 14.25 6.25 13.9142 6.25 13.5Z" fill="#5B6880"/>
</svg>
