<?xml version="1.0" encoding="utf-8"?>
<!-- Generator: Adobe Illustrator 26.0.1, SVG Export Plug-In . SVG Version: 6.00 Build 0)  -->
<svg version="1.1" id="Layer_1" xmlns="http://www.w3.org/2000/svg" xmlns:xlink="http://www.w3.org/1999/xlink" x="0px" y="0px"
	 viewBox="0 0 24 24" style="enable-background:new 0 0 24 24;" xml:space="preserve">
<path fill="#5b6880" d="M20.7,3.1c-1.3-1.4-3.5-1.4-4.9,0l-8.5,8.7C7.2,12,7,12.2,7,12.5l-0.4,3.6c-0.1,0.4,0,0.7,0.3,1
	c0.3,0.3,0.6,0.4,0.9,0.4h0.1l3.6-0.4c0.2-0.1,0.5-0.2,0.7-0.4L20.7,8C22.1,6.7,22.1,4.5,20.7,3.1z M11.3,15.7L8,16l0.4-3.2l0.2-0.3l2.9,3
	L11.3,15.7z M12.6,14.4l-2.9-2.9L14,7.1l3,2.8L12.6,14.4z M19.8,7l-1.9,1.9L15,6l1.9-1.9c0.8-0.8,2.1-0.8,2.9,0C20.6,4.9,20.6,6.2,19.8,7z
	 M20,12.6c-0.4,0-0.7,0.3-0.7,0.7v5.2c0,1.1-0.9,2-2,2H5.7c-1.1,0-2-0.9-2-2V6.7c0-1.1,0.9-2,2-2h5.5c0.4,0,0.7-0.3,0.7-0.7
	s-0.3-0.7-0.7-0.7H5.7c-1.9,0-3.5,1.6-3.5,3.5v11.6c0,1.9,1.6,3.5,3.5,3.5h11.6c1.9,0,3.5-1.5,3.4-3.4v-5.2
	C20.7,12.9,20.4,12.6,20,12.6z"/>
</svg>
