<svg width="24" height="24" viewBox="0 0 24 24" fill="none" xmlns="http://www.w3.org/2000/svg">
<g clip-path="url(#clip0_1134_2855)">
<path d="M20.0399 13.28V18.45C20.0399 19.97 18.8099 21.2 17.2899 21.2H5.67993C4.15993 21.2 2.92993 19.97 2.92993 18.45V6.83999C2.92993 5.31999 4.15993 4.08999 5.67993 4.08999H11.1399M14.2199 6.30999L17.9099 9.93999M8.66993 11.54L12.4199 15.34M20.2699 3.60999C19.1999 2.52999 17.4499 2.52999 16.3699 3.59999L16.3599 3.60999L7.82993 12.34C7.74993 12.42 7.69993 12.53 7.68993 12.64L7.25993 16.22C7.23993 16.37 7.29993 16.52 7.39993 16.63C7.49993 16.73 7.62993 16.78 7.75993 16.78H7.81993L11.4299 16.4C11.5499 16.39 11.6499 16.34 11.7299 16.25L20.2599 7.51999C21.3499 6.43999 21.3499 4.68999 20.2699 3.60999Z" stroke="#5B6880" stroke-width="1.5" stroke-miterlimit="10" stroke-linecap="round" stroke-linejoin="round"/>
</g>
<defs>
<clipPath id="clip0_1134_2855">
<rect width="19.6" height="19.86" fill="white" transform="translate(2.19995 2.07001)"/>
</clipPath>
</defs>
</svg>
