<svg width="38" height="38" viewBox="0 0 38 38" fill="none" xmlns="http://www.w3.org/2000/svg">
<g clip-path="url(#clip0_1519_708)">
<path d="M19.25 0C8.91062 0 0.5 8.41062 0.5 18.75C0.5 29.0894 8.91062 37.5 19.25 37.5C29.5894 37.5 38 29.0894 38 18.75C38 8.41062 29.5894 0 19.25 0ZM19.25 34.5953C10.514 34.5953 3.40471 27.486 3.40471 18.75C3.40471 10.014 10.514 2.90471 19.25 2.90471C27.9874 2.90471 35.0953 10.014 35.0953 18.75C35.0953 27.486 27.986 34.5953 19.25 34.5953Z" fill="#DC2626"/>
<path d="M13.25 12.75L25.25 23.75" stroke="#DC2626" stroke-width="3" stroke-linecap="round" stroke-linejoin="round"/>
<path fill-rule="evenodd" clip-rule="evenodd" d="M25.25 12.75L13.25 23.75L25.25 12.75Z" fill="#D9D9D9"/>
<path d="M25.25 12.75L13.25 23.75" stroke="#DC2626" stroke-width="3" stroke-linecap="round" stroke-linejoin="round"/>
</g>
<defs>
<clipPath id="clip0_1519_708">
<rect width="37.5" height="37.5" fill="white" transform="translate(0.5)"/>
</clipPath>
</defs>
</svg>
