<svg width="15" height="15" viewBox="0 0 15 15" fill="none" xmlns="http://www.w3.org/2000/svg">
<g id="Frame" clip-path="url(#clip0_888_13070)">
<g id="layer2_2_">
<path id="ellipse2349_2_" d="M6.61333 1.56251C6.34667 1.69585 6.24667 1.90251 6.18667 2.04251C6.12667 2.17585 6.1 2.26251 6.02 2.34918C5.94 2.44251 5.79333 2.55585 5.47333 2.68918C5.15333 2.82251 4.96667 2.83585 4.84667 2.82251C4.72667 2.81585 4.64 2.76918 4.5 2.70918C4.32667 2.64251 4.12 2.58918 3.86666 2.66918C3.61333 2.74918 3.39333 2.92251 3.09333 3.21585C2.79333 3.50918 2.62 3.72918 2.53333 3.98251C2.43333 4.27585 2.52 4.48918 2.57333 4.63585C2.62667 4.77585 2.66 4.85585 2.67333 4.97585C2.68 5.08918 2.66 5.26918 2.52667 5.58918C2.38667 5.90918 2.27333 6.04251 2.18667 6.12251C2.08 6.20918 2.01333 6.22918 1.87333 6.28918C1.67333 6.36918 1.5 6.47585 1.37333 6.71585C1.24667 6.94918 1.21333 7.22918 1.20667 7.64918C1.20667 8.06918 1.24667 8.36251 1.35333 8.58918C1.49333 8.86251 1.7 8.95585 1.84 9.02251C1.98 9.08251 2.05333 9.10918 2.14 9.18918C2.23333 9.26918 2.35333 9.41585 2.48 9.73585C2.61333 10.0558 2.62 10.2492 2.61333 10.3692C2.6 10.4892 2.56667 10.5492 2.50667 10.6892C2.42667 10.8758 2.38 11.0892 2.46 11.3425C2.54 11.5958 2.71333 11.8225 3.00667 12.1158C3.3 12.4158 3.52667 12.5892 3.78 12.6758C4.03333 12.7625 4.25333 12.7025 4.42667 12.6358C4.56667 12.5825 4.64667 12.5492 4.76667 12.5358C4.87333 12.5292 5.06 12.5492 5.38 12.6825C5.7 12.8158 5.85333 12.9558 5.91333 13.0292C5.99333 13.1225 6.01333 13.1958 6.07333 13.3358C6.16 13.5358 6.26 13.7092 6.5 13.8292C6.73333 13.9558 7.01333 13.9892 7.48667 13.9892C7.96 13.9892 8.23333 13.9492 8.47333 13.8292C8.70667 13.7025 8.81333 13.5292 8.9 13.3358C8.96 13.1958 8.98667 13.1225 9.06 13.0292C9.12 12.9558 9.28 12.8225 9.59333 12.6825C9.91333 12.5492 10.1 12.5292 10.2067 12.5358C10.3267 12.5425 10.4067 12.5758 10.5467 12.6358C10.7133 12.7092 10.94 12.7625 11.1933 12.6758C11.4467 12.5892 11.6733 12.4158 11.9667 12.1158C12.26 11.8158 12.4333 11.5958 12.5133 11.3425C12.5933 11.0892 12.54 10.8758 12.4667 10.6892C12.4067 10.5492 12.3733 10.4892 12.36 10.3692C12.3467 10.2492 12.36 10.0625 12.4933 9.73585C12.6267 9.41585 12.7467 9.26918 12.8333 9.18918C12.9267 9.10918 12.9933 9.08251 13.1333 9.02251C13.2733 8.96251 13.4867 8.86251 13.62 8.58918C13.7333 8.36251 13.7733 8.06918 13.7667 7.64918C13.7667 7.22918 13.7267 6.94918 13.6 6.71585C13.4733 6.48251 13.3 6.36918 13.1067 6.28918C12.9867 6.22918 12.92 6.20918 12.8133 6.12251C12.72 6.04251 12.6067 5.90918 12.4733 5.58918C12.34 5.26918 12.32 5.08918 12.3267 4.97585C12.3333 4.85585 12.3667 4.77585 12.4267 4.63585C12.48 4.49585 12.5667 4.27585 12.4667 3.98918C12.38 3.73585 12.2067 3.51585 11.9067 3.22251C11.6067 2.92251 11.3867 2.74918 11.1333 2.66918C10.88 2.58918 10.6733 2.64251 10.5 2.70918C10.36 2.76918 10.2733 2.80918 10.1533 2.82251C10.0333 2.83585 9.85333 2.81585 9.52666 2.68918C9.20666 2.55585 9.06 2.44251 8.98 2.34918C8.9 2.25585 8.87333 2.17585 8.81333 2.03585C8.75333 1.89585 8.64667 1.68918 8.38667 1.55585C8.16 1.44251 7.88667 1.40918 7.5 1.40918C7.11333 1.41585 6.84 1.44918 6.61333 1.56251ZM7.5 5.34918C6.20667 5.34918 5.14667 6.40918 5.14667 7.70918C5.14667 9.00251 6.20667 10.0625 7.5 10.0625C8.79333 10.0625 9.85333 9.00251 9.85333 7.70918C9.85333 6.40918 8.79333 5.34918 7.5 5.34918Z" stroke="#5B6880" stroke-miterlimit="10" stroke-linecap="round" stroke-linejoin="round"/>
</g>
</g>
<defs>
<clipPath id="clip0_888_13070">
<rect width="13.56" height="13.56" fill="white" transform="translate(0.719971 0.922363)"/>
</clipPath>
</defs>
</svg>
