<svg width="24" height="24" viewBox="0 0 24 24" fill="none" xmlns="http://www.w3.org/2000/svg">
  <path fill="#5b6880" fill-rule="evenodd" clip-rule="evenodd" d="M1.25 13.2878C1.25 12.2019 2.13023 11.3217 3.21605 11.3217H5.16625C6.25207 11.3217 7.1323 12.2019 7.1323 13.2878V21.59C7.1323 22.6758 6.25207 23.556 5.16625 23.556H3.21605C2.13023 23.556 1.25 22.6758 1.25 21.59V13.2878ZM3.21605 12.8217C2.95866 12.8217 2.75 13.0304 2.75 13.2878V21.59C2.75 21.8474 2.95866 22.056 3.21605 22.056H5.16625C5.42364 22.056 5.6323 21.8474 5.6323 21.59V13.2878C5.6323 13.0304 5.42364 12.8217 5.16625 12.8217H3.21605Z" />
  <path fill="#5b6880" fill-rule="evenodd" clip-rule="evenodd" d="M8.91901 4.96605C8.91901 3.88023 9.79924 3 10.8851 3H12.8353C13.9211 3 14.8013 3.88023 14.8013 4.96605V21.5899C14.8013 22.6758 13.9211 23.556 12.8353 23.556H10.8851C9.79924 23.556 8.91901 22.6758 8.91901 21.5899V4.96605ZM10.8851 4.5C10.6277 4.5 10.419 4.70866 10.419 4.96605V21.5899C10.419 21.8473 10.6277 22.056 10.8851 22.056H12.8353C13.0926 22.056 13.3013 21.8473 13.3013 21.5899V4.96605C13.3013 4.70866 13.0926 4.5 12.8353 4.5H10.8851Z" />
  <path fill="#5b6880" fill-rule="evenodd" clip-rule="evenodd" d="M16.588 9.18516C16.588 8.09934 17.4682 7.21912 18.5541 7.21912H20.5043C21.5901 7.21912 22.4703 8.09935 22.4703 9.18516V21.5899C22.4703 22.6758 21.5901 23.556 20.5043 23.556H18.5541C17.4682 23.556 16.588 22.6758 16.588 21.5899V9.18516ZM18.5541 8.71912C18.2967 8.71912 18.088 8.92777 18.088 9.18516V21.5899C18.088 21.8473 18.2967 22.056 18.5541 22.056H20.5043C20.7617 22.056 20.9703 21.8473 20.9703 21.5899V9.18516C20.9703 8.92777 20.7617 8.71912 20.5043 8.71912H18.5541Z" />
</svg>
