<?xml version="1.0" encoding="utf-8"?>
<!-- Generator: Adobe Illustrator 26.0.1, SVG Export Plug-In . SVG Version: 6.00 Build 0)  -->
<svg version="1.1" id="Layer_1" xmlns="http://www.w3.org/2000/svg" xmlns:xlink="http://www.w3.org/1999/xlink" x="0px" y="0px"
	 viewBox="0 0 24 24" style="enable-background:new 0 0 24 24;" xml:space="preserve">
<path fill="#5b6880" d="M11.6,13.8h-0.2c-1.8-0.3-3.7-0.3-5.5,0H5.7c-2.6,0.5-4.5,2.7-4.5,5.3c0,1.5,1.2,2.6,2.6,2.6h9.7
	c1.5,0,2.6-1.2,2.6-2.6C16.1,16.4,14.2,14.2,11.6,13.8z M13.6,20H3.8c-0.5,0-0.9-0.4-0.9-0.9c0-1.8,1.3-3.4,3.1-3.7h0.2
	c1.6-0.2,3.3-0.2,5,0.1h0.2c1.8,0.3,3.1,1.8,3.1,3.6C14.5,19.6,14.1,20,13.6,20z M8.7,11.7c2.6,0,4.7-2.1,4.7-4.7s-2.1-4.7-4.7-4.7
	C6.1,2.3,4,4.4,4,7S6.1,11.7,8.7,11.7z M8.7,4c1.7,0,3,1.4,3,3s-1.3,3-3,3c-1.6,0-3-1.4-3-3S7,4,8.7,4z M22.8,19.1
	c0,1.4-1.1,2.6-2.6,2.6h-2.3c-0.5,0-0.8-0.4-0.8-0.8s0.4-0.8,0.8-0.8h2.3c0.5,0,0.9-0.4,0.9-0.9c0-1.8-1.3-3.3-3.1-3.6
	c-0.1,0-0.2,0-0.3,0h-1.1c-0.4-0.2-0.7-0.5-0.7-1s0.4-0.8,0.8-0.8h1.1c0.2,0,0.4,0,0.5,0C20.9,14.2,22.8,16.4,22.8,19.1z M18.3,7.2
	c0-1.6-1.4-3-3-3c-0.4-0.2-0.8-0.6-0.8-1c0-0.5,0.4-0.8,0.8-0.8c2.6,0,4.7,2.1,4.7,4.7s-2.1,4.7-4.7,4.7c-0.5,0-0.8-0.4-0.8-0.8
	c0-0.5,0.4-0.8,0.8-0.8C17,10.2,18.3,8.8,18.3,7.2z"/>
</svg>
