<svg width="24" height="25" viewBox="0 0 24 25" fill="none" xmlns="http://www.w3.org/2000/svg">
<g id="Icon-24/Hide_24">
<g id="Group">
<g id="Frame" clip-path="url(#clip0_1609_482)">
<g id="Vector">
<path d="M17.1401 4.74512L6.07006 20.6951L17.1401 4.74512Z" fill="white"/>
<path d="M11.8601 6.97512C6.90006 6.97512 3.02006 12.2051 2.86006 12.4251C2.71006 12.6351 2.71006 12.9251 2.86006 13.1351C2.95006 13.2551 4.05006 14.7451 5.79006 16.1351M8.67006 17.8951C9.66006 18.3151 10.7301 18.5951 11.8701 18.5951C16.8301 18.5951 20.7101 13.3651 20.8701 13.1451C21.0201 12.9351 21.0201 12.6451 20.8701 12.4351C20.7501 12.2751 18.6001 9.36512 15.4801 7.86512M11.2701 9.67512C9.81006 9.95512 8.70006 11.2451 8.70006 12.7851C8.70006 13.0451 8.73006 13.3051 8.79006 13.5451M10.0001 15.2451C10.5501 15.7151 11.0801 15.9451 11.8701 15.9451C13.6101 15.9451 15.0301 14.5251 15.0301 12.7851C15.0301 11.7551 14.5401 10.8451 13.7801 10.2651M17.1401 4.74512L6.07006 20.6951" stroke="white" stroke-width="1.5" stroke-miterlimit="10" stroke-linecap="round" stroke-linejoin="round"/>
</g>
</g>
</g>
</g>
<defs>
<clipPath id="clip0_1609_482">
<rect width="19.73" height="17.45" fill="white" transform="translate(2 3.99512)"/>
</clipPath>
</defs>
</svg>
