<svg width="25" height="24" viewBox="0 0 25 24" fill="none" xmlns="http://www.w3.org/2000/svg">
<g id="Icon-24/Long Left_24">
<path id="Path (Stroke)" fill-rule="evenodd" clip-rule="evenodd" d="M4.75 12C4.75 11.5858 5.08579 11.25 5.5 11.25H19.5C19.9142 11.25 20.25 11.5858 20.25 12C20.25 12.4142 19.9142 12.75 19.5 12.75H5.5C5.08579 12.75 4.75 12.4142 4.75 12Z" fill="#5B6880"/>
<path id="Path (Stroke)_2" fill-rule="evenodd" clip-rule="evenodd" d="M11.0303 6.46967C11.3232 6.76256 11.3232 7.23744 11.0303 7.53033L6.03033 12.5303C5.73744 12.8232 5.26256 12.8232 4.96967 12.5303C4.67678 12.2374 4.67678 11.7626 4.96967 11.4697L9.96967 6.46967C10.2626 6.17678 10.7374 6.17678 11.0303 6.46967Z" fill="#5B6880"/>
<path id="Path (Stroke)_3" fill-rule="evenodd" clip-rule="evenodd" d="M4.96967 11.4697C5.26256 11.1768 5.73744 11.1768 6.03033 11.4697L11.0303 16.4697C11.3232 16.7626 11.3232 17.2374 11.0303 17.5303C10.7374 17.8232 10.2626 17.8232 9.96967 17.5303L4.96967 12.5303C4.67678 12.2374 4.67678 11.7626 4.96967 11.4697Z" fill="#5B6880"/>
</g>
</svg>
