<?xml version="1.0" encoding="utf-8"?>
<!-- Generator: Adobe Illustrator 26.0.1, SVG Export Plug-In . SVG Version: 6.00 Build 0)  -->
<svg version="1.1" id="Layer_1" xmlns="http://www.w3.org/2000/svg" xmlns:xlink="http://www.w3.org/1999/xlink" x="0px" y="0px"
	 viewBox="0 0 24 24" style="enable-background:new 0 0 24 24;" xml:space="preserve">
<path fill="#5b6880" d="M8,11c0.6,0,1,0.4,1,1s-0.4,1-1,1s-1-0.4-1-1S7.4,11,8,11z M12,11c0.6,0,1,0.4,1,1s-0.4,1-1,1s-1-0.4-1-1S11.4,11,12,11z
	 M16,11c0.6,0,1,0.4,1,1s-0.4,1-1,1c-0.6,0-1-0.4-1-1S15.4,11,16,11z"/>
</svg>
