<?xml version="1.0" encoding="utf-8"?>
<!-- Generator: Adobe Illustrator 26.0.1, SVG Export Plug-In . SVG Version: 6.00 Build 0)  -->
<svg version="1.1" id="Layer_1" xmlns="http://www.w3.org/2000/svg" xmlns:xlink="http://www.w3.org/1999/xlink" x="0px" y="0px"
	 viewBox="0 0 25 25" style="enable-background:new 0 0 25 25;" xml:space="preserve">
<path d="M18.5,3.5h-0.4V3c0-0.4-0.3-0.8-0.8-0.8S16.6,2.6,16.6,3v0.5H8.3V3c0-0.4-0.3-0.8-0.8-0.8S6.8,2.6,6.8,3v0.5H6.5
	c-2,0-3.6,1.6-3.6,3.6v12c0,2,1.6,3.6,3.6,3.6h12c1,0,1.9-0.4,2.6-1.1c0.7-0.7,1-1.6,1-2.5v-12C22.1,5.1,20.5,3.5,18.5,3.5z
	 M20.6,19.1c0,0.6-0.2,1.1-0.6,1.5c-0.4,0.4-0.9,0.6-1.5,0.6h-12c-1.2,0-2.1-0.9-2.1-2.1v-8.9h16.2V19.1z M20.6,8.7H4.4V7.1
	C4.4,5.9,5.3,5,6.5,5h0.3v0.6c0,0.4,0.3,0.8,0.8,0.8S8.3,6,8.3,5.6V5h8.3v0.6c0,0.4,0.3,0.8,0.8,0.8s0.8-0.3,0.8-0.8V5h0.4
	c1.2,0,2.1,0.9,2.1,2.1V8.7z M9.5,17.1l1.9-1.9l-1.9-1.9c-0.3-0.3-0.3-0.8,0-1.1s0.8-0.3,1.1,0l1.9,1.9l1.9-1.9
	c0.3-0.3,0.8-0.3,1.1,0s0.3,0.8,0,1.1l-1.9,1.9l1.9,1.9c0.3,0.3,0.3,0.8,0,1.1c-0.1,0.1-0.3,0.2-0.5,0.2s-0.4-0.1-0.5-0.2l-1.9-1.9
	l-1.9,1.9c-0.1,0.1-0.3,0.2-0.5,0.2s-0.4-0.1-0.5-0.2C9.2,17.9,9.2,17.4,9.5,17.1z" fill="#5b6880"/>
</svg>
