<svg width="22" height="23" viewBox="0 0 22 23" fill="none" xmlns="http://www.w3.org/2000/svg">
<path d="M3.5735 22.5H6.29675C6.7245 22.5 7.0715 22.1777 7.0715 21.75C7.0715 21.3223 6.72475 21 6.29675 21H3.5735C2.427 21 1.5 19.9825 1.5 18.7922V7.75H20.25V10.5705C20.25 10.9983 20.6973 11.3453 21.125 11.3453C21.5527 11.3453 22 10.9985 22 10.5705V4.2235C22 2.20525 20.1033 0.5 18.1065 0.5H3.5735C1.57275 0.5 0 2.17025 0 4.2235V18.7922C0 20.8368 1.57275 22.5 3.5735 22.5ZM1.5 4.2235C1.5 3.045 2.4465 2 3.5735 2H18.1065C19.2633 2 20.25 3.045 20.25 4.2235V6.25H1.5V4.2235Z" fill="white"/>
<path d="M17.6067 3.5H17.297C16.8692 3.5 16.5222 3.94725 16.5222 4.375C16.5222 4.80275 16.869 5.25 17.297 5.25H17.6067C18.0345 5.25 18.3815 4.80275 18.3815 4.375C18.3815 3.94725 18.0345 3.5 17.6067 3.5Z" fill="white"/>
<path d="M14.9729 3.5H14.6632C14.2354 3.5 13.8884 3.94725 13.8884 4.375C13.8884 4.80275 14.2352 5.25 14.6632 5.25H14.9729C15.4007 5.25 15.7477 4.80275 15.7477 4.375C15.7477 3.94725 15.4007 3.5 14.9729 3.5Z" fill="white"/>
<path d="M12.1844 3.5H11.8746C11.4469 3.5 11.0999 3.94725 11.0999 4.375C11.0999 4.80275 11.4466 5.25 11.8746 5.25H12.1844C12.6121 5.25 12.9591 4.80275 12.9591 4.375C12.9591 3.94725 12.6121 3.5 12.1844 3.5Z" fill="white"/>
<path d="M14.2493 11.2838C10.8523 11.2838 7.75 13.417 6.5 16.5923C6.5 16.5923 8.12625 22.5808 14.2493 22.4503C20.7188 22.3125 22 16.5923 22 16.5923C20.75 13.417 17.6473 11.2838 14.2493 11.2838ZM14.3045 20.901C11.646 20.901 9.218 19.2918 8.1705 16.867C9.21775 14.4423 11.646 12.833 14.3045 12.833C16.9638 12.833 19.3923 14.4423 20.4398 16.867C19.3925 19.2918 16.9638 20.901 14.3045 20.901Z" fill="white"/>
<path d="M14.3053 13.8612C12.6478 13.8612 11.2993 15.2095 11.2993 16.867C11.2993 18.5245 12.6478 19.8727 14.3053 19.8727C15.9628 19.8727 17.3111 18.5245 17.3111 16.867C17.3111 15.2095 15.9628 13.8612 14.3053 13.8612ZM14.3053 18.3235C13.5021 18.3235 12.8486 17.67 12.8486 16.867C12.8486 16.064 13.5021 15.4105 14.3053 15.4105C15.1086 15.4105 15.7618 16.064 15.7618 16.867C15.7618 17.67 15.1086 18.3235 14.3053 18.3235Z" fill="white"/>
</svg>
