<svg width="15" height="13" viewBox="0 0 15 13" fill="none" xmlns="http://www.w3.org/2000/svg">
<g id="Frame" clip-path="url(#clip0_888_13026)">
<g id="Group">
<path id="Vector" fill-rule="evenodd" clip-rule="evenodd" d="M5.42356 1.73374C4.36966 1.73374 3.52277 2.5789 3.52277 3.6167C3.52277 4.65451 4.37593 5.49966 5.42356 5.49966C6.47746 5.49966 7.32435 4.65451 7.32435 3.6167C7.32435 2.5789 6.47119 1.73374 5.42356 1.73374ZM2.48141 3.6167C2.48141 2.00717 3.79879 0.702148 5.42356 0.702148C7.04833 0.702148 8.36571 2.00717 8.36571 3.6167C8.36571 5.22623 7.04833 6.53125 5.42356 6.53125C3.79879 6.53125 2.48141 5.22623 2.48141 3.6167ZM3.84898 8.84301L3.72351 8.86165C2.60688 9.03566 1.78508 9.99267 1.78508 11.1113C1.78508 11.422 2.03601 11.6706 2.34967 11.6706H8.4849C8.79856 11.6706 9.04949 11.422 9.04949 11.1113C9.04949 9.99267 8.2277 9.03566 7.11106 8.86165L6.98559 8.84301C5.95051 8.67522 4.89033 8.67522 3.84898 8.84301ZM3.68587 7.82385C4.83388 7.64363 6.00697 7.64363 7.15497 7.82385L7.28044 7.84249C8.89893 8.09728 10.0908 9.48309 10.0908 11.1113C10.0908 11.9875 9.3757 12.7021 8.4849 12.7021H2.35595C1.46515 12.7021 0.75 11.9875 0.75 11.1113C0.75 9.48309 1.94191 8.1035 3.56041 7.84249L3.68587 7.82385Z" fill="#5B6880"/>
<path id="Vector_2" fill-rule="evenodd" clip-rule="evenodd" d="M9.05579 1.21794C9.05579 0.932081 9.2879 0.702148 9.57646 0.702148C11.2012 0.702148 12.5186 2.00717 12.5186 3.6167C12.5186 5.22623 11.2012 6.53125 9.57646 6.53125C9.2879 6.53125 9.05579 6.30132 9.05579 6.01546C9.05579 5.7296 9.2879 5.49966 9.57646 5.49966C10.6304 5.49966 11.4773 4.65451 11.4773 3.6167C11.4773 2.5789 10.6241 1.73374 9.57646 1.73374C9.2879 1.73374 9.05579 1.49759 9.05579 1.21794ZM9.91522 8.33343C9.91522 8.04757 10.1473 7.81763 10.4359 7.81763H11.1071C11.2201 7.81763 11.3267 7.82385 11.4396 7.84249C13.0581 8.09728 14.25 9.48309 14.25 11.1113C14.25 11.9875 13.5349 12.7021 12.6441 12.7021H11.2263C10.9378 12.7021 10.7056 12.4722 10.7056 12.1864C10.7056 11.9005 10.9378 11.6706 11.2263 11.6706H12.6378C12.9515 11.6706 13.2024 11.422 13.2024 11.1113C13.2024 9.99267 12.3806 9.03566 11.264 8.86165C11.2075 8.85544 11.151 8.84922 11.0946 8.84922H10.4234C10.1473 8.84922 9.91522 8.61929 9.91522 8.33343Z" fill="#5B6880"/>
</g>
</g>
<defs>
<clipPath id="clip0_888_13026">
<rect width="13.5" height="12" fill="white" transform="translate(0.75 0.702148)"/>
</clipPath>
</defs>
</svg>
