<?xml version="1.0" encoding="utf-8"?>
<!-- Generator: Adobe Illustrator 26.0.1, SVG Export Plug-In . SVG Version: 6.00 Build 0)  -->
<svg version="1.1" id="Layer_1" xmlns="http://www.w3.org/2000/svg" xmlns:xlink="http://www.w3.org/1999/xlink" x="0px" y="0px"
	 viewBox="0 0 24 24" style="enable-background:new 0 0 24 24;" xml:space="preserve">
<path fill="#5b6880" d="M17.2,21.6c-0.3,0-0.5-0.1-0.8-0.2l-4.3-2.3c-0.1,0-0.1,0-0.2,0l-4.3,2.3c-0.8,0.4-1.8,0.1-2.2-0.7
	c-0.2-0.3-0.2-0.7-0.2-1l0.8-4.8c0-0.1,0-0.1-0.1-0.2l-3.5-3.4c-0.6-0.6-0.6-1.6,0-2.3C2.7,8.7,3,8.6,3.4,8.5l4.8-0.7
	c0.1,0,0.1-0.1,0.2-0.1l2.2-4.4c0.4-0.8,1.4-1.1,2.2-0.7C13,2.7,13.3,3,13.4,3.3l2.1,4.4c0,0.1,0.1,0.1,0.2,0.1l4.8,0.7
	c0.9,0.1,1.5,0.9,1.4,1.8c-0.1,0.3-0.2,0.7-0.5,0.9L18,14.7c-0.1,0.1-0.1,0.1-0.1,0.2l0.8,4.8c0.1,0.9-0.4,1.7-1.3,1.9
	C17.3,21.6,17.3,21.6,17.2,21.6z"/>
</svg>
