<?xml version="1.0" encoding="utf-8"?>
<!-- Generator: Adobe Illustrator 26.0.1, SVG Export Plug-In . SVG Version: 6.00 Build 0)  -->
<svg version="1.1" id="Layer_1" xmlns="http://www.w3.org/2000/svg" xmlns:xlink="http://www.w3.org/1999/xlink" x="0px" y="0px"
	 viewBox="0 0 24 25" style="enable-background:new 0 0 24 25;" xml:space="preserve">
<g>
	<g>
		<path fill="#5b6880" d="M21.1,22.4c-0.2,0-0.4-0.1-0.5-0.2l-3.7-3.5c-1.6,1.3-3.6,2.1-5.7,2.1c-5,0-9.1-4.1-9.1-9.1s4.1-9.1,9.1-9.1
			s9.1,4.1,9.1,9.1c0,2.3-0.8,4.4-2.2,6l3.7,3.5c0.3,0.3,0.3,0.8,0,1.1C21.5,22.3,21.3,22.4,21.1,22.4z M11.2,4.1
			c-4.2,0-7.6,3.4-7.6,7.6s3.4,7.6,7.6,7.6s7.6-3.4,7.6-7.6S15.3,4.1,11.2,4.1z"/>
	</g>
</g>
</svg>
