<svg width="20" height="20" viewBox="0 0 20 20" fill="none" xmlns="http://www.w3.org/2000/svg">
<path fill-rule="evenodd" clip-rule="evenodd" d="M10 6.875C9.1712 6.875 8.37634 7.20424 7.79029 7.79029C7.20424 8.37634 6.875 9.1712 6.875 10C6.875 10.8288 7.20424 11.6237 7.79029 12.2097C8.37634 12.7958 9.1712 13.125 10 13.125C10.8288 13.125 11.6237 12.7958 12.2097 12.2097C12.7958 11.6237 13.125 10.8288 13.125 10C13.125 9.1712 12.7958 8.37634 12.2097 7.79029C11.6237 7.20424 10.8288 6.875 10 6.875ZM8.125 10C8.125 9.50272 8.32254 9.02581 8.67417 8.67417C9.02581 8.32254 9.50272 8.125 10 8.125C10.4973 8.125 10.9742 8.32254 11.3258 8.67417C11.6775 9.02581 11.875 9.50272 11.875 10C11.875 10.4973 11.6775 10.9742 11.3258 11.3258C10.9742 11.6775 10.4973 11.875 10 11.875C9.50272 11.875 9.02581 11.6775 8.67417 11.3258C8.32254 10.9742 8.125 10.4973 8.125 10Z" fill="white"/>
<path fill-rule="evenodd" clip-rule="evenodd" d="M9.97882 1.0415C9.60798 1.0415 9.29882 1.0415 9.04548 1.05817C8.78654 1.06895 8.53115 1.12245 8.28965 1.2165C8.01152 1.33158 7.75879 1.50031 7.54589 1.71308C7.33298 1.92584 7.16408 2.17846 7.04882 2.4565C6.92798 2.74817 6.89548 3.0565 6.88215 3.3915C6.88082 3.51402 6.84838 3.63419 6.78789 3.74074C6.7274 3.84729 6.64084 3.93673 6.53632 4.00067C6.42872 4.05942 6.30795 4.08986 6.18536 4.08914C6.06277 4.08841 5.94237 4.05653 5.83548 3.9965C5.53882 3.83984 5.25548 3.714 4.94215 3.67234C4.64377 3.63309 4.34058 3.653 4.0499 3.73092C3.75921 3.80885 3.48672 3.94327 3.24798 4.1265C3.04613 4.2889 2.87241 4.48345 2.73382 4.70234C2.59215 4.914 2.43715 5.1815 2.25215 5.50234L2.23132 5.539C2.04548 5.85984 1.89132 6.12734 1.77965 6.35567C1.66298 6.594 1.57132 6.829 1.53798 7.089C1.45848 7.6915 1.62155 8.3009 1.99132 8.78317C2.18382 9.034 2.43465 9.2165 2.71798 9.39484C2.82362 9.45729 2.91162 9.54559 2.97373 9.65142C3.03583 9.75726 3.06999 9.87716 3.07298 9.99984C3.06999 10.1225 3.03583 10.2424 2.97373 10.3482C2.91162 10.4541 2.82362 10.5424 2.71798 10.6048C2.43465 10.7832 2.18465 10.9657 1.99132 11.2165C1.80808 11.4552 1.67366 11.7277 1.59574 12.0184C1.51781 12.3091 1.4979 12.6123 1.53715 12.9107C1.57132 13.1707 1.66215 13.4057 1.77882 13.644C1.89132 13.8723 2.04548 14.1398 2.23132 14.4607L2.25215 14.4973C2.43715 14.8182 2.59215 15.0857 2.73382 15.2973C2.88132 15.5165 3.03965 15.714 3.24798 15.8723C3.48666 16.0557 3.75912 16.1903 4.04981 16.2684C4.34049 16.3464 4.64372 16.3665 4.94215 16.3273C5.25548 16.2857 5.53882 16.1607 5.83548 16.0032C5.94225 15.9432 6.0625 15.9114 6.18494 15.9107C6.30739 15.9099 6.42801 15.9403 6.53548 15.999C6.64058 16.0624 6.72769 16.1517 6.78852 16.2584C6.84935 16.365 6.88187 16.4854 6.88298 16.6082C6.89548 16.9432 6.92798 17.2515 7.04965 17.5432C7.16472 17.8213 7.33346 18.074 7.54622 18.2869C7.75898 18.4998 8.0116 18.6687 8.28965 18.784C8.53132 18.884 8.78132 18.9232 9.04548 18.9407C9.29882 18.9582 9.60798 18.9582 9.97882 18.9582H10.0205C10.3913 18.9582 10.7005 18.9582 10.9538 18.9415C11.2188 18.9232 11.468 18.884 11.7096 18.7832C11.9878 18.6681 12.2405 18.4994 12.4534 18.2866C12.6663 18.0738 12.8352 17.8212 12.9505 17.5432C13.0713 17.2515 13.1038 16.9432 13.1171 16.6082C13.1183 16.4855 13.1507 16.3652 13.2112 16.2585C13.2717 16.1518 13.3583 16.0622 13.463 15.9982C13.5707 15.9395 13.6915 15.9092 13.814 15.9101C13.9366 15.911 14.057 15.943 14.1638 16.0032C14.4605 16.1598 14.7438 16.2857 15.0571 16.3265C15.6596 16.406 16.269 16.2429 16.7513 15.8732C16.9596 15.7132 17.118 15.5165 17.2655 15.2973C17.4071 15.0857 17.5621 14.8182 17.7471 14.4973L17.768 14.4607C17.9538 14.1398 18.108 13.8723 18.2196 13.644C18.3363 13.4057 18.428 13.1698 18.4613 12.9107C18.5408 12.3082 18.3777 11.6988 18.008 11.2165C17.8155 10.9657 17.5646 10.7832 17.2813 10.6048C17.1757 10.5424 17.0877 10.4541 17.0256 10.3482C16.9635 10.2424 16.9293 10.1225 16.9263 9.99984C16.9263 9.76817 17.053 9.53817 17.2813 9.39484C17.5646 9.2165 17.8146 9.034 18.008 8.78317C18.1912 8.54443 18.3256 8.27194 18.4036 7.98126C18.4815 7.69057 18.5014 7.38738 18.4621 7.089C18.4225 6.83293 18.3408 6.58515 18.2205 6.35567C18.0782 6.07879 17.9273 5.80644 17.768 5.539L17.7471 5.50234C17.5949 5.23074 17.4343 4.96395 17.2655 4.70234C17.1269 4.48369 16.9532 4.28941 16.7513 4.12734C16.5126 3.94396 16.2402 3.80939 15.9495 3.73132C15.6588 3.65325 15.3556 3.63321 15.0571 3.67234C14.7438 3.714 14.4605 3.839 14.1638 3.9965C14.057 4.05638 13.9368 4.08818 13.8144 4.0889C13.6919 4.08963 13.5713 4.05927 13.4638 4.00067C13.359 3.93693 13.2721 3.84758 13.2113 3.74102C13.1505 3.63445 13.1178 3.51418 13.1163 3.3915C13.1038 3.0565 13.0713 2.74817 12.9496 2.4565C12.8346 2.17838 12.6658 1.92565 12.4531 1.71274C12.2403 1.49984 11.9877 1.33093 11.7096 1.21567C11.468 1.11567 11.218 1.0765 10.9538 1.059C10.7005 1.0415 10.3913 1.0415 10.0205 1.0415H9.97882ZM8.76798 2.37067C8.83215 2.344 8.92965 2.31984 9.13048 2.30567C9.33632 2.2915 9.60298 2.2915 9.99965 2.2915C10.3963 2.2915 10.663 2.2915 10.8688 2.30567C11.0696 2.31984 11.1671 2.344 11.2313 2.37067C11.4871 2.4765 11.6896 2.679 11.7955 2.93484C11.8288 3.01484 11.8563 3.14067 11.8671 3.43817C11.8921 4.09817 12.233 4.734 12.838 5.08317C13.443 5.43317 14.1638 5.40984 14.748 5.1015C15.0113 4.96234 15.1338 4.92317 15.2205 4.91234C15.4943 4.87616 15.7713 4.95019 15.9905 5.11817C16.0455 5.16067 16.1155 5.23317 16.228 5.39984C16.3438 5.5715 16.4771 5.80234 16.6755 6.14567C16.8738 6.489 17.0063 6.72067 17.0971 6.90567C17.1863 7.0865 17.2138 7.18317 17.2221 7.25234C17.2583 7.52614 17.1843 7.80311 17.0163 8.02234C16.963 8.0915 16.868 8.17817 16.6163 8.3365C16.0563 8.68817 15.6763 9.3015 15.6763 9.99984C15.6763 10.6982 16.0563 11.3115 16.6163 11.6632C16.868 11.8215 16.963 11.9082 17.0163 11.9773C17.1846 12.1965 17.258 12.4732 17.2221 12.7473C17.2138 12.8165 17.1855 12.914 17.0971 13.094C17.0063 13.2798 16.8738 13.5107 16.6755 13.854C16.4771 14.1973 16.343 14.4282 16.228 14.5998C16.1155 14.7665 16.0455 14.839 15.9905 14.8815C15.7713 15.0495 15.4943 15.1235 15.2205 15.0873C15.1338 15.0765 15.0121 15.0373 14.748 14.8982C14.1646 14.5898 13.443 14.5665 12.838 14.9157C12.233 15.2657 11.8921 15.9015 11.8671 16.5615C11.8563 16.859 11.8288 16.9848 11.7955 17.0648C11.7431 17.1913 11.6664 17.3063 11.5696 17.4031C11.4727 17.4999 11.3578 17.5767 11.2313 17.629C11.1671 17.6557 11.0696 17.6798 10.8688 17.694C10.663 17.7082 10.3963 17.7082 9.99965 17.7082C9.60298 17.7082 9.33632 17.7082 9.13048 17.694C8.92965 17.6798 8.83215 17.6557 8.76798 17.629C8.64149 17.5767 8.52655 17.4999 8.42974 17.4031C8.33294 17.3063 8.25617 17.1913 8.20382 17.0648C8.17048 16.9848 8.14298 16.859 8.13215 16.5615C8.10715 15.9015 7.76632 15.2657 7.16132 14.9165C6.55632 14.5665 5.83548 14.5898 5.25132 14.8982C4.98798 15.0373 4.86548 15.0765 4.77882 15.0873C4.50501 15.1235 4.22805 15.0495 4.00882 14.8815C3.95382 14.839 3.88382 14.7665 3.77132 14.5998C3.61458 14.3559 3.46534 14.1071 3.32382 13.854C3.12548 13.5107 2.99298 13.279 2.90215 13.094C2.81298 12.9132 2.78548 12.8165 2.77715 12.7473C2.74097 12.4735 2.81501 12.1966 2.98298 11.9773C3.03632 11.9082 3.13132 11.8215 3.38298 11.6632C3.94298 11.3115 4.32298 10.6982 4.32298 9.99984C4.32298 9.3015 3.94298 8.68817 3.38298 8.3365C3.13132 8.17817 3.03632 8.0915 2.98298 8.02234C2.81501 7.80311 2.74097 7.52614 2.77715 7.25234C2.78548 7.18317 2.81382 7.08567 2.90215 6.90567C2.99298 6.71984 3.12548 6.489 3.32382 6.14567C3.52215 5.80234 3.65632 5.5715 3.77132 5.39984C3.88382 5.23317 3.95382 5.16067 4.00882 5.11817C4.22805 4.95019 4.50501 4.87616 4.77882 4.91234C4.86548 4.92317 4.98715 4.96234 5.25132 5.1015C5.83465 5.40984 6.55632 5.43317 7.16132 5.08317C7.76632 4.734 8.10715 4.09817 8.13215 3.43817C8.14298 3.14067 8.17048 3.01484 8.20382 2.93484C8.30965 2.679 8.51215 2.4765 8.76798 2.37067Z" fill="white"/>
</svg>
