<svg width="24" height="25" viewBox="0 0 24 25" fill="none" xmlns="http://www.w3.org/2000/svg">
<g id="Icon-24/Show">
<path id="Vector" d="M2.95317 12.4316L2.78235 12.7L2.95317 12.9684C3.67217 14.0983 6.70239 18.2 11.975 18.2C17.2423 18.2 20.274 14.2082 21.0069 12.9519L21.1605 12.6887L20.9968 12.4316C20.2778 11.3017 17.2476 7.2 11.975 7.2C6.70239 7.2 3.67217 11.3017 2.95317 12.4316ZM8.775 12.7C8.775 10.9761 10.2511 9.5 11.975 9.5C13.6989 9.5 15.175 10.9761 15.175 12.7C15.175 14.4327 13.7901 15.9 11.975 15.9C10.1599 15.9 8.775 14.4327 8.775 12.7ZM8.975 12.7C8.975 14.3761 10.2989 15.7 11.975 15.7C13.6511 15.7 14.975 14.3761 14.975 12.7C14.975 11.0239 13.6511 9.7 11.975 9.7C10.2989 9.7 8.975 11.0239 8.975 12.7ZM11.975 7C15.0675 7 17.3794 8.35326 18.956 9.74933C19.7445 10.4476 20.3448 11.1531 20.7605 11.6973C20.9681 11.969 21.1294 12.2002 21.2457 12.3708C21.2706 12.4072 21.3045 12.4575 21.334 12.5011C21.3576 12.536 21.3784 12.5667 21.3894 12.5827C21.4078 12.6098 21.4263 12.6365 21.443 12.6594C21.4523 12.6879 21.4523 12.7121 21.443 12.7406C21.4263 12.7635 21.4078 12.7902 21.3894 12.8173C21.3784 12.8333 21.3576 12.864 21.334 12.8989C21.3045 12.9425 21.2706 12.9927 21.2457 13.0292C21.1294 13.1998 20.9681 13.431 20.7605 13.7027C20.3448 14.2469 19.7445 14.9524 18.956 15.6507C17.3794 17.0467 15.0675 18.4 11.975 18.4C8.88255 18.4 6.57058 17.0467 4.99397 15.6507C4.20547 14.9524 3.6052 14.2469 3.18952 13.7027C2.98193 13.431 2.82059 13.1998 2.70431 13.0292C2.67945 12.9928 2.64554 12.9426 2.61606 12.8991C2.59242 12.8641 2.57163 12.8333 2.56064 12.8173C2.54218 12.7902 2.52372 12.7635 2.50704 12.7406C2.49401 12.701 2.49907 12.6699 2.52221 12.6236C2.5216 12.6248 2.5219 12.6243 2.52325 12.6219C2.52701 12.6151 2.53885 12.5937 2.5614 12.5557C2.58944 12.5084 2.62999 12.442 2.68309 12.3594C2.78928 12.1943 2.94459 11.9656 3.14893 11.6952C3.55806 11.1537 4.16053 10.4488 4.95506 9.75058C6.54415 8.35411 8.88157 7 11.975 7Z" fill="white" stroke="white"/>
</g>
</svg>
