<svg width="24" height="25" viewBox="0 0 24 25" fill="none" xmlns="http://www.w3.org/2000/svg">
<path d="M11.975 9C9.975 9 8.275 10.7 8.275 12.7C8.275 14.7 9.875 16.4 11.975 16.4C14.075 16.4 15.675 14.7 15.675 12.7C15.675 10.7 13.975 9 11.975 9ZM11.975 15.2C10.575 15.2 9.475 14.1 9.475 12.7C9.475 11.3 10.575 10.2 11.975 10.2C13.375 10.2 14.475 11.3 14.475 12.7C14.475 14.1 13.375 15.2 11.975 15.2ZM21.875 12.4C21.675 12.2 18.475 6.5 11.975 6.5C5.475 6.5 2.175 12.2 2.075 12.4C1.975 12.6 1.975 12.8 2.075 13C2.275 13.2 5.475 18.9 11.975 18.9C18.475 18.9 21.675 13.2 21.875 13C21.975 12.8 21.975 12.6 21.875 12.4ZM11.975 17.7C6.975 17.7 4.075 13.8 3.375 12.7C4.075 11.6 6.975 7.7 11.975 7.7C16.975 7.7 19.875 11.6 20.575 12.7C19.875 13.9 16.975 17.7 11.975 17.7Z" fill="#5B6880"/>
</svg>
