<?xml version="1.0" encoding="utf-8"?>
<!-- Generator: Adobe Illustrator 26.0.1, SVG Export Plug-In . SVG Version: 6.00 Build 0)  -->
<svg version="1.1" id="Layer_1" xmlns="http://www.w3.org/2000/svg" xmlns:xlink="http://www.w3.org/1999/xlink" x="0px" y="0px"
	 viewBox="0 0 24 24" style="enable-background:new 0 0 24 24;" xml:space="preserve">
<g fill="#5b6880">
	<path d="M11.5,8.5c-0.3-0.3-0.8-0.3-1.1,0s-0.3,0.8,0,1.1l2.5,2.5l-2.5,2.5c-0.3,0.3-0.3,0.8,0,1.1c0.1,0.1,0.3,0.2,0.5,0.2
		s0.4-0.1,0.5-0.2l3-3c0.3-0.3,0.3-0.8,0-1.1L11.5,8.5z"/>
	<path d="M19,2.2H5C3.5,2.2,2.2,3.5,2.2,5v14c0,1.5,1.2,2.8,2.8,2.8h14c1.5,0,2.8-1.2,2.8-2.8V5C21.8,3.5,20.5,2.2,19,2.2z M20.2,19
		c0,0.7-0.6,1.2-1.2,1.2H5c-0.7,0-1.2-0.6-1.2-1.2V5c0-0.7,0.6-1.2,1.2-1.2h14c0.7,0,1.2,0.6,1.2,1.2V19z"/>
</g>
</svg>

