<svg width="38" height="38" viewBox="0 0 38 38" fill="none" xmlns="http://www.w3.org/2000/svg">
<g clip-path="url(#clip0_1519_697)">
<path d="M18.9999 0.25C8.6605 0.25 0.249878 8.66062 0.249878 19C0.249878 29.3394 8.6605 37.75 18.9999 37.75C29.3393 37.75 37.7499 29.3394 37.7499 19C37.7499 8.66062 29.3393 0.25 18.9999 0.25ZM18.9999 34.8453C10.2639 34.8453 3.15459 27.736 3.15459 19C3.15459 10.264 10.2639 3.15471 18.9999 3.15471C27.7373 3.15471 34.8452 10.264 34.8452 19C34.8452 27.736 27.7358 34.8453 18.9999 34.8453Z" fill="#0A6F4D"/>
<path fill-rule="evenodd" clip-rule="evenodd" d="M26.3547 14.7911C26.9649 15.4013 26.9649 16.3907 26.3547 17.0009L18.5422 24.8134C17.932 25.4235 16.9427 25.4235 16.3325 24.8134L11.645 20.1259C11.0348 19.5157 11.0348 18.5263 11.645 17.9161C12.2552 17.3059 13.2445 17.3059 13.8547 17.9161L17.4374 21.4988L24.145 14.7911C24.7552 14.1809 25.7445 14.1809 26.3547 14.7911Z" fill="#0A6F4D"/>
</g>
<defs>
<clipPath id="clip0_1519_697">
<rect width="37.5" height="37.5" fill="white" transform="translate(0.249878 0.25)"/>
</clipPath>
</defs>
</svg>
