<?xml version="1.0" encoding="utf-8"?>
<!-- Generator: Adobe Illustrator 26.0.1, SVG Export Plug-In . SVG Version: 6.00 Build 0)  -->
<svg version="1.1" id="Layer_1" xmlns="http://www.w3.org/2000/svg" xmlns:xlink="http://www.w3.org/1999/xlink" x="0px" y="0px"
	 viewBox="0 0 24 24" style="enable-background:new 0 0 24 24;" xml:space="preserve">
<path fill="#5b6880" d="M18,15.8H13c-0.4,0-0.8-0.3-0.8-0.8s0.3-0.8,0.8-0.8H18c0.4,0,0.8,0.3,0.8,0.8S18.4,15.8,18,15.8z M21.8,19.6V4.4
	c0-1.2-1-2.2-2.2-2.2H4.4c-1.2,0-2.2,1-2.2,2.2v15.1c0,1.2,1,2.2,2.2,2.2h15.1C20.8,21.8,21.8,20.8,21.8,19.6z M19.6,3.7
	c0.4,0,0.7,0.3,0.7,0.7v15.1c0,0.4-0.3,0.7-0.7,0.7H4.4c-0.4,0-0.7-0.3-0.7-0.7V4.4c0-0.4,0.3-0.7,0.7-0.7H19.6z M8.4,16.2l1.9-1.7
	c0.3-0.3,0.3-0.8,0.1-1.1c-0.3-0.3-0.8-0.3-1.1-0.1l-1.4,1.2l-0.4-0.4c-0.3-0.3-0.8-0.3-1.1,0.1c-0.3,0.3-0.3,0.8,0.1,1.1l0.9,0.8
	c0.1,0.1,0.3,0.2,0.5,0.2S8.2,16.3,8.4,16.2z M15.9,10c0-0.4-0.3-0.8-0.8-0.8H13c-0.4,0-0.8,0.3-0.8,0.8s0.3,0.8,0.8,0.8h2.2
	C15.6,10.8,15.9,10.5,15.9,10z M8.4,11.2l1.9-1.7c0.3-0.3,0.3-0.8,0.1-1.1C10,8.1,9.5,8.1,9.2,8.4L7.9,9.6L7.5,9.2
	C7.1,8.9,6.7,9,6.4,9.3C6.1,9.6,6.1,10,6.4,10.3l0.9,0.8c0.1,0.1,0.3,0.2,0.5,0.2S8.2,11.3,8.4,11.2z"/>
</svg>

