<svg width="15" height="15" viewBox="0 0 15 15" fill="none" xmlns="http://www.w3.org/2000/svg">
<g id="Group">
<path id="Vector" d="M9.90505 8.8942L8.02277 7.4825V4.60685C8.02277 4.3177 7.78905 4.08398 7.49991 4.08398C7.21077 4.08398 6.97705 4.3177 6.97705 4.60685V7.74396C6.97705 7.90865 7.05444 8.06395 7.1862 8.16225L9.27759 9.73081C9.37169 9.80139 9.48151 9.83538 9.59078 9.83538C9.75025 9.83538 9.9071 9.76374 10.0096 9.62571C10.1832 9.3951 10.1362 9.06728 9.90505 8.8942Z" fill="#5B6880"/>
<path id="Vector_2" d="M7.5 0.952148C3.77782 0.952148 0.75 3.97997 0.75 7.70215C0.75 11.4243 3.77782 14.4521 7.5 14.4521C11.2222 14.4521 14.25 11.4243 14.25 7.70215C14.25 3.97997 11.2222 0.952148 7.5 0.952148ZM7.5 13.4065C4.35505 13.4065 1.7957 10.8471 1.7957 7.70215C1.7957 4.5572 4.35505 1.99784 7.5 1.99784C10.6455 1.99784 13.2043 4.5572 13.2043 7.70215C13.2043 10.8471 10.6449 13.4065 7.5 13.4065Z" fill="#5B6880"/>
</g>
</svg>
