<svg width="17" height="16" viewBox="0 0 17 16" fill="none" xmlns="http://www.w3.org/2000/svg">
<g id="Icon-24/Check circle">
<path id="Vector" d="M8.50016 1.33301C4.82394 1.33301 1.8335 4.32345 1.8335 7.99967C1.8335 11.6759 4.82394 14.6663 8.50016 14.6663C12.1764 14.6663 15.1668 11.6759 15.1668 7.99967C15.1668 4.32345 12.1764 1.33301 8.50016 1.33301ZM8.50016 13.6336C5.39404 13.6336 2.86628 11.1058 2.86628 7.99967C2.86628 4.89355 5.39404 2.36579 8.50016 2.36579C11.6068 2.36579 14.134 4.89355 14.134 7.99967C14.134 11.1058 11.6063 13.6336 8.50016 13.6336Z" fill="#343A40"/>
<path id="Path (Stroke)" fill-rule="evenodd" clip-rule="evenodd" d="M11.6379 6.53706C11.8983 6.79741 11.8983 7.21952 11.6379 7.47987L8.30457 10.8132C8.04423 11.0736 7.62212 11.0736 7.36177 10.8132L5.36177 8.8132C5.10142 8.55285 5.10142 8.13074 5.36177 7.87039C5.62212 7.61004 6.04423 7.61004 6.30457 7.87039L7.83317 9.39899L10.6951 6.53706C10.9554 6.27671 11.3776 6.27671 11.6379 6.53706Z" fill="#343A40"/>
</g>
</svg>
