<svg width="12" height="12" viewBox="0 0 12 12" fill="none" xmlns="http://www.w3.org/2000/svg">
<g id="Group">
<path id="Oval (Stroke)" fill-rule="evenodd" clip-rule="evenodd" d="M6 0.922722C3.1959 0.922722 0.922722 3.1959 0.922722 6C0.922722 8.8041 3.1959 11.0773 6 11.0773C8.8041 11.0773 11.0773 8.8041 11.0773 6C11.0773 3.1959 8.8041 0.922722 6 0.922722ZM0 6C0 2.68629 2.68629 0 6 0C9.31371 0 12 2.68629 12 6C12 9.31371 9.31371 12 6 12C2.68629 12 0 9.31371 0 6Z" fill="#B60011"/>
<path id="Vector 15 (Stroke)" fill-rule="evenodd" clip-rule="evenodd" d="M8.32318 3.98004C8.50335 4.16021 8.50335 4.45233 8.32318 4.6325L4.62589 8.32979C4.44572 8.50997 4.1536 8.50997 3.97343 8.32979C3.79325 8.14962 3.79325 7.8575 3.97343 7.67733L7.67072 3.98004C7.85089 3.79987 8.14301 3.79987 8.32318 3.98004Z" fill="#B60011"/>
<path id="Vector 16 (Stroke)" fill-rule="evenodd" clip-rule="evenodd" d="M8.32318 8.3233C8.14301 8.50347 7.85089 8.50347 7.67072 8.3233L3.97343 4.62601C3.79326 4.44584 3.79326 4.15372 3.97343 3.97355C4.1536 3.79338 4.44572 3.79338 4.62589 3.97355L8.32318 7.67084C8.50336 7.85101 8.50336 8.14313 8.32318 8.3233Z" fill="#B60011"/>
</g>
</svg>
