<svg width="16" height="16" viewBox="0 0 16 16" fill="none" xmlns="http://www.w3.org/2000/svg">
<g id="Icon-24/Check circle">
<path id="Vector" d="M8.00004 1.3335C4.32382 1.3335 1.33337 4.32394 1.33337 8.00016C1.33337 11.6764 4.32382 14.6668 8.00004 14.6668C11.6763 14.6668 14.6667 11.6764 14.6667 8.00016C14.6667 4.32394 11.6763 1.3335 8.00004 1.3335ZM8.00004 13.634C4.89392 13.634 2.36616 11.1063 2.36616 8.00016C2.36616 4.89404 4.89392 2.36628 8.00004 2.36628C11.1067 2.36628 13.6339 4.89404 13.6339 8.00016C13.6339 11.1063 11.1062 13.634 8.00004 13.634Z" fill="#28A745"/>
<path id="Path (Stroke)" fill-rule="evenodd" clip-rule="evenodd" d="M11.138 6.53755C11.3984 6.7979 11.3984 7.22001 11.138 7.48036L7.8047 10.8137C7.54435 11.074 7.12224 11.074 6.86189 10.8137L4.86189 8.81369C4.60154 8.55334 4.60154 8.13123 4.86189 7.87088C5.12224 7.61053 5.54435 7.61053 5.8047 7.87088L7.33329 9.39948L10.1952 6.53755C10.4556 6.2772 10.8777 6.2772 11.138 6.53755Z" fill="#28A745"/>
</g>
</svg>
