<?xml version="1.0" standalone="no"?>
<!DOCTYPE svg PUBLIC "-//W3C//DTD SVG 20010904//EN"
 "http://www.w3.org/TR/2001/REC-SVG-20010904/DTD/svg10.dtd">
<svg version="1.0" xmlns="http://www.w3.org/2000/svg"
 width="810.000000pt" height="245.000000pt" viewBox="0 0 810.000000 245.000000"
 preserveAspectRatio="xMidYMid meet">

<g transform="translate(0.000000,245.000000) scale(0.100000,-0.100000)"
fill="#000000" stroke="none">
<path d="M5833 2089 c-18 -10 -33 -16 -33 -13 0 2 -10 -1 -22 -8 -13 -7 -26
-11 -30 -10 -5 1 -8 -2 -8 -6 0 -5 -6 -9 -12 -9 -7 0 -50 -18 -95 -41 -46 -22
-83 -38 -83 -36 0 2 -19 -5 -42 -17 -24 -12 -44 -21 -46 -20 -1 1 -23 -10 -47
-24 -25 -14 -51 -25 -58 -25 -7 0 -42 -15 -79 -34 -36 -19 -69 -32 -72 -29 -3
4 -6 1 -6 -5 0 -7 -6 -12 -13 -12 -8 0 -40 -11 -73 -25 -32 -13 -52 -24 -44
-24 8 0 52 -18 98 -38 70 -33 81 -41 76 -58 -3 -11 -8 -32 -11 -47 -3 -16 -8
-28 -12 -28 -3 0 -12 -9 -19 -21 -11 -18 -11 -24 3 -39 13 -15 14 -27 5 -81
-15 -95 -15 -96 25 -101 33 -4 34 -3 30 27 -16 125 -17 155 -6 155 17 0 13 40
-4 46 -21 9 -19 60 4 83 10 10 49 28 87 40 38 12 90 28 115 37 25 8 56 17 70
19 14 3 52 14 84 25 33 11 89 27 125 36 39 9 71 22 80 34 32 42 100 24 100
-25 0 -31 -16 -41 -75 -49 -27 -3 -77 -15 -110 -26 -33 -10 -100 -31 -150 -45
-166 -48 -228 -70 -208 -75 10 -3 42 -17 71 -32 28 -15 52 -25 52 -23 0 2 27
-9 59 -26 33 -16 63 -29 67 -29 3 0 33 -13 65 -30 33 -16 59 -27 59 -24 0 3
15 -3 33 -15 62 -38 80 -41 128 -19 24 10 45 19 47 19 1 -1 33 14 71 33 38 19
71 32 75 29 3 -4 6 0 6 7 0 7 3 10 7 7 3 -4 26 4 50 18 23 14 43 23 43 20 0
-3 24 6 53 21 88 46 100 52 169 78 37 13 78 32 92 41 14 10 26 14 26 10 0 -3
15 3 34 15 19 11 45 23 57 25 27 5 38 15 16 15 -9 0 -47 14 -84 32 -38 17 -93
43 -123 57 -30 13 -72 33 -92 43 -21 11 -38 17 -38 14 0 -3 -37 12 -82 34
-206 96 -259 120 -268 120 -5 0 -29 11 -54 25 -25 14 -46 25 -48 24 -2 0 -18
-9 -35 -20z"/>
<path d="M830 1814 c-241 -46 -412 -229 -455 -486 -15 -90 -15 -106 0 -196 42
-248 206 -430 433 -477 81 -17 147 -11 244 23 167 59 316 243 343 425 l7 47
-66 30 c-144 64 -266 72 -412 25 -59 -18 -164 -68 -164 -78 0 -1 53 -2 118 -2
122 0 155 -7 255 -52 43 -20 57 -32 57 -47 0 -45 -74 -121 -160 -167 -38 -20
-59 -24 -140 -24 -79 0 -103 4 -142 23 -78 38 -134 96 -176 180 -36 74 -37 78
-37 191 0 111 1 119 34 189 42 88 117 162 198 192 61 23 164 27 223 9 29 -9
46 -9 72 0 18 7 70 15 115 18 l81 6 -35 33 c-51 48 -122 91 -187 114 -60 20
-162 32 -206 24z"/>
<path d="M1120 1560 c-21 -7 -17 -8 20 -9 32 0 41 2 30 9 -17 11 -16 11 -50 0z"/>
<path d="M1246 1560 c5 -5 25 -13 44 -16 32 -7 34 -6 21 9 -7 9 -27 17 -44 17
-20 0 -28 -3 -21 -10z"/>
<path d="M6765 1539 c-141 -19 -255 -128 -255 -243 0 -109 101 -207 270 -261
137 -44 135 -135 -3 -135 -74 0 -117 19 -153 66 -16 21 -44 53 -62 72 -32 34
-33 34 -52 17 -12 -11 -20 -31 -20 -50 0 -45 26 -128 51 -158 42 -54 246 -92
364 -67 198 41 305 197 233 340 -33 64 -92 104 -208 141 -115 36 -142 57 -138
102 6 67 104 73 181 11 23 -18 59 -46 79 -60 36 -25 39 -26 63 -10 52 34 40
109 -30 182 -39 41 -44 44 -70 34 -19 -7 -39 -7 -68 1 -71 19 -130 25 -182 18z"/>
<path d="M4667 1526 c-55 -15 -91 -45 -82 -68 3 -8 25 -24 48 -34 l42 -19 8
-185 c4 -102 5 -218 1 -258 -6 -71 -7 -73 -45 -98 -21 -13 -39 -30 -39 -37 0
-33 23 -37 226 -37 112 0 237 -5 279 -11 90 -12 100 -7 143 76 32 63 35 134 8
164 -30 33 -57 23 -73 -25 -8 -23 -24 -51 -37 -63 -45 -43 -167 -51 -198 -14
-15 18 -25 381 -13 460 5 37 11 46 40 60 19 9 36 22 39 28 9 25 -24 53 -74 64
-68 15 -213 13 -273 -3z"/>
<path d="M5357 1238 c-4 -165 -5 -304 -2 -308 7 -11 286 -182 290 -178 2 2
-17 86 -41 188 -62 258 -59 240 -40 240 9 0 61 -46 115 -101 54 -56 103 -99
108 -96 6 4 15 41 22 84 24 160 17 144 64 141 36 -3 42 -6 45 -28 1 -14 10
-67 19 -119 l16 -94 105 107 c65 66 111 106 121 104 9 -2 15 -10 14 -18 -2
-17 -90 -375 -99 -402 -4 -15 67 25 284 159 10 6 11 69 6 314 l-7 306 -226
-112 c-124 -62 -235 -115 -245 -119 -19 -6 -19 -7 1 -29 11 -12 18 -30 15 -40
-3 -15 -12 -17 -50 -15 -53 3 -68 27 -35 56 18 16 8 22 -227 138 l-247 122 -6
-300z"/>
<path d="M990 1515 c-32 -18 -25 -18 25 0 22 8 31 14 20 14 -11 0 -31 -6 -45
-14z"/>
<path d="M2650 1520 c-14 -4 -116 -8 -227 -9 -169 -1 -204 -4 -217 -17 -24
-23 -20 -46 14 -74 28 -23 31 -33 40 -110 12 -107 12 -239 0 -355 -9 -84 -11
-92 -41 -116 -27 -22 -30 -29 -21 -46 11 -20 22 -21 249 -26 131 -3 247 -7
258 -9 44 -7 104 178 76 231 -18 33 -43 22 -71 -33 -38 -74 -66 -91 -155 -91
-41 0 -79 5 -84 10 -16 16 -26 177 -12 203 23 42 91 18 91 -32 0 -12 7 -31 15
-42 15 -19 15 -19 34 4 11 13 23 43 27 68 10 71 0 189 -20 219 -17 26 -18 26
-37 9 -10 -9 -19 -30 -19 -45 0 -50 -9 -59 -56 -59 l-44 0 0 93 c0 59 4 97 12
105 14 14 126 16 162 2 14 -5 37 -27 52 -50 15 -22 33 -40 40 -40 40 0 45 137
7 188 -22 30 -36 34 -73 22z"/>
<path d="M3280 1520 c-14 -4 -116 -8 -227 -9 -169 -1 -204 -4 -217 -17 -24
-23 -20 -46 14 -74 28 -23 31 -33 40 -110 12 -107 12 -239 0 -355 -9 -84 -11
-92 -41 -116 -27 -22 -30 -29 -21 -46 11 -20 22 -21 249 -26 131 -3 247 -7
258 -9 44 -7 104 178 76 231 -18 33 -43 22 -71 -33 -38 -74 -66 -91 -155 -91
-41 0 -79 5 -84 10 -16 16 -26 177 -12 203 23 42 91 18 91 -32 0 -12 7 -31 15
-42 15 -19 15 -19 34 4 11 13 23 43 27 68 10 71 0 189 -20 219 -17 26 -18 26
-37 9 -10 -9 -19 -30 -19 -45 0 -50 -9 -59 -56 -59 l-44 0 0 93 c0 59 4 97 12
105 14 14 126 16 162 2 14 -5 37 -27 52 -50 15 -22 33 -40 40 -40 40 0 45 137
7 188 -22 30 -36 34 -73 22z"/>
<path d="M1637 1511 c-122 -5 -140 -8 -153 -25 -20 -28 -18 -39 17 -72 l30
-29 -3 -247 -3 -247 -27 -28 c-34 -36 -35 -43 -2 -74 23 -22 35 -24 127 -27
112 -3 150 8 155 46 2 13 -7 35 -22 53 -24 28 -26 38 -26 125 l0 94 28 0 c50
0 61 -18 87 -135 19 -89 42 -140 75 -170 18 -16 36 -20 102 -20 75 0 81 2 104
29 30 34 28 57 -8 74 -27 12 -30 21 -44 112 -9 64 -38 115 -79 140 -42 26 -45
51 -9 75 14 9 34 35 45 58 63 140 -42 281 -205 275 -28 -1 -113 -4 -189 -7z
m168 -115 c15 -11 20 -30 23 -85 5 -93 -12 -124 -66 -119 l-37 3 3 95 c1 52 4
101 7 108 6 16 47 15 70 -2z"/>
<path d="M3500 1513 c-27 -10 -50 -36 -50 -56 0 -11 15 -35 34 -52 43 -40 49
-78 44 -322 l-3 -182 -27 -28 c-60 -62 -18 -113 92 -113 53 0 73 4 94 21 31
24 34 62 6 82 -29 20 -40 60 -40 140 0 168 16 164 221 -63 97 -107 169 -180
180 -180 39 0 44 33 49 333 l5 287 33 31 c68 63 27 109 -98 109 -62 0 -74 -3
-95 -25 -32 -31 -31 -40 8 -76 31 -28 32 -33 36 -114 3 -72 1 -86 -14 -91 -24
-10 -53 11 -124 90 -36 39 -95 104 -133 144 l-69 72 -67 -1 c-37 0 -74 -3 -82
-6z"/>
<path d="M1300 1467 c0 -23 28 -58 51 -66 27 -9 29 -8 29 13 0 13 -6 28 -13
34 -14 12 -67 27 -67 19z"/>
<path d="M1345 1308 c1 -13 3 -31 4 -40 0 -10 15 -25 32 -34 l32 -16 -6 43
c-5 41 -27 69 -53 69 -6 0 -10 -10 -9 -22z"/>
<path d="M791 1236 c-13 -7 -20 -16 -15 -19 5 -3 20 0 33 7 13 7 20 16 15 19
-5 3 -20 0 -33 -7z"/>
</g>
</svg>
